M48
; DRILL file {KiCad 5.1.6-c6e7f7d~86~ubuntu20.04.1} date Sun May 31 10:56:48 2020
; FORMAT={-:-/ absolute / inch / decimal}
; #@! TF.CreationDate,2020-05-31T10:56:48+02:00
; #@! TF.GenerationSoftware,Kicad,Pcbnew,5.1.6-c6e7f7d~86~ubuntu20.04.1
; #@! TF.FileFunction,Plated,1,4,PTH
FMAT,2
INCH
T1C0.0157
T2C0.0300
T3C0.0315
T4C0.0394
T5C0.0984
%
G90
G05
T1
X2.22Y-2.8
X2.28Y-3.46
X2.2992Y-3.7008
X2.3Y-3.06
X2.33Y-2.9945
X2.33Y-3.6245
X3.64Y-3.82
X3.7357Y-3.1897
X3.7928Y-3.1692
X4.1774Y-3.0774
X4.718Y-4.2323
X4.7289Y-4.3414
X4.8097Y-2.7755
X4.825Y-2.15
X4.825Y-2.95
X4.825Y-3.75
X4.825Y-4.55
X4.8331Y-2.1015
X4.84Y-2.65
X4.84Y-2.75
X4.84Y-4.25
X4.84Y-4.35
X4.8425Y-1.8504
X4.8425Y-1.9504
X4.86Y-3.45
X4.86Y-3.55
X4.8708Y-2.7865
X4.9364Y-4.5276
X4.9383Y-3.6914
X4.9847Y-2.7772
X5.02Y-2.5
X5.02Y-2.55
X5.02Y-2.6
X5.02Y-3.3
X5.02Y-3.35
X5.02Y-3.4
X5.02Y-4.1
X5.02Y-4.15
X5.02Y-4.2
X5.0225Y-1.7004
X5.0225Y-1.7504
X5.0225Y-1.8104
X5.0255Y-2.6404
X5.13Y-2.5
X5.13Y-2.55
X5.13Y-3.3
X5.13Y-3.35
X5.13Y-4.1
X5.13Y-4.15
X5.1325Y-1.7004
X5.1325Y-1.7504
X5.1577Y-4.2502
X5.1647Y-1.8366
X5.1697Y-4.4855
X5.1701Y-3.6732
X5.1702Y-3.4404
X5.1703Y-2.8926
X5.1708Y-4.2067
X5.1711Y-2.065
X5.175Y-2.95
X5.175Y-3.75
X5.175Y-4.55
X5.1775Y-2.1504
X5.1951Y-3.408
X5.1991Y-3.5692
X5.21Y-4.3586
X5.2167Y-4.1179
X5.2318Y-3.3299
X5.24Y-2.57
X5.24Y-2.73
X5.24Y-2.89
X5.24Y-3.05
X5.24Y-3.37
X5.24Y-3.53
X5.24Y-3.69
X5.24Y-3.85
X5.24Y-4.17
X5.24Y-4.33
X5.24Y-4.49
X5.24Y-4.65
X5.2419Y-2.5258
X5.2425Y-1.7704
X5.2425Y-1.9304
X5.2425Y-2.0904
X5.2425Y-2.2504
X5.2446Y-1.7259
X5.3551Y-3.7242
X5.3554Y-3.5645
X5.3563Y-2.7291
X5.3566Y-3.837
X5.3572Y-2.775
X5.3599Y-2.8968
X5.39Y-4.2116
X5.3915Y-4.2509
X5.3938Y-2.5691
X5.4322Y-3.4813
X5.625Y-2.15
X5.625Y-2.95
X5.625Y-3.75
X5.625Y-4.55
X5.64Y-1.85
X5.64Y-1.95
X5.64Y-2.65
X5.64Y-2.75
X5.64Y-3.45
X5.64Y-3.55
X5.64Y-4.25
X5.64Y-4.35
X5.7368Y-4.5481
X5.7433Y-2.9244
X5.7445Y-2.007
X5.7542Y-3.5955
X5.82Y-1.7
X5.82Y-1.75
X5.82Y-1.8
X5.82Y-2.5
X5.82Y-2.55
X5.82Y-2.6
X5.82Y-3.3
X5.82Y-3.35
X5.82Y-3.4
X5.82Y-4.1
X5.82Y-4.15
X5.82Y-4.2
X5.8417Y-2.6505
X5.9128Y-4.3467
X5.93Y-1.7
X5.93Y-1.75
X5.93Y-2.5
X5.93Y-2.55
X5.93Y-3.3
X5.93Y-3.35
X5.93Y-4.1
X5.93Y-4.15
X5.9586Y-3.5805
X5.9691Y-4.6136
X5.9691Y-2.8878
X5.971Y-1.8371
X5.9736Y-3.4005
X5.975Y-2.15
X5.975Y-2.95
X5.975Y-3.75
X5.975Y-4.55
X5.9756Y-4.4666
X5.9832Y-3.4404
X5.9898Y-3.6917
X5.9946Y-3.339
X6.0031Y-2.6254
X6.0199Y-4.37
X6.0389Y-4.53
X6.0391Y-2.13
X6.04Y-1.77
X6.04Y-1.93
X6.04Y-2.09
X6.04Y-2.25
X6.04Y-2.57
X6.04Y-2.73
X6.04Y-2.89
X6.04Y-3.05
X6.04Y-3.37
X6.04Y-3.53
X6.04Y-3.69
X6.04Y-3.85
X6.04Y-4.17
X6.04Y-4.33
X6.04Y-4.49
X6.04Y-4.65
X6.0404Y-4.2806
X6.042Y-1.7299
X6.0441Y-4.0684
X6.0795Y-3.8845
X6.1544Y-2.968
X6.1545Y-3.5636
X6.1547Y-3.7237
X6.1553Y-3.4044
X6.1562Y-2.8327
X6.1613Y-2.513
X6.1613Y-2.6269
X6.425Y-2.15
X6.425Y-2.95
X6.425Y-3.75
X6.425Y-4.55
X6.44Y-2.65
X6.44Y-2.75
X6.44Y-3.45
X6.44Y-3.55
X6.44Y-4.25
X6.44Y-4.35
X6.46Y-1.85
X6.46Y-1.95
X6.5213Y-4.3906
X6.5364Y-3.7279
X6.5364Y-2.9714
X6.5448Y-2.1324
X6.5545Y-2.8958
X6.62Y-1.7
X6.62Y-1.75
X6.62Y-1.8
X6.62Y-2.5
X6.62Y-2.55
X6.62Y-2.6
X6.62Y-3.3
X6.62Y-3.35
X6.62Y-4.1
X6.62Y-4.15
X6.6416Y-4.2496
X6.6421Y-3.4503
X6.6421Y-1.8503
X6.6989Y-2.7745
X6.73Y-1.7
X6.73Y-1.75
X6.73Y-2.5
X6.73Y-2.55
X6.73Y-3.3
X6.73Y-3.35
X6.73Y-4.1
X6.73Y-4.15
X6.7744Y-2.8834
X6.7746Y-2.7818
X6.775Y-2.95
X6.775Y-3.75
X6.775Y-4.55
X6.7774Y-3.6862
X6.7829Y-4.485
X6.7899Y-2.0655
X6.7967Y-2.1457
X6.7997Y-2.5671
X6.8266Y-4.1294
X6.8379Y-3.3304
X6.8382Y-2.6839
X6.84Y-1.77
X6.84Y-1.93
X6.84Y-2.09
X6.84Y-2.25
X6.84Y-2.57
X6.84Y-2.73
X6.84Y-2.89
X6.84Y-3.05
X6.84Y-3.37
X6.84Y-3.53
X6.84Y-3.69
X6.84Y-3.85
X6.84Y-4.17
X6.84Y-4.33
X6.84Y-4.49
X6.84Y-4.65
X6.8434Y-1.7296
X6.8442Y-2.6154
X6.8751Y-2.3571
X6.8765Y-3.8845
X6.9549Y-3.724
X6.955Y-3.4041
X6.955Y-3.5641
X6.9572Y-2.8769
X6.9572Y-3.0149
X6.9581Y-2.7158
X6.9752Y-3.243
X7.0138Y-2.4757
X7.225Y-2.15
X7.225Y-2.95
X7.225Y-3.75
X7.225Y-4.55
X7.24Y-2.65
X7.24Y-2.75
X7.24Y-3.45
X7.24Y-3.55
X7.24Y-4.25
X7.24Y-4.35
X7.2593Y-3.5135
X7.26Y-1.85
X7.26Y-1.95
X7.2882Y-3.4126
X7.2947Y-2.0322
X7.3375Y-4.5279
X7.341Y-2.9182
X7.3412Y-2.9604
X7.3856Y-3.7093
X7.42Y-1.7
X7.42Y-1.75
X7.42Y-1.8
X7.42Y-2.5
X7.42Y-2.55
X7.42Y-2.6
X7.42Y-3.3
X7.42Y-3.35
X7.42Y-3.4
X7.42Y-4.1
X7.42Y-4.15
X7.42Y-4.2
X7.4351Y-1.8433
X7.4383Y-3.4461
X7.4903Y-3.5561
X7.53Y-1.7
X7.53Y-1.75
X7.53Y-2.5
X7.53Y-2.55
X7.53Y-3.3
X7.53Y-3.35
X7.53Y-4.1
X7.53Y-4.15
X7.5419Y-3.5385
X7.5444Y-2.7378
X7.5717Y-3.6929
X7.5732Y-4.2332
X7.575Y-2.15
X7.575Y-2.95
X7.575Y-3.75
X7.575Y-4.55
X7.5795Y-2.072
X7.5845Y-4.4856
X7.5905Y-2.479
X7.5911Y-2.8824
X7.6004Y-2.5691
X7.6052Y-1.8296
X7.6277Y-3.4159
X7.6298Y-2.6902
X7.6329Y-4.1395
X7.64Y-1.77
X7.64Y-1.93
X7.64Y-2.09
X7.64Y-2.25
X7.64Y-2.57
X7.64Y-2.73
X7.64Y-2.89
X7.64Y-3.05
X7.64Y-3.37
X7.64Y-3.53
X7.64Y-3.69
X7.64Y-3.85
X7.64Y-4.18
X7.64Y-4.34
X7.64Y-4.5
X7.64Y-4.66
X7.6411Y-3.4803
X7.6429Y-2.61
X7.6449Y-3.2539
X7.7091Y-3.885
X7.7402Y-3.9284
X7.7549Y-3.564
X7.7553Y-3.4044
X7.7555Y-2.8699
X7.7566Y-3.0093
X7.7572Y-2.6887
X7.7785Y-2.56
X7.9013Y-3.2642
X8.0192Y-3.5
X8.025Y-2.15
X8.025Y-2.95
X8.025Y-3.75
X8.025Y-4.55
X8.04Y-1.85
X8.04Y-1.95
X8.04Y-2.65
X8.04Y-2.75
X8.04Y-3.45
X8.04Y-3.55
X8.04Y-4.25
X8.04Y-4.35
X8.0561Y-4.4151
X8.0943Y-4.4394
X8.1518Y-3.6345
X8.1859Y-1.8299
X8.1865Y-1.9792
X8.22Y-1.7
X8.22Y-1.75
X8.22Y-1.8
X8.22Y-2.5
X8.22Y-2.55
X8.22Y-2.61
X8.22Y-3.3
X8.22Y-3.35
X8.22Y-3.4
X8.22Y-4.1
X8.22Y-4.15
X8.22Y-4.2
X8.2636Y-2.1156
X8.2705Y-2.7611
X8.33Y-1.7
X8.33Y-1.75
X8.33Y-2.5
X8.33Y-2.55
X8.33Y-3.3
X8.33Y-3.35
X8.34Y-4.1
X8.34Y-4.15
X8.3581Y-3.4505
X8.368Y-2.6404
X8.3683Y-3.6828
X8.3713Y-3.4067
X8.375Y-2.15
X8.375Y-2.95
X8.375Y-3.75
X8.375Y-4.55
X8.3774Y-4.234
X8.3781Y-2.8927
X8.3845Y-4.4849
X8.3976Y-2.6067
X8.4006Y-2.7586
X8.4046Y-3.3312
X8.4149Y-3.57
X8.431Y-1.7265
X8.4317Y-2.4528
X8.44Y-1.77
X8.44Y-1.93
X8.44Y-2.09
X8.44Y-2.25
X8.44Y-2.57
X8.44Y-2.73
X8.44Y-2.89
X8.44Y-3.05
X8.44Y-3.37
X8.44Y-3.49
X8.44Y-3.69
X8.44Y-3.85
X8.44Y-4.17
X8.44Y-4.33
X8.44Y-4.49
X8.44Y-4.65
X8.4405Y-4.1226
X8.4992Y-3.8883
X8.5396Y-3.8894
X8.5547Y-3.5629
X8.5552Y-3.4043
X8.5566Y-2.5105
X8.5577Y-2.9793
X8.5585Y-2.6951
X8.5585Y-2.8544
X8.5983Y-3.1141
X8.825Y-2.15
X8.825Y-2.95
X8.825Y-3.75
X8.825Y-4.55
X8.8277Y-2.1096
X8.84Y-2.65
X8.84Y-2.75
X8.84Y-3.45
X8.84Y-3.55
X8.85Y-4.25
X8.85Y-4.35
X8.86Y-1.85
X8.86Y-1.95
X8.9369Y-3.0294
X8.9696Y-3.5669
X8.9731Y-3.4311
X9.02Y-1.7
X9.02Y-1.75
X9.02Y-1.8
X9.02Y-2.5
X9.02Y-2.55
X9.02Y-2.61
X9.02Y-3.3
X9.02Y-3.35
X9.02Y-3.4
X9.02Y-4.1
X9.02Y-4.15
X9.02Y-4.2
X9.026Y-4.3645
X9.0373Y-4.246
X9.0636Y-2.9756
X9.1265Y-2.7725
X9.13Y-1.7
X9.13Y-1.75
X9.13Y-2.5
X9.13Y-2.55
X9.13Y-3.3
X9.13Y-3.35
X9.14Y-4.1
X9.14Y-4.15
X9.168Y-1.8404
X9.1686Y-4.4888
X9.1704Y-2.0719
X9.175Y-2.15
X9.175Y-2.95
X9.175Y-3.75
X9.175Y-4.55
X9.1798Y-3.0046
X9.1845Y-3.6768
X9.1883Y-2.8509
X9.1937Y-1.725
X9.2034Y-1.8006
X9.2075Y-4.2263
X9.2144Y-1.97
X9.2325Y-2.7728
X9.2384Y-3.3288
X9.24Y-2.57
X9.24Y-2.73
X9.24Y-2.89
X9.24Y-3.05
X9.24Y-3.37
X9.24Y-3.53
X9.24Y-3.69
X9.24Y-3.85
X9.24Y-4.17
X9.24Y-4.33
X9.24Y-4.49
X9.24Y-4.65
X9.2418Y-2.6135
X9.26Y-1.77
X9.26Y-1.93
X9.26Y-2.09
X9.26Y-2.25
X9.2977Y-3.8855
X9.3547Y-3.7238
X9.3561Y-3.4305
X9.3561Y-3.5849
X9.3567Y-2.6841
X9.3568Y-3.0138
X9.3571Y-2.8511
X9.3572Y-2.5358
T2
X2.5394Y-3.0689
X2.5394Y-3.1689
X2.5394Y-3.2689
X2.5394Y-3.3689
X2.5394Y-3.4689
X2.5394Y-3.5689
X2.5394Y-3.6689
X2.5394Y-3.7689
X2.5394Y-3.8689
X2.5394Y-3.9689
X2.5394Y-4.0689
X2.5394Y-4.1689
X2.5394Y-4.2689
X2.5394Y-4.3689
X2.5394Y-4.4689
X2.5394Y-4.5689
T3
X2.7616Y-2.8351
X2.7616Y-2.9353
X2.7616Y-3.0353
X2.7616Y-3.1353
X2.7616Y-3.2353
X2.7616Y-3.3353
X2.7616Y-3.4353
X2.7616Y-3.5353
X2.7616Y-3.6353
X2.7616Y-3.7351
X2.7616Y-3.8951
X2.7616Y-3.9951
X2.7616Y-4.0951
X2.7616Y-4.1951
X2.7616Y-4.2951
X2.7616Y-4.3951
X2.7616Y-4.4951
X2.7616Y-4.5951
X2.8616Y-3.0351
X2.8616Y-3.1351
X2.8616Y-3.2351
X2.8616Y-3.3351
X2.8616Y-3.4351
X2.8616Y-3.5351
X2.8616Y-3.6351
X2.8616Y-3.7351
X2.8616Y-3.8951
X2.8616Y-3.9951
X2.8616Y-4.0951
X2.8616Y-4.1951
X2.8616Y-4.2951
X2.8616Y-4.3951
X2.8616Y-4.4951
X2.8616Y-4.5951
X4.5616Y-3.5951
X4.5616Y-3.6951
X4.5616Y-3.7951
X4.5616Y-3.8951
X4.5616Y-4.0951
X4.5616Y-4.1951
X4.5616Y-4.2951
X4.5616Y-4.3951
X4.5616Y-4.4951
X4.5616Y-4.5951
X4.6616Y-3.1951
X4.6616Y-3.2951
X4.6616Y-3.3951
X4.6616Y-3.4951
X4.6616Y-3.5951
X4.6616Y-3.6951
X4.6616Y-3.7951
X4.6616Y-3.8951
X4.6616Y-4.0951
X4.6616Y-4.1951
X4.6616Y-4.2951
X4.6616Y-4.3951
X4.6616Y-4.4951
X4.6616Y-4.5951
T4
X2.125Y-2.7195
X2.225Y-2.7195
X2.325Y-2.7195
X2.125Y-3.9695
X2.125Y-4.0695
X2.225Y-3.9695
X2.225Y-4.0695
X2.325Y-3.9695
X2.325Y-4.0695
X2.125Y-3.3445
X2.225Y-3.3445
X2.325Y-3.3445
X8.2Y-1.3606
X8.2Y-1.4606
X8.3Y-1.3606
X8.3Y-1.4606
X8.4Y-1.3606
X8.4Y-1.4606
X8.5Y-1.3606
X8.5Y-1.4606
X8.6Y-1.3606
X8.6Y-1.4606
X5.8Y-1.3606
X5.8Y-1.4606
X5.9Y-1.3606
X5.9Y-1.4606
X6.0Y-1.3606
X6.0Y-1.4606
X6.1Y-1.3606
X6.1Y-1.4606
X6.2Y-1.3606
X6.2Y-1.4606
X5.0Y-4.8394
X5.0Y-4.9394
X5.1Y-4.8394
X5.1Y-4.9394
X5.2Y-4.8394
X5.2Y-4.9394
X5.3Y-4.8394
X5.3Y-4.9394
X5.4Y-4.8394
X5.4Y-4.9394
X5.8Y-4.8394
X5.8Y-4.9394
X5.9Y-4.8394
X5.9Y-4.9394
X6.0Y-4.8394
X6.0Y-4.9394
X6.1Y-4.8394
X6.1Y-4.9394
X6.2Y-4.8394
X6.2Y-4.9394
X6.6Y-1.3606
X6.6Y-1.4606
X6.7Y-1.3606
X6.7Y-1.4606
X6.8Y-1.3606
X6.8Y-1.4606
X6.9Y-1.3606
X6.9Y-1.4606
X7.0Y-1.3606
X7.0Y-1.4606
X6.6Y-4.8394
X6.6Y-4.9394
X6.7Y-4.8394
X6.7Y-4.9394
X6.8Y-4.8394
X6.8Y-4.9394
X6.9Y-4.8394
X6.9Y-4.9394
X7.0Y-4.8394
X7.0Y-4.9394
X9.0Y-4.8394
X9.0Y-4.9394
X9.1Y-4.8394
X9.1Y-4.9394
X9.2Y-4.8394
X9.2Y-4.9394
X9.3Y-4.8394
X9.3Y-4.9394
X9.4Y-4.8394
X9.4Y-4.9394
X8.2Y-4.8394
X8.2Y-4.9394
X8.3Y-4.8394
X8.3Y-4.9394
X8.4Y-4.8394
X8.4Y-4.9394
X8.5Y-4.8394
X8.5Y-4.9394
X8.6Y-4.8394
X8.6Y-4.9394
X5.0Y-1.3606
X5.0Y-1.4606
X5.1Y-1.3606
X5.1Y-1.4606
X5.2Y-1.3606
X5.2Y-1.4606
X5.3Y-1.3606
X5.3Y-1.4606
X5.4Y-1.3606
X5.4Y-1.4606
X2.125Y-3.1945
X2.225Y-3.1945
X2.325Y-3.1945
X7.4Y-1.3606
X7.4Y-1.4606
X7.5Y-1.3606
X7.5Y-1.4606
X7.6Y-1.3606
X7.6Y-1.4606
X7.7Y-1.3606
X7.7Y-1.4606
X7.8Y-1.3606
X7.8Y-1.4606
X2.125Y-3.8195
X2.225Y-3.8195
X2.325Y-3.8195
X9.0Y-1.3606
X9.0Y-1.4606
X9.1Y-1.3606
X9.1Y-1.4606
X9.2Y-1.3606
X9.2Y-1.4606
X9.3Y-1.3606
X9.3Y-1.4606
X9.4Y-1.3606
X9.4Y-1.4606
X7.4Y-4.8394
X7.4Y-4.9394
X7.5Y-4.8394
X7.5Y-4.9394
X7.6Y-4.8394
X7.6Y-4.9394
X7.7Y-4.8394
X7.7Y-4.9394
X7.8Y-4.8394
X7.8Y-4.9394
T5
X2.0472Y-4.9213
X9.6457Y-4.9213
X9.6457Y-1.378
X2.0472Y-1.378
T4
G00X2.1654Y-2.3937
M15
G01X2.1654Y-2.3701
M16
G05
G00X2.2953Y-2.5669
M15
G01X2.2717Y-2.5669
M16
G05
G00X2.4016Y-2.3937
M15
G01X2.4016Y-2.3701
M16
G05
T0
M30
