G04 #@! TF.GenerationSoftware,KiCad,Pcbnew,5.1.6-c6e7f7d~86~ubuntu20.04.1*
G04 #@! TF.CreationDate,2020-05-31T10:56:46+02:00*
G04 #@! TF.ProjectId,HPPSI02,48505053-4930-4322-9e6b-696361645f70,rev?*
G04 #@! TF.SameCoordinates,Original*
G04 #@! TF.FileFunction,Soldermask,Bot*
G04 #@! TF.FilePolarity,Negative*
%FSLAX46Y46*%
G04 Gerber Fmt 4.6, Leading zero omitted, Abs format (unit mm)*
G04 Created by KiCad (PCBNEW 5.1.6-c6e7f7d~86~ubuntu20.04.1) date 2020-05-31 10:56:46*
%MOMM*%
%LPD*%
G01*
G04 APERTURE LIST*
%ADD10C,0.100000*%
G04 APERTURE END LIST*
D10*
G36*
X245744098Y-122547033D02*
G01*
X246208350Y-122739332D01*
X246208352Y-122739333D01*
X246626168Y-123018509D01*
X246981491Y-123373832D01*
X247257144Y-123786376D01*
X247260668Y-123791650D01*
X247452967Y-124255902D01*
X247551000Y-124748747D01*
X247551000Y-125251253D01*
X247452967Y-125744098D01*
X247332739Y-126034354D01*
X247260667Y-126208352D01*
X246981491Y-126626168D01*
X246626168Y-126981491D01*
X246208352Y-127260667D01*
X246208351Y-127260668D01*
X246208350Y-127260668D01*
X245744098Y-127452967D01*
X245251253Y-127551000D01*
X244748747Y-127551000D01*
X244255902Y-127452967D01*
X243791650Y-127260668D01*
X243791649Y-127260668D01*
X243791648Y-127260667D01*
X243373832Y-126981491D01*
X243018509Y-126626168D01*
X242739333Y-126208352D01*
X242667261Y-126034354D01*
X242547033Y-125744098D01*
X242449000Y-125251253D01*
X242449000Y-124748747D01*
X242547033Y-124255902D01*
X242739332Y-123791650D01*
X242742856Y-123786376D01*
X243018509Y-123373832D01*
X243373832Y-123018509D01*
X243791648Y-122739333D01*
X243791650Y-122739332D01*
X244255902Y-122547033D01*
X244748747Y-122449000D01*
X245251253Y-122449000D01*
X245744098Y-122547033D01*
G37*
G36*
X52744098Y-122547033D02*
G01*
X53208350Y-122739332D01*
X53208352Y-122739333D01*
X53626168Y-123018509D01*
X53981491Y-123373832D01*
X54257144Y-123786376D01*
X54260668Y-123791650D01*
X54452967Y-124255902D01*
X54551000Y-124748747D01*
X54551000Y-125251253D01*
X54452967Y-125744098D01*
X54332739Y-126034354D01*
X54260667Y-126208352D01*
X53981491Y-126626168D01*
X53626168Y-126981491D01*
X53208352Y-127260667D01*
X53208351Y-127260668D01*
X53208350Y-127260668D01*
X52744098Y-127452967D01*
X52251253Y-127551000D01*
X51748747Y-127551000D01*
X51255902Y-127452967D01*
X50791650Y-127260668D01*
X50791649Y-127260668D01*
X50791648Y-127260667D01*
X50373832Y-126981491D01*
X50018509Y-126626168D01*
X49739333Y-126208352D01*
X49667261Y-126034354D01*
X49547033Y-125744098D01*
X49449000Y-125251253D01*
X49449000Y-124748747D01*
X49547033Y-124255902D01*
X49739332Y-123791650D01*
X49742856Y-123786376D01*
X50018509Y-123373832D01*
X50373832Y-123018509D01*
X50791648Y-122739333D01*
X50791650Y-122739332D01*
X51255902Y-122547033D01*
X51748747Y-122449000D01*
X52251253Y-122449000D01*
X52744098Y-122547033D01*
G37*
G36*
X210933512Y-124563927D02*
G01*
X211082812Y-124593624D01*
X211246784Y-124661544D01*
X211394354Y-124760147D01*
X211519853Y-124885646D01*
X211618456Y-125033216D01*
X211686376Y-125197188D01*
X211721000Y-125371259D01*
X211721000Y-125548741D01*
X211686376Y-125722812D01*
X211618456Y-125886784D01*
X211519853Y-126034354D01*
X211394354Y-126159853D01*
X211246784Y-126258456D01*
X211082812Y-126326376D01*
X210933512Y-126356073D01*
X210908742Y-126361000D01*
X210731258Y-126361000D01*
X210706488Y-126356073D01*
X210557188Y-126326376D01*
X210393216Y-126258456D01*
X210245646Y-126159853D01*
X210120147Y-126034354D01*
X210021544Y-125886784D01*
X209953624Y-125722812D01*
X209919000Y-125548741D01*
X209919000Y-125371259D01*
X209953624Y-125197188D01*
X210021544Y-125033216D01*
X210120147Y-124885646D01*
X210245646Y-124760147D01*
X210393216Y-124661544D01*
X210557188Y-124593624D01*
X210706488Y-124563927D01*
X210731258Y-124559000D01*
X210908742Y-124559000D01*
X210933512Y-124563927D01*
G37*
G36*
X238873512Y-124563927D02*
G01*
X239022812Y-124593624D01*
X239186784Y-124661544D01*
X239334354Y-124760147D01*
X239459853Y-124885646D01*
X239558456Y-125033216D01*
X239626376Y-125197188D01*
X239661000Y-125371259D01*
X239661000Y-125548741D01*
X239626376Y-125722812D01*
X239558456Y-125886784D01*
X239459853Y-126034354D01*
X239334354Y-126159853D01*
X239186784Y-126258456D01*
X239022812Y-126326376D01*
X238873512Y-126356073D01*
X238848742Y-126361000D01*
X238671258Y-126361000D01*
X238646488Y-126356073D01*
X238497188Y-126326376D01*
X238333216Y-126258456D01*
X238185646Y-126159853D01*
X238060147Y-126034354D01*
X237961544Y-125886784D01*
X237893624Y-125722812D01*
X237859000Y-125548741D01*
X237859000Y-125371259D01*
X237893624Y-125197188D01*
X237961544Y-125033216D01*
X238060147Y-124885646D01*
X238185646Y-124760147D01*
X238333216Y-124661544D01*
X238497188Y-124593624D01*
X238646488Y-124563927D01*
X238671258Y-124559000D01*
X238848742Y-124559000D01*
X238873512Y-124563927D01*
G37*
G36*
X198233512Y-124563927D02*
G01*
X198382812Y-124593624D01*
X198546784Y-124661544D01*
X198694354Y-124760147D01*
X198819853Y-124885646D01*
X198918456Y-125033216D01*
X198986376Y-125197188D01*
X199021000Y-125371259D01*
X199021000Y-125548741D01*
X198986376Y-125722812D01*
X198918456Y-125886784D01*
X198819853Y-126034354D01*
X198694354Y-126159853D01*
X198546784Y-126258456D01*
X198382812Y-126326376D01*
X198233512Y-126356073D01*
X198208742Y-126361000D01*
X198031258Y-126361000D01*
X198006488Y-126356073D01*
X197857188Y-126326376D01*
X197693216Y-126258456D01*
X197545646Y-126159853D01*
X197420147Y-126034354D01*
X197321544Y-125886784D01*
X197253624Y-125722812D01*
X197219000Y-125548741D01*
X197219000Y-125371259D01*
X197253624Y-125197188D01*
X197321544Y-125033216D01*
X197420147Y-124885646D01*
X197545646Y-124760147D01*
X197693216Y-124661544D01*
X197857188Y-124593624D01*
X198006488Y-124563927D01*
X198031258Y-124559000D01*
X198208742Y-124559000D01*
X198233512Y-124563927D01*
G37*
G36*
X195693512Y-124563927D02*
G01*
X195842812Y-124593624D01*
X196006784Y-124661544D01*
X196154354Y-124760147D01*
X196279853Y-124885646D01*
X196378456Y-125033216D01*
X196446376Y-125197188D01*
X196481000Y-125371259D01*
X196481000Y-125548741D01*
X196446376Y-125722812D01*
X196378456Y-125886784D01*
X196279853Y-126034354D01*
X196154354Y-126159853D01*
X196006784Y-126258456D01*
X195842812Y-126326376D01*
X195693512Y-126356073D01*
X195668742Y-126361000D01*
X195491258Y-126361000D01*
X195466488Y-126356073D01*
X195317188Y-126326376D01*
X195153216Y-126258456D01*
X195005646Y-126159853D01*
X194880147Y-126034354D01*
X194781544Y-125886784D01*
X194713624Y-125722812D01*
X194679000Y-125548741D01*
X194679000Y-125371259D01*
X194713624Y-125197188D01*
X194781544Y-125033216D01*
X194880147Y-124885646D01*
X195005646Y-124760147D01*
X195153216Y-124661544D01*
X195317188Y-124593624D01*
X195466488Y-124563927D01*
X195491258Y-124559000D01*
X195668742Y-124559000D01*
X195693512Y-124563927D01*
G37*
G36*
X193153512Y-124563927D02*
G01*
X193302812Y-124593624D01*
X193466784Y-124661544D01*
X193614354Y-124760147D01*
X193739853Y-124885646D01*
X193838456Y-125033216D01*
X193906376Y-125197188D01*
X193941000Y-125371259D01*
X193941000Y-125548741D01*
X193906376Y-125722812D01*
X193838456Y-125886784D01*
X193739853Y-126034354D01*
X193614354Y-126159853D01*
X193466784Y-126258456D01*
X193302812Y-126326376D01*
X193153512Y-126356073D01*
X193128742Y-126361000D01*
X192951258Y-126361000D01*
X192926488Y-126356073D01*
X192777188Y-126326376D01*
X192613216Y-126258456D01*
X192465646Y-126159853D01*
X192340147Y-126034354D01*
X192241544Y-125886784D01*
X192173624Y-125722812D01*
X192139000Y-125548741D01*
X192139000Y-125371259D01*
X192173624Y-125197188D01*
X192241544Y-125033216D01*
X192340147Y-124885646D01*
X192465646Y-124760147D01*
X192613216Y-124661544D01*
X192777188Y-124593624D01*
X192926488Y-124563927D01*
X192951258Y-124559000D01*
X193128742Y-124559000D01*
X193153512Y-124563927D01*
G37*
G36*
X190613512Y-124563927D02*
G01*
X190762812Y-124593624D01*
X190926784Y-124661544D01*
X191074354Y-124760147D01*
X191199853Y-124885646D01*
X191298456Y-125033216D01*
X191366376Y-125197188D01*
X191401000Y-125371259D01*
X191401000Y-125548741D01*
X191366376Y-125722812D01*
X191298456Y-125886784D01*
X191199853Y-126034354D01*
X191074354Y-126159853D01*
X190926784Y-126258456D01*
X190762812Y-126326376D01*
X190613512Y-126356073D01*
X190588742Y-126361000D01*
X190411258Y-126361000D01*
X190386488Y-126356073D01*
X190237188Y-126326376D01*
X190073216Y-126258456D01*
X189925646Y-126159853D01*
X189800147Y-126034354D01*
X189701544Y-125886784D01*
X189633624Y-125722812D01*
X189599000Y-125548741D01*
X189599000Y-125371259D01*
X189633624Y-125197188D01*
X189701544Y-125033216D01*
X189800147Y-124885646D01*
X189925646Y-124760147D01*
X190073216Y-124661544D01*
X190237188Y-124593624D01*
X190386488Y-124563927D01*
X190411258Y-124559000D01*
X190588742Y-124559000D01*
X190613512Y-124563927D01*
G37*
G36*
X188861000Y-126361000D02*
G01*
X187059000Y-126361000D01*
X187059000Y-124559000D01*
X188861000Y-124559000D01*
X188861000Y-126361000D01*
G37*
G36*
X177913512Y-124563927D02*
G01*
X178062812Y-124593624D01*
X178226784Y-124661544D01*
X178374354Y-124760147D01*
X178499853Y-124885646D01*
X178598456Y-125033216D01*
X178666376Y-125197188D01*
X178701000Y-125371259D01*
X178701000Y-125548741D01*
X178666376Y-125722812D01*
X178598456Y-125886784D01*
X178499853Y-126034354D01*
X178374354Y-126159853D01*
X178226784Y-126258456D01*
X178062812Y-126326376D01*
X177913512Y-126356073D01*
X177888742Y-126361000D01*
X177711258Y-126361000D01*
X177686488Y-126356073D01*
X177537188Y-126326376D01*
X177373216Y-126258456D01*
X177225646Y-126159853D01*
X177100147Y-126034354D01*
X177001544Y-125886784D01*
X176933624Y-125722812D01*
X176899000Y-125548741D01*
X176899000Y-125371259D01*
X176933624Y-125197188D01*
X177001544Y-125033216D01*
X177100147Y-124885646D01*
X177225646Y-124760147D01*
X177373216Y-124661544D01*
X177537188Y-124593624D01*
X177686488Y-124563927D01*
X177711258Y-124559000D01*
X177888742Y-124559000D01*
X177913512Y-124563927D01*
G37*
G36*
X175373512Y-124563927D02*
G01*
X175522812Y-124593624D01*
X175686784Y-124661544D01*
X175834354Y-124760147D01*
X175959853Y-124885646D01*
X176058456Y-125033216D01*
X176126376Y-125197188D01*
X176161000Y-125371259D01*
X176161000Y-125548741D01*
X176126376Y-125722812D01*
X176058456Y-125886784D01*
X175959853Y-126034354D01*
X175834354Y-126159853D01*
X175686784Y-126258456D01*
X175522812Y-126326376D01*
X175373512Y-126356073D01*
X175348742Y-126361000D01*
X175171258Y-126361000D01*
X175146488Y-126356073D01*
X174997188Y-126326376D01*
X174833216Y-126258456D01*
X174685646Y-126159853D01*
X174560147Y-126034354D01*
X174461544Y-125886784D01*
X174393624Y-125722812D01*
X174359000Y-125548741D01*
X174359000Y-125371259D01*
X174393624Y-125197188D01*
X174461544Y-125033216D01*
X174560147Y-124885646D01*
X174685646Y-124760147D01*
X174833216Y-124661544D01*
X174997188Y-124593624D01*
X175146488Y-124563927D01*
X175171258Y-124559000D01*
X175348742Y-124559000D01*
X175373512Y-124563927D01*
G37*
G36*
X170293512Y-124563927D02*
G01*
X170442812Y-124593624D01*
X170606784Y-124661544D01*
X170754354Y-124760147D01*
X170879853Y-124885646D01*
X170978456Y-125033216D01*
X171046376Y-125197188D01*
X171081000Y-125371259D01*
X171081000Y-125548741D01*
X171046376Y-125722812D01*
X170978456Y-125886784D01*
X170879853Y-126034354D01*
X170754354Y-126159853D01*
X170606784Y-126258456D01*
X170442812Y-126326376D01*
X170293512Y-126356073D01*
X170268742Y-126361000D01*
X170091258Y-126361000D01*
X170066488Y-126356073D01*
X169917188Y-126326376D01*
X169753216Y-126258456D01*
X169605646Y-126159853D01*
X169480147Y-126034354D01*
X169381544Y-125886784D01*
X169313624Y-125722812D01*
X169279000Y-125548741D01*
X169279000Y-125371259D01*
X169313624Y-125197188D01*
X169381544Y-125033216D01*
X169480147Y-124885646D01*
X169605646Y-124760147D01*
X169753216Y-124661544D01*
X169917188Y-124593624D01*
X170066488Y-124563927D01*
X170091258Y-124559000D01*
X170268742Y-124559000D01*
X170293512Y-124563927D01*
G37*
G36*
X168541000Y-126361000D02*
G01*
X166739000Y-126361000D01*
X166739000Y-124559000D01*
X168541000Y-124559000D01*
X168541000Y-126361000D01*
G37*
G36*
X157593512Y-124563927D02*
G01*
X157742812Y-124593624D01*
X157906784Y-124661544D01*
X158054354Y-124760147D01*
X158179853Y-124885646D01*
X158278456Y-125033216D01*
X158346376Y-125197188D01*
X158381000Y-125371259D01*
X158381000Y-125548741D01*
X158346376Y-125722812D01*
X158278456Y-125886784D01*
X158179853Y-126034354D01*
X158054354Y-126159853D01*
X157906784Y-126258456D01*
X157742812Y-126326376D01*
X157593512Y-126356073D01*
X157568742Y-126361000D01*
X157391258Y-126361000D01*
X157366488Y-126356073D01*
X157217188Y-126326376D01*
X157053216Y-126258456D01*
X156905646Y-126159853D01*
X156780147Y-126034354D01*
X156681544Y-125886784D01*
X156613624Y-125722812D01*
X156579000Y-125548741D01*
X156579000Y-125371259D01*
X156613624Y-125197188D01*
X156681544Y-125033216D01*
X156780147Y-124885646D01*
X156905646Y-124760147D01*
X157053216Y-124661544D01*
X157217188Y-124593624D01*
X157366488Y-124563927D01*
X157391258Y-124559000D01*
X157568742Y-124559000D01*
X157593512Y-124563927D01*
G37*
G36*
X155053512Y-124563927D02*
G01*
X155202812Y-124593624D01*
X155366784Y-124661544D01*
X155514354Y-124760147D01*
X155639853Y-124885646D01*
X155738456Y-125033216D01*
X155806376Y-125197188D01*
X155841000Y-125371259D01*
X155841000Y-125548741D01*
X155806376Y-125722812D01*
X155738456Y-125886784D01*
X155639853Y-126034354D01*
X155514354Y-126159853D01*
X155366784Y-126258456D01*
X155202812Y-126326376D01*
X155053512Y-126356073D01*
X155028742Y-126361000D01*
X154851258Y-126361000D01*
X154826488Y-126356073D01*
X154677188Y-126326376D01*
X154513216Y-126258456D01*
X154365646Y-126159853D01*
X154240147Y-126034354D01*
X154141544Y-125886784D01*
X154073624Y-125722812D01*
X154039000Y-125548741D01*
X154039000Y-125371259D01*
X154073624Y-125197188D01*
X154141544Y-125033216D01*
X154240147Y-124885646D01*
X154365646Y-124760147D01*
X154513216Y-124661544D01*
X154677188Y-124593624D01*
X154826488Y-124563927D01*
X154851258Y-124559000D01*
X155028742Y-124559000D01*
X155053512Y-124563927D01*
G37*
G36*
X152513512Y-124563927D02*
G01*
X152662812Y-124593624D01*
X152826784Y-124661544D01*
X152974354Y-124760147D01*
X153099853Y-124885646D01*
X153198456Y-125033216D01*
X153266376Y-125197188D01*
X153301000Y-125371259D01*
X153301000Y-125548741D01*
X153266376Y-125722812D01*
X153198456Y-125886784D01*
X153099853Y-126034354D01*
X152974354Y-126159853D01*
X152826784Y-126258456D01*
X152662812Y-126326376D01*
X152513512Y-126356073D01*
X152488742Y-126361000D01*
X152311258Y-126361000D01*
X152286488Y-126356073D01*
X152137188Y-126326376D01*
X151973216Y-126258456D01*
X151825646Y-126159853D01*
X151700147Y-126034354D01*
X151601544Y-125886784D01*
X151533624Y-125722812D01*
X151499000Y-125548741D01*
X151499000Y-125371259D01*
X151533624Y-125197188D01*
X151601544Y-125033216D01*
X151700147Y-124885646D01*
X151825646Y-124760147D01*
X151973216Y-124661544D01*
X152137188Y-124593624D01*
X152286488Y-124563927D01*
X152311258Y-124559000D01*
X152488742Y-124559000D01*
X152513512Y-124563927D01*
G37*
G36*
X149973512Y-124563927D02*
G01*
X150122812Y-124593624D01*
X150286784Y-124661544D01*
X150434354Y-124760147D01*
X150559853Y-124885646D01*
X150658456Y-125033216D01*
X150726376Y-125197188D01*
X150761000Y-125371259D01*
X150761000Y-125548741D01*
X150726376Y-125722812D01*
X150658456Y-125886784D01*
X150559853Y-126034354D01*
X150434354Y-126159853D01*
X150286784Y-126258456D01*
X150122812Y-126326376D01*
X149973512Y-126356073D01*
X149948742Y-126361000D01*
X149771258Y-126361000D01*
X149746488Y-126356073D01*
X149597188Y-126326376D01*
X149433216Y-126258456D01*
X149285646Y-126159853D01*
X149160147Y-126034354D01*
X149061544Y-125886784D01*
X148993624Y-125722812D01*
X148959000Y-125548741D01*
X148959000Y-125371259D01*
X148993624Y-125197188D01*
X149061544Y-125033216D01*
X149160147Y-124885646D01*
X149285646Y-124760147D01*
X149433216Y-124661544D01*
X149597188Y-124593624D01*
X149746488Y-124563927D01*
X149771258Y-124559000D01*
X149948742Y-124559000D01*
X149973512Y-124563927D01*
G37*
G36*
X148221000Y-126361000D02*
G01*
X146419000Y-126361000D01*
X146419000Y-124559000D01*
X148221000Y-124559000D01*
X148221000Y-126361000D01*
G37*
G36*
X172833512Y-124563927D02*
G01*
X172982812Y-124593624D01*
X173146784Y-124661544D01*
X173294354Y-124760147D01*
X173419853Y-124885646D01*
X173518456Y-125033216D01*
X173586376Y-125197188D01*
X173621000Y-125371259D01*
X173621000Y-125548741D01*
X173586376Y-125722812D01*
X173518456Y-125886784D01*
X173419853Y-126034354D01*
X173294354Y-126159853D01*
X173146784Y-126258456D01*
X172982812Y-126326376D01*
X172833512Y-126356073D01*
X172808742Y-126361000D01*
X172631258Y-126361000D01*
X172606488Y-126356073D01*
X172457188Y-126326376D01*
X172293216Y-126258456D01*
X172145646Y-126159853D01*
X172020147Y-126034354D01*
X171921544Y-125886784D01*
X171853624Y-125722812D01*
X171819000Y-125548741D01*
X171819000Y-125371259D01*
X171853624Y-125197188D01*
X171921544Y-125033216D01*
X172020147Y-124885646D01*
X172145646Y-124760147D01*
X172293216Y-124661544D01*
X172457188Y-124593624D01*
X172606488Y-124563927D01*
X172631258Y-124559000D01*
X172808742Y-124559000D01*
X172833512Y-124563927D01*
G37*
G36*
X137273512Y-124563927D02*
G01*
X137422812Y-124593624D01*
X137586784Y-124661544D01*
X137734354Y-124760147D01*
X137859853Y-124885646D01*
X137958456Y-125033216D01*
X138026376Y-125197188D01*
X138061000Y-125371259D01*
X138061000Y-125548741D01*
X138026376Y-125722812D01*
X137958456Y-125886784D01*
X137859853Y-126034354D01*
X137734354Y-126159853D01*
X137586784Y-126258456D01*
X137422812Y-126326376D01*
X137273512Y-126356073D01*
X137248742Y-126361000D01*
X137071258Y-126361000D01*
X137046488Y-126356073D01*
X136897188Y-126326376D01*
X136733216Y-126258456D01*
X136585646Y-126159853D01*
X136460147Y-126034354D01*
X136361544Y-125886784D01*
X136293624Y-125722812D01*
X136259000Y-125548741D01*
X136259000Y-125371259D01*
X136293624Y-125197188D01*
X136361544Y-125033216D01*
X136460147Y-124885646D01*
X136585646Y-124760147D01*
X136733216Y-124661544D01*
X136897188Y-124593624D01*
X137046488Y-124563927D01*
X137071258Y-124559000D01*
X137248742Y-124559000D01*
X137273512Y-124563927D01*
G37*
G36*
X213473512Y-124563927D02*
G01*
X213622812Y-124593624D01*
X213786784Y-124661544D01*
X213934354Y-124760147D01*
X214059853Y-124885646D01*
X214158456Y-125033216D01*
X214226376Y-125197188D01*
X214261000Y-125371259D01*
X214261000Y-125548741D01*
X214226376Y-125722812D01*
X214158456Y-125886784D01*
X214059853Y-126034354D01*
X213934354Y-126159853D01*
X213786784Y-126258456D01*
X213622812Y-126326376D01*
X213473512Y-126356073D01*
X213448742Y-126361000D01*
X213271258Y-126361000D01*
X213246488Y-126356073D01*
X213097188Y-126326376D01*
X212933216Y-126258456D01*
X212785646Y-126159853D01*
X212660147Y-126034354D01*
X212561544Y-125886784D01*
X212493624Y-125722812D01*
X212459000Y-125548741D01*
X212459000Y-125371259D01*
X212493624Y-125197188D01*
X212561544Y-125033216D01*
X212660147Y-124885646D01*
X212785646Y-124760147D01*
X212933216Y-124661544D01*
X213097188Y-124593624D01*
X213246488Y-124563927D01*
X213271258Y-124559000D01*
X213448742Y-124559000D01*
X213473512Y-124563927D01*
G37*
G36*
X216013512Y-124563927D02*
G01*
X216162812Y-124593624D01*
X216326784Y-124661544D01*
X216474354Y-124760147D01*
X216599853Y-124885646D01*
X216698456Y-125033216D01*
X216766376Y-125197188D01*
X216801000Y-125371259D01*
X216801000Y-125548741D01*
X216766376Y-125722812D01*
X216698456Y-125886784D01*
X216599853Y-126034354D01*
X216474354Y-126159853D01*
X216326784Y-126258456D01*
X216162812Y-126326376D01*
X216013512Y-126356073D01*
X215988742Y-126361000D01*
X215811258Y-126361000D01*
X215786488Y-126356073D01*
X215637188Y-126326376D01*
X215473216Y-126258456D01*
X215325646Y-126159853D01*
X215200147Y-126034354D01*
X215101544Y-125886784D01*
X215033624Y-125722812D01*
X214999000Y-125548741D01*
X214999000Y-125371259D01*
X215033624Y-125197188D01*
X215101544Y-125033216D01*
X215200147Y-124885646D01*
X215325646Y-124760147D01*
X215473216Y-124661544D01*
X215637188Y-124593624D01*
X215786488Y-124563927D01*
X215811258Y-124559000D01*
X215988742Y-124559000D01*
X216013512Y-124563927D01*
G37*
G36*
X218553512Y-124563927D02*
G01*
X218702812Y-124593624D01*
X218866784Y-124661544D01*
X219014354Y-124760147D01*
X219139853Y-124885646D01*
X219238456Y-125033216D01*
X219306376Y-125197188D01*
X219341000Y-125371259D01*
X219341000Y-125548741D01*
X219306376Y-125722812D01*
X219238456Y-125886784D01*
X219139853Y-126034354D01*
X219014354Y-126159853D01*
X218866784Y-126258456D01*
X218702812Y-126326376D01*
X218553512Y-126356073D01*
X218528742Y-126361000D01*
X218351258Y-126361000D01*
X218326488Y-126356073D01*
X218177188Y-126326376D01*
X218013216Y-126258456D01*
X217865646Y-126159853D01*
X217740147Y-126034354D01*
X217641544Y-125886784D01*
X217573624Y-125722812D01*
X217539000Y-125548741D01*
X217539000Y-125371259D01*
X217573624Y-125197188D01*
X217641544Y-125033216D01*
X217740147Y-124885646D01*
X217865646Y-124760147D01*
X218013216Y-124661544D01*
X218177188Y-124593624D01*
X218326488Y-124563927D01*
X218351258Y-124559000D01*
X218528742Y-124559000D01*
X218553512Y-124563927D01*
G37*
G36*
X229501000Y-126361000D02*
G01*
X227699000Y-126361000D01*
X227699000Y-124559000D01*
X229501000Y-124559000D01*
X229501000Y-126361000D01*
G37*
G36*
X231253512Y-124563927D02*
G01*
X231402812Y-124593624D01*
X231566784Y-124661544D01*
X231714354Y-124760147D01*
X231839853Y-124885646D01*
X231938456Y-125033216D01*
X232006376Y-125197188D01*
X232041000Y-125371259D01*
X232041000Y-125548741D01*
X232006376Y-125722812D01*
X231938456Y-125886784D01*
X231839853Y-126034354D01*
X231714354Y-126159853D01*
X231566784Y-126258456D01*
X231402812Y-126326376D01*
X231253512Y-126356073D01*
X231228742Y-126361000D01*
X231051258Y-126361000D01*
X231026488Y-126356073D01*
X230877188Y-126326376D01*
X230713216Y-126258456D01*
X230565646Y-126159853D01*
X230440147Y-126034354D01*
X230341544Y-125886784D01*
X230273624Y-125722812D01*
X230239000Y-125548741D01*
X230239000Y-125371259D01*
X230273624Y-125197188D01*
X230341544Y-125033216D01*
X230440147Y-124885646D01*
X230565646Y-124760147D01*
X230713216Y-124661544D01*
X230877188Y-124593624D01*
X231026488Y-124563927D01*
X231051258Y-124559000D01*
X231228742Y-124559000D01*
X231253512Y-124563927D01*
G37*
G36*
X233793512Y-124563927D02*
G01*
X233942812Y-124593624D01*
X234106784Y-124661544D01*
X234254354Y-124760147D01*
X234379853Y-124885646D01*
X234478456Y-125033216D01*
X234546376Y-125197188D01*
X234581000Y-125371259D01*
X234581000Y-125548741D01*
X234546376Y-125722812D01*
X234478456Y-125886784D01*
X234379853Y-126034354D01*
X234254354Y-126159853D01*
X234106784Y-126258456D01*
X233942812Y-126326376D01*
X233793512Y-126356073D01*
X233768742Y-126361000D01*
X233591258Y-126361000D01*
X233566488Y-126356073D01*
X233417188Y-126326376D01*
X233253216Y-126258456D01*
X233105646Y-126159853D01*
X232980147Y-126034354D01*
X232881544Y-125886784D01*
X232813624Y-125722812D01*
X232779000Y-125548741D01*
X232779000Y-125371259D01*
X232813624Y-125197188D01*
X232881544Y-125033216D01*
X232980147Y-124885646D01*
X233105646Y-124760147D01*
X233253216Y-124661544D01*
X233417188Y-124593624D01*
X233566488Y-124563927D01*
X233591258Y-124559000D01*
X233768742Y-124559000D01*
X233793512Y-124563927D01*
G37*
G36*
X236333512Y-124563927D02*
G01*
X236482812Y-124593624D01*
X236646784Y-124661544D01*
X236794354Y-124760147D01*
X236919853Y-124885646D01*
X237018456Y-125033216D01*
X237086376Y-125197188D01*
X237121000Y-125371259D01*
X237121000Y-125548741D01*
X237086376Y-125722812D01*
X237018456Y-125886784D01*
X236919853Y-126034354D01*
X236794354Y-126159853D01*
X236646784Y-126258456D01*
X236482812Y-126326376D01*
X236333512Y-126356073D01*
X236308742Y-126361000D01*
X236131258Y-126361000D01*
X236106488Y-126356073D01*
X235957188Y-126326376D01*
X235793216Y-126258456D01*
X235645646Y-126159853D01*
X235520147Y-126034354D01*
X235421544Y-125886784D01*
X235353624Y-125722812D01*
X235319000Y-125548741D01*
X235319000Y-125371259D01*
X235353624Y-125197188D01*
X235421544Y-125033216D01*
X235520147Y-124885646D01*
X235645646Y-124760147D01*
X235793216Y-124661544D01*
X235957188Y-124593624D01*
X236106488Y-124563927D01*
X236131258Y-124559000D01*
X236308742Y-124559000D01*
X236333512Y-124563927D01*
G37*
G36*
X209181000Y-126361000D02*
G01*
X207379000Y-126361000D01*
X207379000Y-124559000D01*
X209181000Y-124559000D01*
X209181000Y-126361000D01*
G37*
G36*
X134733512Y-124563927D02*
G01*
X134882812Y-124593624D01*
X135046784Y-124661544D01*
X135194354Y-124760147D01*
X135319853Y-124885646D01*
X135418456Y-125033216D01*
X135486376Y-125197188D01*
X135521000Y-125371259D01*
X135521000Y-125548741D01*
X135486376Y-125722812D01*
X135418456Y-125886784D01*
X135319853Y-126034354D01*
X135194354Y-126159853D01*
X135046784Y-126258456D01*
X134882812Y-126326376D01*
X134733512Y-126356073D01*
X134708742Y-126361000D01*
X134531258Y-126361000D01*
X134506488Y-126356073D01*
X134357188Y-126326376D01*
X134193216Y-126258456D01*
X134045646Y-126159853D01*
X133920147Y-126034354D01*
X133821544Y-125886784D01*
X133753624Y-125722812D01*
X133719000Y-125548741D01*
X133719000Y-125371259D01*
X133753624Y-125197188D01*
X133821544Y-125033216D01*
X133920147Y-124885646D01*
X134045646Y-124760147D01*
X134193216Y-124661544D01*
X134357188Y-124593624D01*
X134506488Y-124563927D01*
X134531258Y-124559000D01*
X134708742Y-124559000D01*
X134733512Y-124563927D01*
G37*
G36*
X132193512Y-124563927D02*
G01*
X132342812Y-124593624D01*
X132506784Y-124661544D01*
X132654354Y-124760147D01*
X132779853Y-124885646D01*
X132878456Y-125033216D01*
X132946376Y-125197188D01*
X132981000Y-125371259D01*
X132981000Y-125548741D01*
X132946376Y-125722812D01*
X132878456Y-125886784D01*
X132779853Y-126034354D01*
X132654354Y-126159853D01*
X132506784Y-126258456D01*
X132342812Y-126326376D01*
X132193512Y-126356073D01*
X132168742Y-126361000D01*
X131991258Y-126361000D01*
X131966488Y-126356073D01*
X131817188Y-126326376D01*
X131653216Y-126258456D01*
X131505646Y-126159853D01*
X131380147Y-126034354D01*
X131281544Y-125886784D01*
X131213624Y-125722812D01*
X131179000Y-125548741D01*
X131179000Y-125371259D01*
X131213624Y-125197188D01*
X131281544Y-125033216D01*
X131380147Y-124885646D01*
X131505646Y-124760147D01*
X131653216Y-124661544D01*
X131817188Y-124593624D01*
X131966488Y-124563927D01*
X131991258Y-124559000D01*
X132168742Y-124559000D01*
X132193512Y-124563927D01*
G37*
G36*
X129653512Y-124563927D02*
G01*
X129802812Y-124593624D01*
X129966784Y-124661544D01*
X130114354Y-124760147D01*
X130239853Y-124885646D01*
X130338456Y-125033216D01*
X130406376Y-125197188D01*
X130441000Y-125371259D01*
X130441000Y-125548741D01*
X130406376Y-125722812D01*
X130338456Y-125886784D01*
X130239853Y-126034354D01*
X130114354Y-126159853D01*
X129966784Y-126258456D01*
X129802812Y-126326376D01*
X129653512Y-126356073D01*
X129628742Y-126361000D01*
X129451258Y-126361000D01*
X129426488Y-126356073D01*
X129277188Y-126326376D01*
X129113216Y-126258456D01*
X128965646Y-126159853D01*
X128840147Y-126034354D01*
X128741544Y-125886784D01*
X128673624Y-125722812D01*
X128639000Y-125548741D01*
X128639000Y-125371259D01*
X128673624Y-125197188D01*
X128741544Y-125033216D01*
X128840147Y-124885646D01*
X128965646Y-124760147D01*
X129113216Y-124661544D01*
X129277188Y-124593624D01*
X129426488Y-124563927D01*
X129451258Y-124559000D01*
X129628742Y-124559000D01*
X129653512Y-124563927D01*
G37*
G36*
X127901000Y-126361000D02*
G01*
X126099000Y-126361000D01*
X126099000Y-124559000D01*
X127901000Y-124559000D01*
X127901000Y-126361000D01*
G37*
G36*
X190613512Y-122023927D02*
G01*
X190762812Y-122053624D01*
X190926784Y-122121544D01*
X191074354Y-122220147D01*
X191199853Y-122345646D01*
X191298456Y-122493216D01*
X191366376Y-122657188D01*
X191401000Y-122831259D01*
X191401000Y-123008741D01*
X191366376Y-123182812D01*
X191298456Y-123346784D01*
X191199853Y-123494354D01*
X191074354Y-123619853D01*
X190926784Y-123718456D01*
X190762812Y-123786376D01*
X190613512Y-123816073D01*
X190588742Y-123821000D01*
X190411258Y-123821000D01*
X190386488Y-123816073D01*
X190237188Y-123786376D01*
X190073216Y-123718456D01*
X189925646Y-123619853D01*
X189800147Y-123494354D01*
X189701544Y-123346784D01*
X189633624Y-123182812D01*
X189599000Y-123008741D01*
X189599000Y-122831259D01*
X189633624Y-122657188D01*
X189701544Y-122493216D01*
X189800147Y-122345646D01*
X189925646Y-122220147D01*
X190073216Y-122121544D01*
X190237188Y-122053624D01*
X190386488Y-122023927D01*
X190411258Y-122019000D01*
X190588742Y-122019000D01*
X190613512Y-122023927D01*
G37*
G36*
X193153512Y-122023927D02*
G01*
X193302812Y-122053624D01*
X193466784Y-122121544D01*
X193614354Y-122220147D01*
X193739853Y-122345646D01*
X193838456Y-122493216D01*
X193906376Y-122657188D01*
X193941000Y-122831259D01*
X193941000Y-123008741D01*
X193906376Y-123182812D01*
X193838456Y-123346784D01*
X193739853Y-123494354D01*
X193614354Y-123619853D01*
X193466784Y-123718456D01*
X193302812Y-123786376D01*
X193153512Y-123816073D01*
X193128742Y-123821000D01*
X192951258Y-123821000D01*
X192926488Y-123816073D01*
X192777188Y-123786376D01*
X192613216Y-123718456D01*
X192465646Y-123619853D01*
X192340147Y-123494354D01*
X192241544Y-123346784D01*
X192173624Y-123182812D01*
X192139000Y-123008741D01*
X192139000Y-122831259D01*
X192173624Y-122657188D01*
X192241544Y-122493216D01*
X192340147Y-122345646D01*
X192465646Y-122220147D01*
X192613216Y-122121544D01*
X192777188Y-122053624D01*
X192926488Y-122023927D01*
X192951258Y-122019000D01*
X193128742Y-122019000D01*
X193153512Y-122023927D01*
G37*
G36*
X195693512Y-122023927D02*
G01*
X195842812Y-122053624D01*
X196006784Y-122121544D01*
X196154354Y-122220147D01*
X196279853Y-122345646D01*
X196378456Y-122493216D01*
X196446376Y-122657188D01*
X196481000Y-122831259D01*
X196481000Y-123008741D01*
X196446376Y-123182812D01*
X196378456Y-123346784D01*
X196279853Y-123494354D01*
X196154354Y-123619853D01*
X196006784Y-123718456D01*
X195842812Y-123786376D01*
X195693512Y-123816073D01*
X195668742Y-123821000D01*
X195491258Y-123821000D01*
X195466488Y-123816073D01*
X195317188Y-123786376D01*
X195153216Y-123718456D01*
X195005646Y-123619853D01*
X194880147Y-123494354D01*
X194781544Y-123346784D01*
X194713624Y-123182812D01*
X194679000Y-123008741D01*
X194679000Y-122831259D01*
X194713624Y-122657188D01*
X194781544Y-122493216D01*
X194880147Y-122345646D01*
X195005646Y-122220147D01*
X195153216Y-122121544D01*
X195317188Y-122053624D01*
X195466488Y-122023927D01*
X195491258Y-122019000D01*
X195668742Y-122019000D01*
X195693512Y-122023927D01*
G37*
G36*
X198233512Y-122023927D02*
G01*
X198382812Y-122053624D01*
X198546784Y-122121544D01*
X198694354Y-122220147D01*
X198819853Y-122345646D01*
X198918456Y-122493216D01*
X198986376Y-122657188D01*
X199021000Y-122831259D01*
X199021000Y-123008741D01*
X198986376Y-123182812D01*
X198918456Y-123346784D01*
X198819853Y-123494354D01*
X198694354Y-123619853D01*
X198546784Y-123718456D01*
X198382812Y-123786376D01*
X198233512Y-123816073D01*
X198208742Y-123821000D01*
X198031258Y-123821000D01*
X198006488Y-123816073D01*
X197857188Y-123786376D01*
X197693216Y-123718456D01*
X197545646Y-123619853D01*
X197420147Y-123494354D01*
X197321544Y-123346784D01*
X197253624Y-123182812D01*
X197219000Y-123008741D01*
X197219000Y-122831259D01*
X197253624Y-122657188D01*
X197321544Y-122493216D01*
X197420147Y-122345646D01*
X197545646Y-122220147D01*
X197693216Y-122121544D01*
X197857188Y-122053624D01*
X198006488Y-122023927D01*
X198031258Y-122019000D01*
X198208742Y-122019000D01*
X198233512Y-122023927D01*
G37*
G36*
X208393512Y-122023927D02*
G01*
X208542812Y-122053624D01*
X208706784Y-122121544D01*
X208854354Y-122220147D01*
X208979853Y-122345646D01*
X209078456Y-122493216D01*
X209146376Y-122657188D01*
X209181000Y-122831259D01*
X209181000Y-123008741D01*
X209146376Y-123182812D01*
X209078456Y-123346784D01*
X208979853Y-123494354D01*
X208854354Y-123619853D01*
X208706784Y-123718456D01*
X208542812Y-123786376D01*
X208393512Y-123816073D01*
X208368742Y-123821000D01*
X208191258Y-123821000D01*
X208166488Y-123816073D01*
X208017188Y-123786376D01*
X207853216Y-123718456D01*
X207705646Y-123619853D01*
X207580147Y-123494354D01*
X207481544Y-123346784D01*
X207413624Y-123182812D01*
X207379000Y-123008741D01*
X207379000Y-122831259D01*
X207413624Y-122657188D01*
X207481544Y-122493216D01*
X207580147Y-122345646D01*
X207705646Y-122220147D01*
X207853216Y-122121544D01*
X208017188Y-122053624D01*
X208166488Y-122023927D01*
X208191258Y-122019000D01*
X208368742Y-122019000D01*
X208393512Y-122023927D01*
G37*
G36*
X210933512Y-122023927D02*
G01*
X211082812Y-122053624D01*
X211246784Y-122121544D01*
X211394354Y-122220147D01*
X211519853Y-122345646D01*
X211618456Y-122493216D01*
X211686376Y-122657188D01*
X211721000Y-122831259D01*
X211721000Y-123008741D01*
X211686376Y-123182812D01*
X211618456Y-123346784D01*
X211519853Y-123494354D01*
X211394354Y-123619853D01*
X211246784Y-123718456D01*
X211082812Y-123786376D01*
X210933512Y-123816073D01*
X210908742Y-123821000D01*
X210731258Y-123821000D01*
X210706488Y-123816073D01*
X210557188Y-123786376D01*
X210393216Y-123718456D01*
X210245646Y-123619853D01*
X210120147Y-123494354D01*
X210021544Y-123346784D01*
X209953624Y-123182812D01*
X209919000Y-123008741D01*
X209919000Y-122831259D01*
X209953624Y-122657188D01*
X210021544Y-122493216D01*
X210120147Y-122345646D01*
X210245646Y-122220147D01*
X210393216Y-122121544D01*
X210557188Y-122053624D01*
X210706488Y-122023927D01*
X210731258Y-122019000D01*
X210908742Y-122019000D01*
X210933512Y-122023927D01*
G37*
G36*
X216013512Y-122023927D02*
G01*
X216162812Y-122053624D01*
X216326784Y-122121544D01*
X216474354Y-122220147D01*
X216599853Y-122345646D01*
X216698456Y-122493216D01*
X216766376Y-122657188D01*
X216801000Y-122831259D01*
X216801000Y-123008741D01*
X216766376Y-123182812D01*
X216698456Y-123346784D01*
X216599853Y-123494354D01*
X216474354Y-123619853D01*
X216326784Y-123718456D01*
X216162812Y-123786376D01*
X216013512Y-123816073D01*
X215988742Y-123821000D01*
X215811258Y-123821000D01*
X215786488Y-123816073D01*
X215637188Y-123786376D01*
X215473216Y-123718456D01*
X215325646Y-123619853D01*
X215200147Y-123494354D01*
X215101544Y-123346784D01*
X215033624Y-123182812D01*
X214999000Y-123008741D01*
X214999000Y-122831259D01*
X215033624Y-122657188D01*
X215101544Y-122493216D01*
X215200147Y-122345646D01*
X215325646Y-122220147D01*
X215473216Y-122121544D01*
X215637188Y-122053624D01*
X215786488Y-122023927D01*
X215811258Y-122019000D01*
X215988742Y-122019000D01*
X216013512Y-122023927D01*
G37*
G36*
X213473512Y-122023927D02*
G01*
X213622812Y-122053624D01*
X213786784Y-122121544D01*
X213934354Y-122220147D01*
X214059853Y-122345646D01*
X214158456Y-122493216D01*
X214226376Y-122657188D01*
X214261000Y-122831259D01*
X214261000Y-123008741D01*
X214226376Y-123182812D01*
X214158456Y-123346784D01*
X214059853Y-123494354D01*
X213934354Y-123619853D01*
X213786784Y-123718456D01*
X213622812Y-123786376D01*
X213473512Y-123816073D01*
X213448742Y-123821000D01*
X213271258Y-123821000D01*
X213246488Y-123816073D01*
X213097188Y-123786376D01*
X212933216Y-123718456D01*
X212785646Y-123619853D01*
X212660147Y-123494354D01*
X212561544Y-123346784D01*
X212493624Y-123182812D01*
X212459000Y-123008741D01*
X212459000Y-122831259D01*
X212493624Y-122657188D01*
X212561544Y-122493216D01*
X212660147Y-122345646D01*
X212785646Y-122220147D01*
X212933216Y-122121544D01*
X213097188Y-122053624D01*
X213246488Y-122023927D01*
X213271258Y-122019000D01*
X213448742Y-122019000D01*
X213473512Y-122023927D01*
G37*
G36*
X137273512Y-122023927D02*
G01*
X137422812Y-122053624D01*
X137586784Y-122121544D01*
X137734354Y-122220147D01*
X137859853Y-122345646D01*
X137958456Y-122493216D01*
X138026376Y-122657188D01*
X138061000Y-122831259D01*
X138061000Y-123008741D01*
X138026376Y-123182812D01*
X137958456Y-123346784D01*
X137859853Y-123494354D01*
X137734354Y-123619853D01*
X137586784Y-123718456D01*
X137422812Y-123786376D01*
X137273512Y-123816073D01*
X137248742Y-123821000D01*
X137071258Y-123821000D01*
X137046488Y-123816073D01*
X136897188Y-123786376D01*
X136733216Y-123718456D01*
X136585646Y-123619853D01*
X136460147Y-123494354D01*
X136361544Y-123346784D01*
X136293624Y-123182812D01*
X136259000Y-123008741D01*
X136259000Y-122831259D01*
X136293624Y-122657188D01*
X136361544Y-122493216D01*
X136460147Y-122345646D01*
X136585646Y-122220147D01*
X136733216Y-122121544D01*
X136897188Y-122053624D01*
X137046488Y-122023927D01*
X137071258Y-122019000D01*
X137248742Y-122019000D01*
X137273512Y-122023927D01*
G37*
G36*
X147433512Y-122023927D02*
G01*
X147582812Y-122053624D01*
X147746784Y-122121544D01*
X147894354Y-122220147D01*
X148019853Y-122345646D01*
X148118456Y-122493216D01*
X148186376Y-122657188D01*
X148221000Y-122831259D01*
X148221000Y-123008741D01*
X148186376Y-123182812D01*
X148118456Y-123346784D01*
X148019853Y-123494354D01*
X147894354Y-123619853D01*
X147746784Y-123718456D01*
X147582812Y-123786376D01*
X147433512Y-123816073D01*
X147408742Y-123821000D01*
X147231258Y-123821000D01*
X147206488Y-123816073D01*
X147057188Y-123786376D01*
X146893216Y-123718456D01*
X146745646Y-123619853D01*
X146620147Y-123494354D01*
X146521544Y-123346784D01*
X146453624Y-123182812D01*
X146419000Y-123008741D01*
X146419000Y-122831259D01*
X146453624Y-122657188D01*
X146521544Y-122493216D01*
X146620147Y-122345646D01*
X146745646Y-122220147D01*
X146893216Y-122121544D01*
X147057188Y-122053624D01*
X147206488Y-122023927D01*
X147231258Y-122019000D01*
X147408742Y-122019000D01*
X147433512Y-122023927D01*
G37*
G36*
X149973512Y-122023927D02*
G01*
X150122812Y-122053624D01*
X150286784Y-122121544D01*
X150434354Y-122220147D01*
X150559853Y-122345646D01*
X150658456Y-122493216D01*
X150726376Y-122657188D01*
X150761000Y-122831259D01*
X150761000Y-123008741D01*
X150726376Y-123182812D01*
X150658456Y-123346784D01*
X150559853Y-123494354D01*
X150434354Y-123619853D01*
X150286784Y-123718456D01*
X150122812Y-123786376D01*
X149973512Y-123816073D01*
X149948742Y-123821000D01*
X149771258Y-123821000D01*
X149746488Y-123816073D01*
X149597188Y-123786376D01*
X149433216Y-123718456D01*
X149285646Y-123619853D01*
X149160147Y-123494354D01*
X149061544Y-123346784D01*
X148993624Y-123182812D01*
X148959000Y-123008741D01*
X148959000Y-122831259D01*
X148993624Y-122657188D01*
X149061544Y-122493216D01*
X149160147Y-122345646D01*
X149285646Y-122220147D01*
X149433216Y-122121544D01*
X149597188Y-122053624D01*
X149746488Y-122023927D01*
X149771258Y-122019000D01*
X149948742Y-122019000D01*
X149973512Y-122023927D01*
G37*
G36*
X152513512Y-122023927D02*
G01*
X152662812Y-122053624D01*
X152826784Y-122121544D01*
X152974354Y-122220147D01*
X153099853Y-122345646D01*
X153198456Y-122493216D01*
X153266376Y-122657188D01*
X153301000Y-122831259D01*
X153301000Y-123008741D01*
X153266376Y-123182812D01*
X153198456Y-123346784D01*
X153099853Y-123494354D01*
X152974354Y-123619853D01*
X152826784Y-123718456D01*
X152662812Y-123786376D01*
X152513512Y-123816073D01*
X152488742Y-123821000D01*
X152311258Y-123821000D01*
X152286488Y-123816073D01*
X152137188Y-123786376D01*
X151973216Y-123718456D01*
X151825646Y-123619853D01*
X151700147Y-123494354D01*
X151601544Y-123346784D01*
X151533624Y-123182812D01*
X151499000Y-123008741D01*
X151499000Y-122831259D01*
X151533624Y-122657188D01*
X151601544Y-122493216D01*
X151700147Y-122345646D01*
X151825646Y-122220147D01*
X151973216Y-122121544D01*
X152137188Y-122053624D01*
X152286488Y-122023927D01*
X152311258Y-122019000D01*
X152488742Y-122019000D01*
X152513512Y-122023927D01*
G37*
G36*
X155053512Y-122023927D02*
G01*
X155202812Y-122053624D01*
X155366784Y-122121544D01*
X155514354Y-122220147D01*
X155639853Y-122345646D01*
X155738456Y-122493216D01*
X155806376Y-122657188D01*
X155841000Y-122831259D01*
X155841000Y-123008741D01*
X155806376Y-123182812D01*
X155738456Y-123346784D01*
X155639853Y-123494354D01*
X155514354Y-123619853D01*
X155366784Y-123718456D01*
X155202812Y-123786376D01*
X155053512Y-123816073D01*
X155028742Y-123821000D01*
X154851258Y-123821000D01*
X154826488Y-123816073D01*
X154677188Y-123786376D01*
X154513216Y-123718456D01*
X154365646Y-123619853D01*
X154240147Y-123494354D01*
X154141544Y-123346784D01*
X154073624Y-123182812D01*
X154039000Y-123008741D01*
X154039000Y-122831259D01*
X154073624Y-122657188D01*
X154141544Y-122493216D01*
X154240147Y-122345646D01*
X154365646Y-122220147D01*
X154513216Y-122121544D01*
X154677188Y-122053624D01*
X154826488Y-122023927D01*
X154851258Y-122019000D01*
X155028742Y-122019000D01*
X155053512Y-122023927D01*
G37*
G36*
X157593512Y-122023927D02*
G01*
X157742812Y-122053624D01*
X157906784Y-122121544D01*
X158054354Y-122220147D01*
X158179853Y-122345646D01*
X158278456Y-122493216D01*
X158346376Y-122657188D01*
X158381000Y-122831259D01*
X158381000Y-123008741D01*
X158346376Y-123182812D01*
X158278456Y-123346784D01*
X158179853Y-123494354D01*
X158054354Y-123619853D01*
X157906784Y-123718456D01*
X157742812Y-123786376D01*
X157593512Y-123816073D01*
X157568742Y-123821000D01*
X157391258Y-123821000D01*
X157366488Y-123816073D01*
X157217188Y-123786376D01*
X157053216Y-123718456D01*
X156905646Y-123619853D01*
X156780147Y-123494354D01*
X156681544Y-123346784D01*
X156613624Y-123182812D01*
X156579000Y-123008741D01*
X156579000Y-122831259D01*
X156613624Y-122657188D01*
X156681544Y-122493216D01*
X156780147Y-122345646D01*
X156905646Y-122220147D01*
X157053216Y-122121544D01*
X157217188Y-122053624D01*
X157366488Y-122023927D01*
X157391258Y-122019000D01*
X157568742Y-122019000D01*
X157593512Y-122023927D01*
G37*
G36*
X167753512Y-122023927D02*
G01*
X167902812Y-122053624D01*
X168066784Y-122121544D01*
X168214354Y-122220147D01*
X168339853Y-122345646D01*
X168438456Y-122493216D01*
X168506376Y-122657188D01*
X168541000Y-122831259D01*
X168541000Y-123008741D01*
X168506376Y-123182812D01*
X168438456Y-123346784D01*
X168339853Y-123494354D01*
X168214354Y-123619853D01*
X168066784Y-123718456D01*
X167902812Y-123786376D01*
X167753512Y-123816073D01*
X167728742Y-123821000D01*
X167551258Y-123821000D01*
X167526488Y-123816073D01*
X167377188Y-123786376D01*
X167213216Y-123718456D01*
X167065646Y-123619853D01*
X166940147Y-123494354D01*
X166841544Y-123346784D01*
X166773624Y-123182812D01*
X166739000Y-123008741D01*
X166739000Y-122831259D01*
X166773624Y-122657188D01*
X166841544Y-122493216D01*
X166940147Y-122345646D01*
X167065646Y-122220147D01*
X167213216Y-122121544D01*
X167377188Y-122053624D01*
X167526488Y-122023927D01*
X167551258Y-122019000D01*
X167728742Y-122019000D01*
X167753512Y-122023927D01*
G37*
G36*
X188073512Y-122023927D02*
G01*
X188222812Y-122053624D01*
X188386784Y-122121544D01*
X188534354Y-122220147D01*
X188659853Y-122345646D01*
X188758456Y-122493216D01*
X188826376Y-122657188D01*
X188861000Y-122831259D01*
X188861000Y-123008741D01*
X188826376Y-123182812D01*
X188758456Y-123346784D01*
X188659853Y-123494354D01*
X188534354Y-123619853D01*
X188386784Y-123718456D01*
X188222812Y-123786376D01*
X188073512Y-123816073D01*
X188048742Y-123821000D01*
X187871258Y-123821000D01*
X187846488Y-123816073D01*
X187697188Y-123786376D01*
X187533216Y-123718456D01*
X187385646Y-123619853D01*
X187260147Y-123494354D01*
X187161544Y-123346784D01*
X187093624Y-123182812D01*
X187059000Y-123008741D01*
X187059000Y-122831259D01*
X187093624Y-122657188D01*
X187161544Y-122493216D01*
X187260147Y-122345646D01*
X187385646Y-122220147D01*
X187533216Y-122121544D01*
X187697188Y-122053624D01*
X187846488Y-122023927D01*
X187871258Y-122019000D01*
X188048742Y-122019000D01*
X188073512Y-122023927D01*
G37*
G36*
X134733512Y-122023927D02*
G01*
X134882812Y-122053624D01*
X135046784Y-122121544D01*
X135194354Y-122220147D01*
X135319853Y-122345646D01*
X135418456Y-122493216D01*
X135486376Y-122657188D01*
X135521000Y-122831259D01*
X135521000Y-123008741D01*
X135486376Y-123182812D01*
X135418456Y-123346784D01*
X135319853Y-123494354D01*
X135194354Y-123619853D01*
X135046784Y-123718456D01*
X134882812Y-123786376D01*
X134733512Y-123816073D01*
X134708742Y-123821000D01*
X134531258Y-123821000D01*
X134506488Y-123816073D01*
X134357188Y-123786376D01*
X134193216Y-123718456D01*
X134045646Y-123619853D01*
X133920147Y-123494354D01*
X133821544Y-123346784D01*
X133753624Y-123182812D01*
X133719000Y-123008741D01*
X133719000Y-122831259D01*
X133753624Y-122657188D01*
X133821544Y-122493216D01*
X133920147Y-122345646D01*
X134045646Y-122220147D01*
X134193216Y-122121544D01*
X134357188Y-122053624D01*
X134506488Y-122023927D01*
X134531258Y-122019000D01*
X134708742Y-122019000D01*
X134733512Y-122023927D01*
G37*
G36*
X170293512Y-122023927D02*
G01*
X170442812Y-122053624D01*
X170606784Y-122121544D01*
X170754354Y-122220147D01*
X170879853Y-122345646D01*
X170978456Y-122493216D01*
X171046376Y-122657188D01*
X171081000Y-122831259D01*
X171081000Y-123008741D01*
X171046376Y-123182812D01*
X170978456Y-123346784D01*
X170879853Y-123494354D01*
X170754354Y-123619853D01*
X170606784Y-123718456D01*
X170442812Y-123786376D01*
X170293512Y-123816073D01*
X170268742Y-123821000D01*
X170091258Y-123821000D01*
X170066488Y-123816073D01*
X169917188Y-123786376D01*
X169753216Y-123718456D01*
X169605646Y-123619853D01*
X169480147Y-123494354D01*
X169381544Y-123346784D01*
X169313624Y-123182812D01*
X169279000Y-123008741D01*
X169279000Y-122831259D01*
X169313624Y-122657188D01*
X169381544Y-122493216D01*
X169480147Y-122345646D01*
X169605646Y-122220147D01*
X169753216Y-122121544D01*
X169917188Y-122053624D01*
X170066488Y-122023927D01*
X170091258Y-122019000D01*
X170268742Y-122019000D01*
X170293512Y-122023927D01*
G37*
G36*
X233793512Y-122023927D02*
G01*
X233942812Y-122053624D01*
X234106784Y-122121544D01*
X234254354Y-122220147D01*
X234379853Y-122345646D01*
X234478456Y-122493216D01*
X234546376Y-122657188D01*
X234581000Y-122831259D01*
X234581000Y-123008741D01*
X234546376Y-123182812D01*
X234478456Y-123346784D01*
X234379853Y-123494354D01*
X234254354Y-123619853D01*
X234106784Y-123718456D01*
X233942812Y-123786376D01*
X233793512Y-123816073D01*
X233768742Y-123821000D01*
X233591258Y-123821000D01*
X233566488Y-123816073D01*
X233417188Y-123786376D01*
X233253216Y-123718456D01*
X233105646Y-123619853D01*
X232980147Y-123494354D01*
X232881544Y-123346784D01*
X232813624Y-123182812D01*
X232779000Y-123008741D01*
X232779000Y-122831259D01*
X232813624Y-122657188D01*
X232881544Y-122493216D01*
X232980147Y-122345646D01*
X233105646Y-122220147D01*
X233253216Y-122121544D01*
X233417188Y-122053624D01*
X233566488Y-122023927D01*
X233591258Y-122019000D01*
X233768742Y-122019000D01*
X233793512Y-122023927D01*
G37*
G36*
X236333512Y-122023927D02*
G01*
X236482812Y-122053624D01*
X236646784Y-122121544D01*
X236794354Y-122220147D01*
X236919853Y-122345646D01*
X237018456Y-122493216D01*
X237086376Y-122657188D01*
X237121000Y-122831259D01*
X237121000Y-123008741D01*
X237086376Y-123182812D01*
X237018456Y-123346784D01*
X236919853Y-123494354D01*
X236794354Y-123619853D01*
X236646784Y-123718456D01*
X236482812Y-123786376D01*
X236333512Y-123816073D01*
X236308742Y-123821000D01*
X236131258Y-123821000D01*
X236106488Y-123816073D01*
X235957188Y-123786376D01*
X235793216Y-123718456D01*
X235645646Y-123619853D01*
X235520147Y-123494354D01*
X235421544Y-123346784D01*
X235353624Y-123182812D01*
X235319000Y-123008741D01*
X235319000Y-122831259D01*
X235353624Y-122657188D01*
X235421544Y-122493216D01*
X235520147Y-122345646D01*
X235645646Y-122220147D01*
X235793216Y-122121544D01*
X235957188Y-122053624D01*
X236106488Y-122023927D01*
X236131258Y-122019000D01*
X236308742Y-122019000D01*
X236333512Y-122023927D01*
G37*
G36*
X127113512Y-122023927D02*
G01*
X127262812Y-122053624D01*
X127426784Y-122121544D01*
X127574354Y-122220147D01*
X127699853Y-122345646D01*
X127798456Y-122493216D01*
X127866376Y-122657188D01*
X127901000Y-122831259D01*
X127901000Y-123008741D01*
X127866376Y-123182812D01*
X127798456Y-123346784D01*
X127699853Y-123494354D01*
X127574354Y-123619853D01*
X127426784Y-123718456D01*
X127262812Y-123786376D01*
X127113512Y-123816073D01*
X127088742Y-123821000D01*
X126911258Y-123821000D01*
X126886488Y-123816073D01*
X126737188Y-123786376D01*
X126573216Y-123718456D01*
X126425646Y-123619853D01*
X126300147Y-123494354D01*
X126201544Y-123346784D01*
X126133624Y-123182812D01*
X126099000Y-123008741D01*
X126099000Y-122831259D01*
X126133624Y-122657188D01*
X126201544Y-122493216D01*
X126300147Y-122345646D01*
X126425646Y-122220147D01*
X126573216Y-122121544D01*
X126737188Y-122053624D01*
X126886488Y-122023927D01*
X126911258Y-122019000D01*
X127088742Y-122019000D01*
X127113512Y-122023927D01*
G37*
G36*
X172833512Y-122023927D02*
G01*
X172982812Y-122053624D01*
X173146784Y-122121544D01*
X173294354Y-122220147D01*
X173419853Y-122345646D01*
X173518456Y-122493216D01*
X173586376Y-122657188D01*
X173621000Y-122831259D01*
X173621000Y-123008741D01*
X173586376Y-123182812D01*
X173518456Y-123346784D01*
X173419853Y-123494354D01*
X173294354Y-123619853D01*
X173146784Y-123718456D01*
X172982812Y-123786376D01*
X172833512Y-123816073D01*
X172808742Y-123821000D01*
X172631258Y-123821000D01*
X172606488Y-123816073D01*
X172457188Y-123786376D01*
X172293216Y-123718456D01*
X172145646Y-123619853D01*
X172020147Y-123494354D01*
X171921544Y-123346784D01*
X171853624Y-123182812D01*
X171819000Y-123008741D01*
X171819000Y-122831259D01*
X171853624Y-122657188D01*
X171921544Y-122493216D01*
X172020147Y-122345646D01*
X172145646Y-122220147D01*
X172293216Y-122121544D01*
X172457188Y-122053624D01*
X172606488Y-122023927D01*
X172631258Y-122019000D01*
X172808742Y-122019000D01*
X172833512Y-122023927D01*
G37*
G36*
X228713512Y-122023927D02*
G01*
X228862812Y-122053624D01*
X229026784Y-122121544D01*
X229174354Y-122220147D01*
X229299853Y-122345646D01*
X229398456Y-122493216D01*
X229466376Y-122657188D01*
X229501000Y-122831259D01*
X229501000Y-123008741D01*
X229466376Y-123182812D01*
X229398456Y-123346784D01*
X229299853Y-123494354D01*
X229174354Y-123619853D01*
X229026784Y-123718456D01*
X228862812Y-123786376D01*
X228713512Y-123816073D01*
X228688742Y-123821000D01*
X228511258Y-123821000D01*
X228486488Y-123816073D01*
X228337188Y-123786376D01*
X228173216Y-123718456D01*
X228025646Y-123619853D01*
X227900147Y-123494354D01*
X227801544Y-123346784D01*
X227733624Y-123182812D01*
X227699000Y-123008741D01*
X227699000Y-122831259D01*
X227733624Y-122657188D01*
X227801544Y-122493216D01*
X227900147Y-122345646D01*
X228025646Y-122220147D01*
X228173216Y-122121544D01*
X228337188Y-122053624D01*
X228486488Y-122023927D01*
X228511258Y-122019000D01*
X228688742Y-122019000D01*
X228713512Y-122023927D01*
G37*
G36*
X129653512Y-122023927D02*
G01*
X129802812Y-122053624D01*
X129966784Y-122121544D01*
X130114354Y-122220147D01*
X130239853Y-122345646D01*
X130338456Y-122493216D01*
X130406376Y-122657188D01*
X130441000Y-122831259D01*
X130441000Y-123008741D01*
X130406376Y-123182812D01*
X130338456Y-123346784D01*
X130239853Y-123494354D01*
X130114354Y-123619853D01*
X129966784Y-123718456D01*
X129802812Y-123786376D01*
X129653512Y-123816073D01*
X129628742Y-123821000D01*
X129451258Y-123821000D01*
X129426488Y-123816073D01*
X129277188Y-123786376D01*
X129113216Y-123718456D01*
X128965646Y-123619853D01*
X128840147Y-123494354D01*
X128741544Y-123346784D01*
X128673624Y-123182812D01*
X128639000Y-123008741D01*
X128639000Y-122831259D01*
X128673624Y-122657188D01*
X128741544Y-122493216D01*
X128840147Y-122345646D01*
X128965646Y-122220147D01*
X129113216Y-122121544D01*
X129277188Y-122053624D01*
X129426488Y-122023927D01*
X129451258Y-122019000D01*
X129628742Y-122019000D01*
X129653512Y-122023927D01*
G37*
G36*
X231253512Y-122023927D02*
G01*
X231402812Y-122053624D01*
X231566784Y-122121544D01*
X231714354Y-122220147D01*
X231839853Y-122345646D01*
X231938456Y-122493216D01*
X232006376Y-122657188D01*
X232041000Y-122831259D01*
X232041000Y-123008741D01*
X232006376Y-123182812D01*
X231938456Y-123346784D01*
X231839853Y-123494354D01*
X231714354Y-123619853D01*
X231566784Y-123718456D01*
X231402812Y-123786376D01*
X231253512Y-123816073D01*
X231228742Y-123821000D01*
X231051258Y-123821000D01*
X231026488Y-123816073D01*
X230877188Y-123786376D01*
X230713216Y-123718456D01*
X230565646Y-123619853D01*
X230440147Y-123494354D01*
X230341544Y-123346784D01*
X230273624Y-123182812D01*
X230239000Y-123008741D01*
X230239000Y-122831259D01*
X230273624Y-122657188D01*
X230341544Y-122493216D01*
X230440147Y-122345646D01*
X230565646Y-122220147D01*
X230713216Y-122121544D01*
X230877188Y-122053624D01*
X231026488Y-122023927D01*
X231051258Y-122019000D01*
X231228742Y-122019000D01*
X231253512Y-122023927D01*
G37*
G36*
X175373512Y-122023927D02*
G01*
X175522812Y-122053624D01*
X175686784Y-122121544D01*
X175834354Y-122220147D01*
X175959853Y-122345646D01*
X176058456Y-122493216D01*
X176126376Y-122657188D01*
X176161000Y-122831259D01*
X176161000Y-123008741D01*
X176126376Y-123182812D01*
X176058456Y-123346784D01*
X175959853Y-123494354D01*
X175834354Y-123619853D01*
X175686784Y-123718456D01*
X175522812Y-123786376D01*
X175373512Y-123816073D01*
X175348742Y-123821000D01*
X175171258Y-123821000D01*
X175146488Y-123816073D01*
X174997188Y-123786376D01*
X174833216Y-123718456D01*
X174685646Y-123619853D01*
X174560147Y-123494354D01*
X174461544Y-123346784D01*
X174393624Y-123182812D01*
X174359000Y-123008741D01*
X174359000Y-122831259D01*
X174393624Y-122657188D01*
X174461544Y-122493216D01*
X174560147Y-122345646D01*
X174685646Y-122220147D01*
X174833216Y-122121544D01*
X174997188Y-122053624D01*
X175146488Y-122023927D01*
X175171258Y-122019000D01*
X175348742Y-122019000D01*
X175373512Y-122023927D01*
G37*
G36*
X132193512Y-122023927D02*
G01*
X132342812Y-122053624D01*
X132506784Y-122121544D01*
X132654354Y-122220147D01*
X132779853Y-122345646D01*
X132878456Y-122493216D01*
X132946376Y-122657188D01*
X132981000Y-122831259D01*
X132981000Y-123008741D01*
X132946376Y-123182812D01*
X132878456Y-123346784D01*
X132779853Y-123494354D01*
X132654354Y-123619853D01*
X132506784Y-123718456D01*
X132342812Y-123786376D01*
X132193512Y-123816073D01*
X132168742Y-123821000D01*
X131991258Y-123821000D01*
X131966488Y-123816073D01*
X131817188Y-123786376D01*
X131653216Y-123718456D01*
X131505646Y-123619853D01*
X131380147Y-123494354D01*
X131281544Y-123346784D01*
X131213624Y-123182812D01*
X131179000Y-123008741D01*
X131179000Y-122831259D01*
X131213624Y-122657188D01*
X131281544Y-122493216D01*
X131380147Y-122345646D01*
X131505646Y-122220147D01*
X131653216Y-122121544D01*
X131817188Y-122053624D01*
X131966488Y-122023927D01*
X131991258Y-122019000D01*
X132168742Y-122019000D01*
X132193512Y-122023927D01*
G37*
G36*
X177913512Y-122023927D02*
G01*
X178062812Y-122053624D01*
X178226784Y-122121544D01*
X178374354Y-122220147D01*
X178499853Y-122345646D01*
X178598456Y-122493216D01*
X178666376Y-122657188D01*
X178701000Y-122831259D01*
X178701000Y-123008741D01*
X178666376Y-123182812D01*
X178598456Y-123346784D01*
X178499853Y-123494354D01*
X178374354Y-123619853D01*
X178226784Y-123718456D01*
X178062812Y-123786376D01*
X177913512Y-123816073D01*
X177888742Y-123821000D01*
X177711258Y-123821000D01*
X177686488Y-123816073D01*
X177537188Y-123786376D01*
X177373216Y-123718456D01*
X177225646Y-123619853D01*
X177100147Y-123494354D01*
X177001544Y-123346784D01*
X176933624Y-123182812D01*
X176899000Y-123008741D01*
X176899000Y-122831259D01*
X176933624Y-122657188D01*
X177001544Y-122493216D01*
X177100147Y-122345646D01*
X177225646Y-122220147D01*
X177373216Y-122121544D01*
X177537188Y-122053624D01*
X177686488Y-122023927D01*
X177711258Y-122019000D01*
X177888742Y-122019000D01*
X177913512Y-122023927D01*
G37*
G36*
X218553512Y-122023927D02*
G01*
X218702812Y-122053624D01*
X218866784Y-122121544D01*
X219014354Y-122220147D01*
X219139853Y-122345646D01*
X219238456Y-122493216D01*
X219306376Y-122657188D01*
X219341000Y-122831259D01*
X219341000Y-123008741D01*
X219306376Y-123182812D01*
X219238456Y-123346784D01*
X219139853Y-123494354D01*
X219014354Y-123619853D01*
X218866784Y-123718456D01*
X218702812Y-123786376D01*
X218553512Y-123816073D01*
X218528742Y-123821000D01*
X218351258Y-123821000D01*
X218326488Y-123816073D01*
X218177188Y-123786376D01*
X218013216Y-123718456D01*
X217865646Y-123619853D01*
X217740147Y-123494354D01*
X217641544Y-123346784D01*
X217573624Y-123182812D01*
X217539000Y-123008741D01*
X217539000Y-122831259D01*
X217573624Y-122657188D01*
X217641544Y-122493216D01*
X217740147Y-122345646D01*
X217865646Y-122220147D01*
X218013216Y-122121544D01*
X218177188Y-122053624D01*
X218326488Y-122023927D01*
X218351258Y-122019000D01*
X218528742Y-122019000D01*
X218553512Y-122023927D01*
G37*
G36*
X238873512Y-122023927D02*
G01*
X239022812Y-122053624D01*
X239186784Y-122121544D01*
X239334354Y-122220147D01*
X239459853Y-122345646D01*
X239558456Y-122493216D01*
X239626376Y-122657188D01*
X239661000Y-122831259D01*
X239661000Y-123008741D01*
X239626376Y-123182812D01*
X239558456Y-123346784D01*
X239459853Y-123494354D01*
X239334354Y-123619853D01*
X239186784Y-123718456D01*
X239022812Y-123786376D01*
X238873512Y-123816073D01*
X238848742Y-123821000D01*
X238671258Y-123821000D01*
X238646488Y-123816073D01*
X238497188Y-123786376D01*
X238333216Y-123718456D01*
X238185646Y-123619853D01*
X238060147Y-123494354D01*
X237961544Y-123346784D01*
X237893624Y-123182812D01*
X237859000Y-123008741D01*
X237859000Y-122831259D01*
X237893624Y-122657188D01*
X237961544Y-122493216D01*
X238060147Y-122345646D01*
X238185646Y-122220147D01*
X238333216Y-122121544D01*
X238497188Y-122053624D01*
X238646488Y-122023927D01*
X238671258Y-122019000D01*
X238848742Y-122019000D01*
X238873512Y-122023927D01*
G37*
G36*
X116112228Y-115897703D02*
G01*
X116267100Y-115961853D01*
X116406481Y-116054985D01*
X116525015Y-116173519D01*
X116618147Y-116312900D01*
X116682297Y-116467772D01*
X116715000Y-116632184D01*
X116715000Y-116799816D01*
X116682297Y-116964228D01*
X116618147Y-117119100D01*
X116525015Y-117258481D01*
X116406481Y-117377015D01*
X116267100Y-117470147D01*
X116112228Y-117534297D01*
X115947816Y-117567000D01*
X115780184Y-117567000D01*
X115615772Y-117534297D01*
X115460900Y-117470147D01*
X115321519Y-117377015D01*
X115202985Y-117258481D01*
X115109853Y-117119100D01*
X115045703Y-116964228D01*
X115013000Y-116799816D01*
X115013000Y-116632184D01*
X115045703Y-116467772D01*
X115109853Y-116312900D01*
X115202985Y-116173519D01*
X115321519Y-116054985D01*
X115460900Y-115961853D01*
X115615772Y-115897703D01*
X115780184Y-115865000D01*
X115947816Y-115865000D01*
X116112228Y-115897703D01*
G37*
G36*
X72932228Y-115897703D02*
G01*
X73087100Y-115961853D01*
X73226481Y-116054985D01*
X73345015Y-116173519D01*
X73438147Y-116312900D01*
X73502297Y-116467772D01*
X73535000Y-116632184D01*
X73535000Y-116799816D01*
X73502297Y-116964228D01*
X73438147Y-117119100D01*
X73345015Y-117258481D01*
X73226481Y-117377015D01*
X73087100Y-117470147D01*
X72932228Y-117534297D01*
X72767816Y-117567000D01*
X72600184Y-117567000D01*
X72435772Y-117534297D01*
X72280900Y-117470147D01*
X72141519Y-117377015D01*
X72022985Y-117258481D01*
X71929853Y-117119100D01*
X71865703Y-116964228D01*
X71833000Y-116799816D01*
X71833000Y-116632184D01*
X71865703Y-116467772D01*
X71929853Y-116312900D01*
X72022985Y-116173519D01*
X72141519Y-116054985D01*
X72280900Y-115961853D01*
X72435772Y-115897703D01*
X72600184Y-115865000D01*
X72767816Y-115865000D01*
X72932228Y-115897703D01*
G37*
G36*
X118652228Y-115897703D02*
G01*
X118807100Y-115961853D01*
X118946481Y-116054985D01*
X119065015Y-116173519D01*
X119158147Y-116312900D01*
X119222297Y-116467772D01*
X119255000Y-116632184D01*
X119255000Y-116799816D01*
X119222297Y-116964228D01*
X119158147Y-117119100D01*
X119065015Y-117258481D01*
X118946481Y-117377015D01*
X118807100Y-117470147D01*
X118652228Y-117534297D01*
X118487816Y-117567000D01*
X118320184Y-117567000D01*
X118155772Y-117534297D01*
X118000900Y-117470147D01*
X117861519Y-117377015D01*
X117742985Y-117258481D01*
X117649853Y-117119100D01*
X117585703Y-116964228D01*
X117553000Y-116799816D01*
X117553000Y-116632184D01*
X117585703Y-116467772D01*
X117649853Y-116312900D01*
X117742985Y-116173519D01*
X117861519Y-116054985D01*
X118000900Y-115961853D01*
X118155772Y-115897703D01*
X118320184Y-115865000D01*
X118487816Y-115865000D01*
X118652228Y-115897703D01*
G37*
G36*
X70392228Y-115897703D02*
G01*
X70547100Y-115961853D01*
X70686481Y-116054985D01*
X70805015Y-116173519D01*
X70898147Y-116312900D01*
X70962297Y-116467772D01*
X70995000Y-116632184D01*
X70995000Y-116799816D01*
X70962297Y-116964228D01*
X70898147Y-117119100D01*
X70805015Y-117258481D01*
X70686481Y-117377015D01*
X70547100Y-117470147D01*
X70392228Y-117534297D01*
X70227816Y-117567000D01*
X70060184Y-117567000D01*
X69895772Y-117534297D01*
X69740900Y-117470147D01*
X69601519Y-117377015D01*
X69482985Y-117258481D01*
X69389853Y-117119100D01*
X69325703Y-116964228D01*
X69293000Y-116799816D01*
X69293000Y-116632184D01*
X69325703Y-116467772D01*
X69389853Y-116312900D01*
X69482985Y-116173519D01*
X69601519Y-116054985D01*
X69740900Y-115961853D01*
X69895772Y-115897703D01*
X70060184Y-115865000D01*
X70227816Y-115865000D01*
X70392228Y-115897703D01*
G37*
G36*
X64737142Y-115268242D02*
G01*
X64885101Y-115329529D01*
X65018255Y-115418499D01*
X65131501Y-115531745D01*
X65220471Y-115664899D01*
X65281758Y-115812858D01*
X65313000Y-115969925D01*
X65313000Y-116130075D01*
X65281758Y-116287142D01*
X65220471Y-116435101D01*
X65131501Y-116568255D01*
X65018255Y-116681501D01*
X64885101Y-116770471D01*
X64737142Y-116831758D01*
X64580075Y-116863000D01*
X64419925Y-116863000D01*
X64262858Y-116831758D01*
X64114899Y-116770471D01*
X63981745Y-116681501D01*
X63868499Y-116568255D01*
X63779529Y-116435101D01*
X63718242Y-116287142D01*
X63687000Y-116130075D01*
X63687000Y-115969925D01*
X63718242Y-115812858D01*
X63779529Y-115664899D01*
X63868499Y-115531745D01*
X63981745Y-115418499D01*
X64114899Y-115329529D01*
X64262858Y-115268242D01*
X64419925Y-115237000D01*
X64580075Y-115237000D01*
X64737142Y-115268242D01*
G37*
G36*
X70392228Y-113357703D02*
G01*
X70547100Y-113421853D01*
X70686481Y-113514985D01*
X70805015Y-113633519D01*
X70898147Y-113772900D01*
X70962297Y-113927772D01*
X70995000Y-114092184D01*
X70995000Y-114259816D01*
X70962297Y-114424228D01*
X70898147Y-114579100D01*
X70805015Y-114718481D01*
X70686481Y-114837015D01*
X70547100Y-114930147D01*
X70392228Y-114994297D01*
X70227816Y-115027000D01*
X70060184Y-115027000D01*
X69895772Y-114994297D01*
X69740900Y-114930147D01*
X69601519Y-114837015D01*
X69482985Y-114718481D01*
X69389853Y-114579100D01*
X69325703Y-114424228D01*
X69293000Y-114259816D01*
X69293000Y-114092184D01*
X69325703Y-113927772D01*
X69389853Y-113772900D01*
X69482985Y-113633519D01*
X69601519Y-113514985D01*
X69740900Y-113421853D01*
X69895772Y-113357703D01*
X70060184Y-113325000D01*
X70227816Y-113325000D01*
X70392228Y-113357703D01*
G37*
G36*
X72932228Y-113357703D02*
G01*
X73087100Y-113421853D01*
X73226481Y-113514985D01*
X73345015Y-113633519D01*
X73438147Y-113772900D01*
X73502297Y-113927772D01*
X73535000Y-114092184D01*
X73535000Y-114259816D01*
X73502297Y-114424228D01*
X73438147Y-114579100D01*
X73345015Y-114718481D01*
X73226481Y-114837015D01*
X73087100Y-114930147D01*
X72932228Y-114994297D01*
X72767816Y-115027000D01*
X72600184Y-115027000D01*
X72435772Y-114994297D01*
X72280900Y-114930147D01*
X72141519Y-114837015D01*
X72022985Y-114718481D01*
X71929853Y-114579100D01*
X71865703Y-114424228D01*
X71833000Y-114259816D01*
X71833000Y-114092184D01*
X71865703Y-113927772D01*
X71929853Y-113772900D01*
X72022985Y-113633519D01*
X72141519Y-113514985D01*
X72280900Y-113421853D01*
X72435772Y-113357703D01*
X72600184Y-113325000D01*
X72767816Y-113325000D01*
X72932228Y-113357703D01*
G37*
G36*
X116112228Y-113357703D02*
G01*
X116267100Y-113421853D01*
X116406481Y-113514985D01*
X116525015Y-113633519D01*
X116618147Y-113772900D01*
X116682297Y-113927772D01*
X116715000Y-114092184D01*
X116715000Y-114259816D01*
X116682297Y-114424228D01*
X116618147Y-114579100D01*
X116525015Y-114718481D01*
X116406481Y-114837015D01*
X116267100Y-114930147D01*
X116112228Y-114994297D01*
X115947816Y-115027000D01*
X115780184Y-115027000D01*
X115615772Y-114994297D01*
X115460900Y-114930147D01*
X115321519Y-114837015D01*
X115202985Y-114718481D01*
X115109853Y-114579100D01*
X115045703Y-114424228D01*
X115013000Y-114259816D01*
X115013000Y-114092184D01*
X115045703Y-113927772D01*
X115109853Y-113772900D01*
X115202985Y-113633519D01*
X115321519Y-113514985D01*
X115460900Y-113421853D01*
X115615772Y-113357703D01*
X115780184Y-113325000D01*
X115947816Y-113325000D01*
X116112228Y-113357703D01*
G37*
G36*
X118652228Y-113357703D02*
G01*
X118807100Y-113421853D01*
X118946481Y-113514985D01*
X119065015Y-113633519D01*
X119158147Y-113772900D01*
X119222297Y-113927772D01*
X119255000Y-114092184D01*
X119255000Y-114259816D01*
X119222297Y-114424228D01*
X119158147Y-114579100D01*
X119065015Y-114718481D01*
X118946481Y-114837015D01*
X118807100Y-114930147D01*
X118652228Y-114994297D01*
X118487816Y-115027000D01*
X118320184Y-115027000D01*
X118155772Y-114994297D01*
X118000900Y-114930147D01*
X117861519Y-114837015D01*
X117742985Y-114718481D01*
X117649853Y-114579100D01*
X117585703Y-114424228D01*
X117553000Y-114259816D01*
X117553000Y-114092184D01*
X117585703Y-113927772D01*
X117649853Y-113772900D01*
X117742985Y-113633519D01*
X117861519Y-113514985D01*
X118000900Y-113421853D01*
X118155772Y-113357703D01*
X118320184Y-113325000D01*
X118487816Y-113325000D01*
X118652228Y-113357703D01*
G37*
G36*
X64737142Y-112728242D02*
G01*
X64885101Y-112789529D01*
X65018255Y-112878499D01*
X65131501Y-112991745D01*
X65220471Y-113124899D01*
X65281758Y-113272858D01*
X65313000Y-113429925D01*
X65313000Y-113590075D01*
X65281758Y-113747142D01*
X65220471Y-113895101D01*
X65131501Y-114028255D01*
X65018255Y-114141501D01*
X64885101Y-114230471D01*
X64737142Y-114291758D01*
X64580075Y-114323000D01*
X64419925Y-114323000D01*
X64262858Y-114291758D01*
X64114899Y-114230471D01*
X63981745Y-114141501D01*
X63868499Y-114028255D01*
X63779529Y-113895101D01*
X63718242Y-113747142D01*
X63687000Y-113590075D01*
X63687000Y-113429925D01*
X63718242Y-113272858D01*
X63779529Y-113124899D01*
X63868499Y-112991745D01*
X63981745Y-112878499D01*
X64114899Y-112789529D01*
X64262858Y-112728242D01*
X64419925Y-112697000D01*
X64580075Y-112697000D01*
X64737142Y-112728242D01*
G37*
G36*
X70392228Y-110817703D02*
G01*
X70547100Y-110881853D01*
X70686481Y-110974985D01*
X70805015Y-111093519D01*
X70898147Y-111232900D01*
X70962297Y-111387772D01*
X70995000Y-111552184D01*
X70995000Y-111719816D01*
X70962297Y-111884228D01*
X70898147Y-112039100D01*
X70805015Y-112178481D01*
X70686481Y-112297015D01*
X70547100Y-112390147D01*
X70392228Y-112454297D01*
X70227816Y-112487000D01*
X70060184Y-112487000D01*
X69895772Y-112454297D01*
X69740900Y-112390147D01*
X69601519Y-112297015D01*
X69482985Y-112178481D01*
X69389853Y-112039100D01*
X69325703Y-111884228D01*
X69293000Y-111719816D01*
X69293000Y-111552184D01*
X69325703Y-111387772D01*
X69389853Y-111232900D01*
X69482985Y-111093519D01*
X69601519Y-110974985D01*
X69740900Y-110881853D01*
X69895772Y-110817703D01*
X70060184Y-110785000D01*
X70227816Y-110785000D01*
X70392228Y-110817703D01*
G37*
G36*
X72932228Y-110817703D02*
G01*
X73087100Y-110881853D01*
X73226481Y-110974985D01*
X73345015Y-111093519D01*
X73438147Y-111232900D01*
X73502297Y-111387772D01*
X73535000Y-111552184D01*
X73535000Y-111719816D01*
X73502297Y-111884228D01*
X73438147Y-112039100D01*
X73345015Y-112178481D01*
X73226481Y-112297015D01*
X73087100Y-112390147D01*
X72932228Y-112454297D01*
X72767816Y-112487000D01*
X72600184Y-112487000D01*
X72435772Y-112454297D01*
X72280900Y-112390147D01*
X72141519Y-112297015D01*
X72022985Y-112178481D01*
X71929853Y-112039100D01*
X71865703Y-111884228D01*
X71833000Y-111719816D01*
X71833000Y-111552184D01*
X71865703Y-111387772D01*
X71929853Y-111232900D01*
X72022985Y-111093519D01*
X72141519Y-110974985D01*
X72280900Y-110881853D01*
X72435772Y-110817703D01*
X72600184Y-110785000D01*
X72767816Y-110785000D01*
X72932228Y-110817703D01*
G37*
G36*
X118652228Y-110817703D02*
G01*
X118807100Y-110881853D01*
X118946481Y-110974985D01*
X119065015Y-111093519D01*
X119158147Y-111232900D01*
X119222297Y-111387772D01*
X119255000Y-111552184D01*
X119255000Y-111719816D01*
X119222297Y-111884228D01*
X119158147Y-112039100D01*
X119065015Y-112178481D01*
X118946481Y-112297015D01*
X118807100Y-112390147D01*
X118652228Y-112454297D01*
X118487816Y-112487000D01*
X118320184Y-112487000D01*
X118155772Y-112454297D01*
X118000900Y-112390147D01*
X117861519Y-112297015D01*
X117742985Y-112178481D01*
X117649853Y-112039100D01*
X117585703Y-111884228D01*
X117553000Y-111719816D01*
X117553000Y-111552184D01*
X117585703Y-111387772D01*
X117649853Y-111232900D01*
X117742985Y-111093519D01*
X117861519Y-110974985D01*
X118000900Y-110881853D01*
X118155772Y-110817703D01*
X118320184Y-110785000D01*
X118487816Y-110785000D01*
X118652228Y-110817703D01*
G37*
G36*
X116112228Y-110817703D02*
G01*
X116267100Y-110881853D01*
X116406481Y-110974985D01*
X116525015Y-111093519D01*
X116618147Y-111232900D01*
X116682297Y-111387772D01*
X116715000Y-111552184D01*
X116715000Y-111719816D01*
X116682297Y-111884228D01*
X116618147Y-112039100D01*
X116525015Y-112178481D01*
X116406481Y-112297015D01*
X116267100Y-112390147D01*
X116112228Y-112454297D01*
X115947816Y-112487000D01*
X115780184Y-112487000D01*
X115615772Y-112454297D01*
X115460900Y-112390147D01*
X115321519Y-112297015D01*
X115202985Y-112178481D01*
X115109853Y-112039100D01*
X115045703Y-111884228D01*
X115013000Y-111719816D01*
X115013000Y-111552184D01*
X115045703Y-111387772D01*
X115109853Y-111232900D01*
X115202985Y-111093519D01*
X115321519Y-110974985D01*
X115460900Y-110881853D01*
X115615772Y-110817703D01*
X115780184Y-110785000D01*
X115947816Y-110785000D01*
X116112228Y-110817703D01*
G37*
G36*
X64737142Y-110188242D02*
G01*
X64885101Y-110249529D01*
X65018255Y-110338499D01*
X65131501Y-110451745D01*
X65220471Y-110584899D01*
X65281758Y-110732858D01*
X65313000Y-110889925D01*
X65313000Y-111050075D01*
X65281758Y-111207142D01*
X65220471Y-111355101D01*
X65131501Y-111488255D01*
X65018255Y-111601501D01*
X64885101Y-111690471D01*
X64737142Y-111751758D01*
X64580075Y-111783000D01*
X64419925Y-111783000D01*
X64262858Y-111751758D01*
X64114899Y-111690471D01*
X63981745Y-111601501D01*
X63868499Y-111488255D01*
X63779529Y-111355101D01*
X63718242Y-111207142D01*
X63687000Y-111050075D01*
X63687000Y-110889925D01*
X63718242Y-110732858D01*
X63779529Y-110584899D01*
X63868499Y-110451745D01*
X63981745Y-110338499D01*
X64114899Y-110249529D01*
X64262858Y-110188242D01*
X64419925Y-110157000D01*
X64580075Y-110157000D01*
X64737142Y-110188242D01*
G37*
G36*
X116112228Y-108277703D02*
G01*
X116267100Y-108341853D01*
X116406481Y-108434985D01*
X116525015Y-108553519D01*
X116618147Y-108692900D01*
X116682297Y-108847772D01*
X116715000Y-109012184D01*
X116715000Y-109179816D01*
X116682297Y-109344228D01*
X116618147Y-109499100D01*
X116525015Y-109638481D01*
X116406481Y-109757015D01*
X116267100Y-109850147D01*
X116112228Y-109914297D01*
X115947816Y-109947000D01*
X115780184Y-109947000D01*
X115615772Y-109914297D01*
X115460900Y-109850147D01*
X115321519Y-109757015D01*
X115202985Y-109638481D01*
X115109853Y-109499100D01*
X115045703Y-109344228D01*
X115013000Y-109179816D01*
X115013000Y-109012184D01*
X115045703Y-108847772D01*
X115109853Y-108692900D01*
X115202985Y-108553519D01*
X115321519Y-108434985D01*
X115460900Y-108341853D01*
X115615772Y-108277703D01*
X115780184Y-108245000D01*
X115947816Y-108245000D01*
X116112228Y-108277703D01*
G37*
G36*
X118652228Y-108277703D02*
G01*
X118807100Y-108341853D01*
X118946481Y-108434985D01*
X119065015Y-108553519D01*
X119158147Y-108692900D01*
X119222297Y-108847772D01*
X119255000Y-109012184D01*
X119255000Y-109179816D01*
X119222297Y-109344228D01*
X119158147Y-109499100D01*
X119065015Y-109638481D01*
X118946481Y-109757015D01*
X118807100Y-109850147D01*
X118652228Y-109914297D01*
X118487816Y-109947000D01*
X118320184Y-109947000D01*
X118155772Y-109914297D01*
X118000900Y-109850147D01*
X117861519Y-109757015D01*
X117742985Y-109638481D01*
X117649853Y-109499100D01*
X117585703Y-109344228D01*
X117553000Y-109179816D01*
X117553000Y-109012184D01*
X117585703Y-108847772D01*
X117649853Y-108692900D01*
X117742985Y-108553519D01*
X117861519Y-108434985D01*
X118000900Y-108341853D01*
X118155772Y-108277703D01*
X118320184Y-108245000D01*
X118487816Y-108245000D01*
X118652228Y-108277703D01*
G37*
G36*
X70392228Y-108277703D02*
G01*
X70547100Y-108341853D01*
X70686481Y-108434985D01*
X70805015Y-108553519D01*
X70898147Y-108692900D01*
X70962297Y-108847772D01*
X70995000Y-109012184D01*
X70995000Y-109179816D01*
X70962297Y-109344228D01*
X70898147Y-109499100D01*
X70805015Y-109638481D01*
X70686481Y-109757015D01*
X70547100Y-109850147D01*
X70392228Y-109914297D01*
X70227816Y-109947000D01*
X70060184Y-109947000D01*
X69895772Y-109914297D01*
X69740900Y-109850147D01*
X69601519Y-109757015D01*
X69482985Y-109638481D01*
X69389853Y-109499100D01*
X69325703Y-109344228D01*
X69293000Y-109179816D01*
X69293000Y-109012184D01*
X69325703Y-108847772D01*
X69389853Y-108692900D01*
X69482985Y-108553519D01*
X69601519Y-108434985D01*
X69740900Y-108341853D01*
X69895772Y-108277703D01*
X70060184Y-108245000D01*
X70227816Y-108245000D01*
X70392228Y-108277703D01*
G37*
G36*
X72932228Y-108277703D02*
G01*
X73087100Y-108341853D01*
X73226481Y-108434985D01*
X73345015Y-108553519D01*
X73438147Y-108692900D01*
X73502297Y-108847772D01*
X73535000Y-109012184D01*
X73535000Y-109179816D01*
X73502297Y-109344228D01*
X73438147Y-109499100D01*
X73345015Y-109638481D01*
X73226481Y-109757015D01*
X73087100Y-109850147D01*
X72932228Y-109914297D01*
X72767816Y-109947000D01*
X72600184Y-109947000D01*
X72435772Y-109914297D01*
X72280900Y-109850147D01*
X72141519Y-109757015D01*
X72022985Y-109638481D01*
X71929853Y-109499100D01*
X71865703Y-109344228D01*
X71833000Y-109179816D01*
X71833000Y-109012184D01*
X71865703Y-108847772D01*
X71929853Y-108692900D01*
X72022985Y-108553519D01*
X72141519Y-108434985D01*
X72280900Y-108341853D01*
X72435772Y-108277703D01*
X72600184Y-108245000D01*
X72767816Y-108245000D01*
X72932228Y-108277703D01*
G37*
G36*
X64737142Y-107648242D02*
G01*
X64885101Y-107709529D01*
X65018255Y-107798499D01*
X65131501Y-107911745D01*
X65220471Y-108044899D01*
X65281758Y-108192858D01*
X65313000Y-108349925D01*
X65313000Y-108510075D01*
X65281758Y-108667142D01*
X65220471Y-108815101D01*
X65131501Y-108948255D01*
X65018255Y-109061501D01*
X64885101Y-109150471D01*
X64737142Y-109211758D01*
X64580075Y-109243000D01*
X64419925Y-109243000D01*
X64262858Y-109211758D01*
X64114899Y-109150471D01*
X63981745Y-109061501D01*
X63868499Y-108948255D01*
X63779529Y-108815101D01*
X63718242Y-108667142D01*
X63687000Y-108510075D01*
X63687000Y-108349925D01*
X63718242Y-108192858D01*
X63779529Y-108044899D01*
X63868499Y-107911745D01*
X63981745Y-107798499D01*
X64114899Y-107709529D01*
X64262858Y-107648242D01*
X64419925Y-107617000D01*
X64580075Y-107617000D01*
X64737142Y-107648242D01*
G37*
G36*
X72932228Y-105737703D02*
G01*
X73087100Y-105801853D01*
X73226481Y-105894985D01*
X73345015Y-106013519D01*
X73438147Y-106152900D01*
X73502297Y-106307772D01*
X73535000Y-106472184D01*
X73535000Y-106639816D01*
X73502297Y-106804228D01*
X73438147Y-106959100D01*
X73345015Y-107098481D01*
X73226481Y-107217015D01*
X73087100Y-107310147D01*
X72932228Y-107374297D01*
X72767816Y-107407000D01*
X72600184Y-107407000D01*
X72435772Y-107374297D01*
X72280900Y-107310147D01*
X72141519Y-107217015D01*
X72022985Y-107098481D01*
X71929853Y-106959100D01*
X71865703Y-106804228D01*
X71833000Y-106639816D01*
X71833000Y-106472184D01*
X71865703Y-106307772D01*
X71929853Y-106152900D01*
X72022985Y-106013519D01*
X72141519Y-105894985D01*
X72280900Y-105801853D01*
X72435772Y-105737703D01*
X72600184Y-105705000D01*
X72767816Y-105705000D01*
X72932228Y-105737703D01*
G37*
G36*
X116112228Y-105737703D02*
G01*
X116267100Y-105801853D01*
X116406481Y-105894985D01*
X116525015Y-106013519D01*
X116618147Y-106152900D01*
X116682297Y-106307772D01*
X116715000Y-106472184D01*
X116715000Y-106639816D01*
X116682297Y-106804228D01*
X116618147Y-106959100D01*
X116525015Y-107098481D01*
X116406481Y-107217015D01*
X116267100Y-107310147D01*
X116112228Y-107374297D01*
X115947816Y-107407000D01*
X115780184Y-107407000D01*
X115615772Y-107374297D01*
X115460900Y-107310147D01*
X115321519Y-107217015D01*
X115202985Y-107098481D01*
X115109853Y-106959100D01*
X115045703Y-106804228D01*
X115013000Y-106639816D01*
X115013000Y-106472184D01*
X115045703Y-106307772D01*
X115109853Y-106152900D01*
X115202985Y-106013519D01*
X115321519Y-105894985D01*
X115460900Y-105801853D01*
X115615772Y-105737703D01*
X115780184Y-105705000D01*
X115947816Y-105705000D01*
X116112228Y-105737703D01*
G37*
G36*
X70392228Y-105737703D02*
G01*
X70547100Y-105801853D01*
X70686481Y-105894985D01*
X70805015Y-106013519D01*
X70898147Y-106152900D01*
X70962297Y-106307772D01*
X70995000Y-106472184D01*
X70995000Y-106639816D01*
X70962297Y-106804228D01*
X70898147Y-106959100D01*
X70805015Y-107098481D01*
X70686481Y-107217015D01*
X70547100Y-107310147D01*
X70392228Y-107374297D01*
X70227816Y-107407000D01*
X70060184Y-107407000D01*
X69895772Y-107374297D01*
X69740900Y-107310147D01*
X69601519Y-107217015D01*
X69482985Y-107098481D01*
X69389853Y-106959100D01*
X69325703Y-106804228D01*
X69293000Y-106639816D01*
X69293000Y-106472184D01*
X69325703Y-106307772D01*
X69389853Y-106152900D01*
X69482985Y-106013519D01*
X69601519Y-105894985D01*
X69740900Y-105801853D01*
X69895772Y-105737703D01*
X70060184Y-105705000D01*
X70227816Y-105705000D01*
X70392228Y-105737703D01*
G37*
G36*
X118652228Y-105737703D02*
G01*
X118807100Y-105801853D01*
X118946481Y-105894985D01*
X119065015Y-106013519D01*
X119158147Y-106152900D01*
X119222297Y-106307772D01*
X119255000Y-106472184D01*
X119255000Y-106639816D01*
X119222297Y-106804228D01*
X119158147Y-106959100D01*
X119065015Y-107098481D01*
X118946481Y-107217015D01*
X118807100Y-107310147D01*
X118652228Y-107374297D01*
X118487816Y-107407000D01*
X118320184Y-107407000D01*
X118155772Y-107374297D01*
X118000900Y-107310147D01*
X117861519Y-107217015D01*
X117742985Y-107098481D01*
X117649853Y-106959100D01*
X117585703Y-106804228D01*
X117553000Y-106639816D01*
X117553000Y-106472184D01*
X117585703Y-106307772D01*
X117649853Y-106152900D01*
X117742985Y-106013519D01*
X117861519Y-105894985D01*
X118000900Y-105801853D01*
X118155772Y-105737703D01*
X118320184Y-105705000D01*
X118487816Y-105705000D01*
X118652228Y-105737703D01*
G37*
G36*
X64737142Y-105108242D02*
G01*
X64885101Y-105169529D01*
X65018255Y-105258499D01*
X65131501Y-105371745D01*
X65220471Y-105504899D01*
X65281758Y-105652858D01*
X65313000Y-105809925D01*
X65313000Y-105970075D01*
X65281758Y-106127142D01*
X65220471Y-106275101D01*
X65131501Y-106408255D01*
X65018255Y-106521501D01*
X64885101Y-106610471D01*
X64737142Y-106671758D01*
X64580075Y-106703000D01*
X64419925Y-106703000D01*
X64262858Y-106671758D01*
X64114899Y-106610471D01*
X63981745Y-106521501D01*
X63868499Y-106408255D01*
X63779529Y-106275101D01*
X63718242Y-106127142D01*
X63687000Y-105970075D01*
X63687000Y-105809925D01*
X63718242Y-105652858D01*
X63779529Y-105504899D01*
X63868499Y-105371745D01*
X63981745Y-105258499D01*
X64114899Y-105169529D01*
X64262858Y-105108242D01*
X64419925Y-105077000D01*
X64580075Y-105077000D01*
X64737142Y-105108242D01*
G37*
G36*
X118652228Y-103197703D02*
G01*
X118807100Y-103261853D01*
X118946481Y-103354985D01*
X119065015Y-103473519D01*
X119158147Y-103612900D01*
X119222297Y-103767772D01*
X119255000Y-103932184D01*
X119255000Y-104099816D01*
X119222297Y-104264228D01*
X119158147Y-104419100D01*
X119065015Y-104558481D01*
X118946481Y-104677015D01*
X118807100Y-104770147D01*
X118652228Y-104834297D01*
X118487816Y-104867000D01*
X118320184Y-104867000D01*
X118155772Y-104834297D01*
X118000900Y-104770147D01*
X117861519Y-104677015D01*
X117742985Y-104558481D01*
X117649853Y-104419100D01*
X117585703Y-104264228D01*
X117553000Y-104099816D01*
X117553000Y-103932184D01*
X117585703Y-103767772D01*
X117649853Y-103612900D01*
X117742985Y-103473519D01*
X117861519Y-103354985D01*
X118000900Y-103261853D01*
X118155772Y-103197703D01*
X118320184Y-103165000D01*
X118487816Y-103165000D01*
X118652228Y-103197703D01*
G37*
G36*
X72932228Y-103197703D02*
G01*
X73087100Y-103261853D01*
X73226481Y-103354985D01*
X73345015Y-103473519D01*
X73438147Y-103612900D01*
X73502297Y-103767772D01*
X73535000Y-103932184D01*
X73535000Y-104099816D01*
X73502297Y-104264228D01*
X73438147Y-104419100D01*
X73345015Y-104558481D01*
X73226481Y-104677015D01*
X73087100Y-104770147D01*
X72932228Y-104834297D01*
X72767816Y-104867000D01*
X72600184Y-104867000D01*
X72435772Y-104834297D01*
X72280900Y-104770147D01*
X72141519Y-104677015D01*
X72022985Y-104558481D01*
X71929853Y-104419100D01*
X71865703Y-104264228D01*
X71833000Y-104099816D01*
X71833000Y-103932184D01*
X71865703Y-103767772D01*
X71929853Y-103612900D01*
X72022985Y-103473519D01*
X72141519Y-103354985D01*
X72280900Y-103261853D01*
X72435772Y-103197703D01*
X72600184Y-103165000D01*
X72767816Y-103165000D01*
X72932228Y-103197703D01*
G37*
G36*
X70392228Y-103197703D02*
G01*
X70547100Y-103261853D01*
X70686481Y-103354985D01*
X70805015Y-103473519D01*
X70898147Y-103612900D01*
X70962297Y-103767772D01*
X70995000Y-103932184D01*
X70995000Y-104099816D01*
X70962297Y-104264228D01*
X70898147Y-104419100D01*
X70805015Y-104558481D01*
X70686481Y-104677015D01*
X70547100Y-104770147D01*
X70392228Y-104834297D01*
X70227816Y-104867000D01*
X70060184Y-104867000D01*
X69895772Y-104834297D01*
X69740900Y-104770147D01*
X69601519Y-104677015D01*
X69482985Y-104558481D01*
X69389853Y-104419100D01*
X69325703Y-104264228D01*
X69293000Y-104099816D01*
X69293000Y-103932184D01*
X69325703Y-103767772D01*
X69389853Y-103612900D01*
X69482985Y-103473519D01*
X69601519Y-103354985D01*
X69740900Y-103261853D01*
X69895772Y-103197703D01*
X70060184Y-103165000D01*
X70227816Y-103165000D01*
X70392228Y-103197703D01*
G37*
G36*
X116112228Y-103197703D02*
G01*
X116267100Y-103261853D01*
X116406481Y-103354985D01*
X116525015Y-103473519D01*
X116618147Y-103612900D01*
X116682297Y-103767772D01*
X116715000Y-103932184D01*
X116715000Y-104099816D01*
X116682297Y-104264228D01*
X116618147Y-104419100D01*
X116525015Y-104558481D01*
X116406481Y-104677015D01*
X116267100Y-104770147D01*
X116112228Y-104834297D01*
X115947816Y-104867000D01*
X115780184Y-104867000D01*
X115615772Y-104834297D01*
X115460900Y-104770147D01*
X115321519Y-104677015D01*
X115202985Y-104558481D01*
X115109853Y-104419100D01*
X115045703Y-104264228D01*
X115013000Y-104099816D01*
X115013000Y-103932184D01*
X115045703Y-103767772D01*
X115109853Y-103612900D01*
X115202985Y-103473519D01*
X115321519Y-103354985D01*
X115460900Y-103261853D01*
X115615772Y-103197703D01*
X115780184Y-103165000D01*
X115947816Y-103165000D01*
X116112228Y-103197703D01*
G37*
G36*
X54088512Y-102468927D02*
G01*
X54237812Y-102498624D01*
X54401784Y-102566544D01*
X54549354Y-102665147D01*
X54674853Y-102790646D01*
X54773456Y-102938216D01*
X54841376Y-103102188D01*
X54876000Y-103276259D01*
X54876000Y-103453741D01*
X54841376Y-103627812D01*
X54773456Y-103791784D01*
X54674853Y-103939354D01*
X54549354Y-104064853D01*
X54401784Y-104163456D01*
X54237812Y-104231376D01*
X54088512Y-104261073D01*
X54063742Y-104266000D01*
X53886258Y-104266000D01*
X53861488Y-104261073D01*
X53712188Y-104231376D01*
X53548216Y-104163456D01*
X53400646Y-104064853D01*
X53275147Y-103939354D01*
X53176544Y-103791784D01*
X53108624Y-103627812D01*
X53074000Y-103453741D01*
X53074000Y-103276259D01*
X53108624Y-103102188D01*
X53176544Y-102938216D01*
X53275147Y-102790646D01*
X53400646Y-102665147D01*
X53548216Y-102566544D01*
X53712188Y-102498624D01*
X53861488Y-102468927D01*
X53886258Y-102464000D01*
X54063742Y-102464000D01*
X54088512Y-102468927D01*
G37*
G36*
X56628512Y-102468927D02*
G01*
X56777812Y-102498624D01*
X56941784Y-102566544D01*
X57089354Y-102665147D01*
X57214853Y-102790646D01*
X57313456Y-102938216D01*
X57381376Y-103102188D01*
X57416000Y-103276259D01*
X57416000Y-103453741D01*
X57381376Y-103627812D01*
X57313456Y-103791784D01*
X57214853Y-103939354D01*
X57089354Y-104064853D01*
X56941784Y-104163456D01*
X56777812Y-104231376D01*
X56628512Y-104261073D01*
X56603742Y-104266000D01*
X56426258Y-104266000D01*
X56401488Y-104261073D01*
X56252188Y-104231376D01*
X56088216Y-104163456D01*
X55940646Y-104064853D01*
X55815147Y-103939354D01*
X55716544Y-103791784D01*
X55648624Y-103627812D01*
X55614000Y-103453741D01*
X55614000Y-103276259D01*
X55648624Y-103102188D01*
X55716544Y-102938216D01*
X55815147Y-102790646D01*
X55940646Y-102665147D01*
X56088216Y-102566544D01*
X56252188Y-102498624D01*
X56401488Y-102468927D01*
X56426258Y-102464000D01*
X56603742Y-102464000D01*
X56628512Y-102468927D01*
G37*
G36*
X59168512Y-102468927D02*
G01*
X59317812Y-102498624D01*
X59481784Y-102566544D01*
X59629354Y-102665147D01*
X59754853Y-102790646D01*
X59853456Y-102938216D01*
X59921376Y-103102188D01*
X59956000Y-103276259D01*
X59956000Y-103453741D01*
X59921376Y-103627812D01*
X59853456Y-103791784D01*
X59754853Y-103939354D01*
X59629354Y-104064853D01*
X59481784Y-104163456D01*
X59317812Y-104231376D01*
X59168512Y-104261073D01*
X59143742Y-104266000D01*
X58966258Y-104266000D01*
X58941488Y-104261073D01*
X58792188Y-104231376D01*
X58628216Y-104163456D01*
X58480646Y-104064853D01*
X58355147Y-103939354D01*
X58256544Y-103791784D01*
X58188624Y-103627812D01*
X58154000Y-103453741D01*
X58154000Y-103276259D01*
X58188624Y-103102188D01*
X58256544Y-102938216D01*
X58355147Y-102790646D01*
X58480646Y-102665147D01*
X58628216Y-102566544D01*
X58792188Y-102498624D01*
X58941488Y-102468927D01*
X58966258Y-102464000D01*
X59143742Y-102464000D01*
X59168512Y-102468927D01*
G37*
G36*
X64737142Y-102568242D02*
G01*
X64885101Y-102629529D01*
X65018255Y-102718499D01*
X65131501Y-102831745D01*
X65220471Y-102964899D01*
X65281758Y-103112858D01*
X65313000Y-103269925D01*
X65313000Y-103430075D01*
X65281758Y-103587142D01*
X65220471Y-103735101D01*
X65131501Y-103868255D01*
X65018255Y-103981501D01*
X64885101Y-104070471D01*
X64737142Y-104131758D01*
X64580075Y-104163000D01*
X64419925Y-104163000D01*
X64262858Y-104131758D01*
X64114899Y-104070471D01*
X63981745Y-103981501D01*
X63868499Y-103868255D01*
X63779529Y-103735101D01*
X63718242Y-103587142D01*
X63687000Y-103430075D01*
X63687000Y-103269925D01*
X63718242Y-103112858D01*
X63779529Y-102964899D01*
X63868499Y-102831745D01*
X63981745Y-102718499D01*
X64114899Y-102629529D01*
X64262858Y-102568242D01*
X64419925Y-102537000D01*
X64580075Y-102537000D01*
X64737142Y-102568242D01*
G37*
G36*
X72932228Y-100657703D02*
G01*
X73087100Y-100721853D01*
X73226481Y-100814985D01*
X73345015Y-100933519D01*
X73438147Y-101072900D01*
X73502297Y-101227772D01*
X73535000Y-101392184D01*
X73535000Y-101559816D01*
X73502297Y-101724228D01*
X73438147Y-101879100D01*
X73345015Y-102018481D01*
X73226481Y-102137015D01*
X73087100Y-102230147D01*
X72932228Y-102294297D01*
X72767816Y-102327000D01*
X72600184Y-102327000D01*
X72435772Y-102294297D01*
X72280900Y-102230147D01*
X72141519Y-102137015D01*
X72022985Y-102018481D01*
X71929853Y-101879100D01*
X71865703Y-101724228D01*
X71833000Y-101559816D01*
X71833000Y-101392184D01*
X71865703Y-101227772D01*
X71929853Y-101072900D01*
X72022985Y-100933519D01*
X72141519Y-100814985D01*
X72280900Y-100721853D01*
X72435772Y-100657703D01*
X72600184Y-100625000D01*
X72767816Y-100625000D01*
X72932228Y-100657703D01*
G37*
G36*
X70392228Y-100657703D02*
G01*
X70547100Y-100721853D01*
X70686481Y-100814985D01*
X70805015Y-100933519D01*
X70898147Y-101072900D01*
X70962297Y-101227772D01*
X70995000Y-101392184D01*
X70995000Y-101559816D01*
X70962297Y-101724228D01*
X70898147Y-101879100D01*
X70805015Y-102018481D01*
X70686481Y-102137015D01*
X70547100Y-102230147D01*
X70392228Y-102294297D01*
X70227816Y-102327000D01*
X70060184Y-102327000D01*
X69895772Y-102294297D01*
X69740900Y-102230147D01*
X69601519Y-102137015D01*
X69482985Y-102018481D01*
X69389853Y-101879100D01*
X69325703Y-101724228D01*
X69293000Y-101559816D01*
X69293000Y-101392184D01*
X69325703Y-101227772D01*
X69389853Y-101072900D01*
X69482985Y-100933519D01*
X69601519Y-100814985D01*
X69740900Y-100721853D01*
X69895772Y-100657703D01*
X70060184Y-100625000D01*
X70227816Y-100625000D01*
X70392228Y-100657703D01*
G37*
G36*
X54088512Y-99928927D02*
G01*
X54237812Y-99958624D01*
X54401784Y-100026544D01*
X54549354Y-100125147D01*
X54674853Y-100250646D01*
X54773456Y-100398216D01*
X54841376Y-100562188D01*
X54876000Y-100736259D01*
X54876000Y-100913741D01*
X54841376Y-101087812D01*
X54773456Y-101251784D01*
X54674853Y-101399354D01*
X54549354Y-101524853D01*
X54401784Y-101623456D01*
X54237812Y-101691376D01*
X54088512Y-101721073D01*
X54063742Y-101726000D01*
X53886258Y-101726000D01*
X53861488Y-101721073D01*
X53712188Y-101691376D01*
X53548216Y-101623456D01*
X53400646Y-101524853D01*
X53275147Y-101399354D01*
X53176544Y-101251784D01*
X53108624Y-101087812D01*
X53074000Y-100913741D01*
X53074000Y-100736259D01*
X53108624Y-100562188D01*
X53176544Y-100398216D01*
X53275147Y-100250646D01*
X53400646Y-100125147D01*
X53548216Y-100026544D01*
X53712188Y-99958624D01*
X53861488Y-99928927D01*
X53886258Y-99924000D01*
X54063742Y-99924000D01*
X54088512Y-99928927D01*
G37*
G36*
X56628512Y-99928927D02*
G01*
X56777812Y-99958624D01*
X56941784Y-100026544D01*
X57089354Y-100125147D01*
X57214853Y-100250646D01*
X57313456Y-100398216D01*
X57381376Y-100562188D01*
X57416000Y-100736259D01*
X57416000Y-100913741D01*
X57381376Y-101087812D01*
X57313456Y-101251784D01*
X57214853Y-101399354D01*
X57089354Y-101524853D01*
X56941784Y-101623456D01*
X56777812Y-101691376D01*
X56628512Y-101721073D01*
X56603742Y-101726000D01*
X56426258Y-101726000D01*
X56401488Y-101721073D01*
X56252188Y-101691376D01*
X56088216Y-101623456D01*
X55940646Y-101524853D01*
X55815147Y-101399354D01*
X55716544Y-101251784D01*
X55648624Y-101087812D01*
X55614000Y-100913741D01*
X55614000Y-100736259D01*
X55648624Y-100562188D01*
X55716544Y-100398216D01*
X55815147Y-100250646D01*
X55940646Y-100125147D01*
X56088216Y-100026544D01*
X56252188Y-99958624D01*
X56401488Y-99928927D01*
X56426258Y-99924000D01*
X56603742Y-99924000D01*
X56628512Y-99928927D01*
G37*
G36*
X59956000Y-101726000D02*
G01*
X58154000Y-101726000D01*
X58154000Y-99924000D01*
X59956000Y-99924000D01*
X59956000Y-101726000D01*
G37*
G36*
X64737142Y-100028242D02*
G01*
X64885101Y-100089529D01*
X65018255Y-100178499D01*
X65131501Y-100291745D01*
X65220471Y-100424899D01*
X65281758Y-100572858D01*
X65313000Y-100729925D01*
X65313000Y-100890075D01*
X65281758Y-101047142D01*
X65220471Y-101195101D01*
X65131501Y-101328255D01*
X65018255Y-101441501D01*
X64885101Y-101530471D01*
X64737142Y-101591758D01*
X64580075Y-101623000D01*
X64419925Y-101623000D01*
X64262858Y-101591758D01*
X64114899Y-101530471D01*
X63981745Y-101441501D01*
X63868499Y-101328255D01*
X63779529Y-101195101D01*
X63718242Y-101047142D01*
X63687000Y-100890075D01*
X63687000Y-100729925D01*
X63718242Y-100572858D01*
X63779529Y-100424899D01*
X63868499Y-100291745D01*
X63981745Y-100178499D01*
X64114899Y-100089529D01*
X64262858Y-100028242D01*
X64419925Y-99997000D01*
X64580075Y-99997000D01*
X64737142Y-100028242D01*
G37*
G36*
X118652228Y-98117703D02*
G01*
X118807100Y-98181853D01*
X118946481Y-98274985D01*
X119065015Y-98393519D01*
X119158147Y-98532900D01*
X119222297Y-98687772D01*
X119255000Y-98852184D01*
X119255000Y-99019816D01*
X119222297Y-99184228D01*
X119158147Y-99339100D01*
X119065015Y-99478481D01*
X118946481Y-99597015D01*
X118807100Y-99690147D01*
X118652228Y-99754297D01*
X118487816Y-99787000D01*
X118320184Y-99787000D01*
X118155772Y-99754297D01*
X118000900Y-99690147D01*
X117861519Y-99597015D01*
X117742985Y-99478481D01*
X117649853Y-99339100D01*
X117585703Y-99184228D01*
X117553000Y-99019816D01*
X117553000Y-98852184D01*
X117585703Y-98687772D01*
X117649853Y-98532900D01*
X117742985Y-98393519D01*
X117861519Y-98274985D01*
X118000900Y-98181853D01*
X118155772Y-98117703D01*
X118320184Y-98085000D01*
X118487816Y-98085000D01*
X118652228Y-98117703D01*
G37*
G36*
X116112228Y-98117703D02*
G01*
X116267100Y-98181853D01*
X116406481Y-98274985D01*
X116525015Y-98393519D01*
X116618147Y-98532900D01*
X116682297Y-98687772D01*
X116715000Y-98852184D01*
X116715000Y-99019816D01*
X116682297Y-99184228D01*
X116618147Y-99339100D01*
X116525015Y-99478481D01*
X116406481Y-99597015D01*
X116267100Y-99690147D01*
X116112228Y-99754297D01*
X115947816Y-99787000D01*
X115780184Y-99787000D01*
X115615772Y-99754297D01*
X115460900Y-99690147D01*
X115321519Y-99597015D01*
X115202985Y-99478481D01*
X115109853Y-99339100D01*
X115045703Y-99184228D01*
X115013000Y-99019816D01*
X115013000Y-98852184D01*
X115045703Y-98687772D01*
X115109853Y-98532900D01*
X115202985Y-98393519D01*
X115321519Y-98274985D01*
X115460900Y-98181853D01*
X115615772Y-98117703D01*
X115780184Y-98085000D01*
X115947816Y-98085000D01*
X116112228Y-98117703D01*
G37*
G36*
X72932228Y-98117703D02*
G01*
X73087100Y-98181853D01*
X73226481Y-98274985D01*
X73345015Y-98393519D01*
X73438147Y-98532900D01*
X73502297Y-98687772D01*
X73535000Y-98852184D01*
X73535000Y-99019816D01*
X73502297Y-99184228D01*
X73438147Y-99339100D01*
X73345015Y-99478481D01*
X73226481Y-99597015D01*
X73087100Y-99690147D01*
X72932228Y-99754297D01*
X72767816Y-99787000D01*
X72600184Y-99787000D01*
X72435772Y-99754297D01*
X72280900Y-99690147D01*
X72141519Y-99597015D01*
X72022985Y-99478481D01*
X71929853Y-99339100D01*
X71865703Y-99184228D01*
X71833000Y-99019816D01*
X71833000Y-98852184D01*
X71865703Y-98687772D01*
X71929853Y-98532900D01*
X72022985Y-98393519D01*
X72141519Y-98274985D01*
X72280900Y-98181853D01*
X72435772Y-98117703D01*
X72600184Y-98085000D01*
X72767816Y-98085000D01*
X72932228Y-98117703D01*
G37*
G36*
X70392228Y-98117703D02*
G01*
X70547100Y-98181853D01*
X70686481Y-98274985D01*
X70805015Y-98393519D01*
X70898147Y-98532900D01*
X70962297Y-98687772D01*
X70995000Y-98852184D01*
X70995000Y-99019816D01*
X70962297Y-99184228D01*
X70898147Y-99339100D01*
X70805015Y-99478481D01*
X70686481Y-99597015D01*
X70547100Y-99690147D01*
X70392228Y-99754297D01*
X70227816Y-99787000D01*
X70060184Y-99787000D01*
X69895772Y-99754297D01*
X69740900Y-99690147D01*
X69601519Y-99597015D01*
X69482985Y-99478481D01*
X69389853Y-99339100D01*
X69325703Y-99184228D01*
X69293000Y-99019816D01*
X69293000Y-98852184D01*
X69325703Y-98687772D01*
X69389853Y-98532900D01*
X69482985Y-98393519D01*
X69601519Y-98274985D01*
X69740900Y-98181853D01*
X69895772Y-98117703D01*
X70060184Y-98085000D01*
X70227816Y-98085000D01*
X70392228Y-98117703D01*
G37*
G36*
X64737142Y-97488242D02*
G01*
X64885101Y-97549529D01*
X65018255Y-97638499D01*
X65131501Y-97751745D01*
X65220471Y-97884899D01*
X65281758Y-98032858D01*
X65313000Y-98189925D01*
X65313000Y-98350075D01*
X65281758Y-98507142D01*
X65220471Y-98655101D01*
X65131501Y-98788255D01*
X65018255Y-98901501D01*
X64885101Y-98990471D01*
X64737142Y-99051758D01*
X64580075Y-99083000D01*
X64419925Y-99083000D01*
X64262858Y-99051758D01*
X64114899Y-98990471D01*
X63981745Y-98901501D01*
X63868499Y-98788255D01*
X63779529Y-98655101D01*
X63718242Y-98507142D01*
X63687000Y-98350075D01*
X63687000Y-98189925D01*
X63718242Y-98032858D01*
X63779529Y-97884899D01*
X63868499Y-97751745D01*
X63981745Y-97638499D01*
X64114899Y-97549529D01*
X64262858Y-97488242D01*
X64419925Y-97457000D01*
X64580075Y-97457000D01*
X64737142Y-97488242D01*
G37*
G36*
X54876000Y-97916000D02*
G01*
X53074000Y-97916000D01*
X53074000Y-96114000D01*
X54876000Y-96114000D01*
X54876000Y-97916000D01*
G37*
G36*
X56628512Y-96118927D02*
G01*
X56777812Y-96148624D01*
X56941784Y-96216544D01*
X57089354Y-96315147D01*
X57214853Y-96440646D01*
X57313456Y-96588216D01*
X57381376Y-96752188D01*
X57416000Y-96926259D01*
X57416000Y-97103741D01*
X57381376Y-97277812D01*
X57313456Y-97441784D01*
X57214853Y-97589354D01*
X57089354Y-97714853D01*
X56941784Y-97813456D01*
X56777812Y-97881376D01*
X56628512Y-97911073D01*
X56603742Y-97916000D01*
X56426258Y-97916000D01*
X56401488Y-97911073D01*
X56252188Y-97881376D01*
X56088216Y-97813456D01*
X55940646Y-97714853D01*
X55815147Y-97589354D01*
X55716544Y-97441784D01*
X55648624Y-97277812D01*
X55614000Y-97103741D01*
X55614000Y-96926259D01*
X55648624Y-96752188D01*
X55716544Y-96588216D01*
X55815147Y-96440646D01*
X55940646Y-96315147D01*
X56088216Y-96216544D01*
X56252188Y-96148624D01*
X56401488Y-96118927D01*
X56426258Y-96114000D01*
X56603742Y-96114000D01*
X56628512Y-96118927D01*
G37*
G36*
X59168512Y-96118927D02*
G01*
X59317812Y-96148624D01*
X59481784Y-96216544D01*
X59629354Y-96315147D01*
X59754853Y-96440646D01*
X59853456Y-96588216D01*
X59921376Y-96752188D01*
X59956000Y-96926259D01*
X59956000Y-97103741D01*
X59921376Y-97277812D01*
X59853456Y-97441784D01*
X59754853Y-97589354D01*
X59629354Y-97714853D01*
X59481784Y-97813456D01*
X59317812Y-97881376D01*
X59168512Y-97911073D01*
X59143742Y-97916000D01*
X58966258Y-97916000D01*
X58941488Y-97911073D01*
X58792188Y-97881376D01*
X58628216Y-97813456D01*
X58480646Y-97714853D01*
X58355147Y-97589354D01*
X58256544Y-97441784D01*
X58188624Y-97277812D01*
X58154000Y-97103741D01*
X58154000Y-96926259D01*
X58188624Y-96752188D01*
X58256544Y-96588216D01*
X58355147Y-96440646D01*
X58480646Y-96315147D01*
X58628216Y-96216544D01*
X58792188Y-96148624D01*
X58941488Y-96118927D01*
X58966258Y-96114000D01*
X59143742Y-96114000D01*
X59168512Y-96118927D01*
G37*
G36*
X116112228Y-95577703D02*
G01*
X116267100Y-95641853D01*
X116406481Y-95734985D01*
X116525015Y-95853519D01*
X116618147Y-95992900D01*
X116682297Y-96147772D01*
X116715000Y-96312184D01*
X116715000Y-96479816D01*
X116682297Y-96644228D01*
X116618147Y-96799100D01*
X116525015Y-96938481D01*
X116406481Y-97057015D01*
X116267100Y-97150147D01*
X116112228Y-97214297D01*
X115947816Y-97247000D01*
X115780184Y-97247000D01*
X115615772Y-97214297D01*
X115460900Y-97150147D01*
X115321519Y-97057015D01*
X115202985Y-96938481D01*
X115109853Y-96799100D01*
X115045703Y-96644228D01*
X115013000Y-96479816D01*
X115013000Y-96312184D01*
X115045703Y-96147772D01*
X115109853Y-95992900D01*
X115202985Y-95853519D01*
X115321519Y-95734985D01*
X115460900Y-95641853D01*
X115615772Y-95577703D01*
X115780184Y-95545000D01*
X115947816Y-95545000D01*
X116112228Y-95577703D01*
G37*
G36*
X118652228Y-95577703D02*
G01*
X118807100Y-95641853D01*
X118946481Y-95734985D01*
X119065015Y-95853519D01*
X119158147Y-95992900D01*
X119222297Y-96147772D01*
X119255000Y-96312184D01*
X119255000Y-96479816D01*
X119222297Y-96644228D01*
X119158147Y-96799100D01*
X119065015Y-96938481D01*
X118946481Y-97057015D01*
X118807100Y-97150147D01*
X118652228Y-97214297D01*
X118487816Y-97247000D01*
X118320184Y-97247000D01*
X118155772Y-97214297D01*
X118000900Y-97150147D01*
X117861519Y-97057015D01*
X117742985Y-96938481D01*
X117649853Y-96799100D01*
X117585703Y-96644228D01*
X117553000Y-96479816D01*
X117553000Y-96312184D01*
X117585703Y-96147772D01*
X117649853Y-95992900D01*
X117742985Y-95853519D01*
X117861519Y-95734985D01*
X118000900Y-95641853D01*
X118155772Y-95577703D01*
X118320184Y-95545000D01*
X118487816Y-95545000D01*
X118652228Y-95577703D01*
G37*
G36*
X64737142Y-94948242D02*
G01*
X64885101Y-95009529D01*
X65018255Y-95098499D01*
X65131501Y-95211745D01*
X65220471Y-95344899D01*
X65281758Y-95492858D01*
X65313000Y-95649925D01*
X65313000Y-95810075D01*
X65281758Y-95967142D01*
X65220471Y-96115101D01*
X65131501Y-96248255D01*
X65018255Y-96361501D01*
X64885101Y-96450471D01*
X64737142Y-96511758D01*
X64580075Y-96543000D01*
X64419925Y-96543000D01*
X64262858Y-96511758D01*
X64114899Y-96450471D01*
X63981745Y-96361501D01*
X63868499Y-96248255D01*
X63779529Y-96115101D01*
X63718242Y-95967142D01*
X63687000Y-95810075D01*
X63687000Y-95649925D01*
X63718242Y-95492858D01*
X63779529Y-95344899D01*
X63868499Y-95211745D01*
X63981745Y-95098499D01*
X64114899Y-95009529D01*
X64262858Y-94948242D01*
X64419925Y-94917000D01*
X64580075Y-94917000D01*
X64737142Y-94948242D01*
G37*
G36*
X70392228Y-94053703D02*
G01*
X70547100Y-94117853D01*
X70686481Y-94210985D01*
X70805015Y-94329519D01*
X70898147Y-94468900D01*
X70962297Y-94623772D01*
X70995000Y-94788184D01*
X70995000Y-94955816D01*
X70962297Y-95120228D01*
X70898147Y-95275100D01*
X70805015Y-95414481D01*
X70686481Y-95533015D01*
X70547100Y-95626147D01*
X70392228Y-95690297D01*
X70227816Y-95723000D01*
X70060184Y-95723000D01*
X69895772Y-95690297D01*
X69740900Y-95626147D01*
X69601519Y-95533015D01*
X69482985Y-95414481D01*
X69389853Y-95275100D01*
X69325703Y-95120228D01*
X69293000Y-94955816D01*
X69293000Y-94788184D01*
X69325703Y-94623772D01*
X69389853Y-94468900D01*
X69482985Y-94329519D01*
X69601519Y-94210985D01*
X69740900Y-94117853D01*
X69895772Y-94053703D01*
X70060184Y-94021000D01*
X70227816Y-94021000D01*
X70392228Y-94053703D01*
G37*
G36*
X72932228Y-94053703D02*
G01*
X73087100Y-94117853D01*
X73226481Y-94210985D01*
X73345015Y-94329519D01*
X73438147Y-94468900D01*
X73502297Y-94623772D01*
X73535000Y-94788184D01*
X73535000Y-94955816D01*
X73502297Y-95120228D01*
X73438147Y-95275100D01*
X73345015Y-95414481D01*
X73226481Y-95533015D01*
X73087100Y-95626147D01*
X72932228Y-95690297D01*
X72767816Y-95723000D01*
X72600184Y-95723000D01*
X72435772Y-95690297D01*
X72280900Y-95626147D01*
X72141519Y-95533015D01*
X72022985Y-95414481D01*
X71929853Y-95275100D01*
X71865703Y-95120228D01*
X71833000Y-94955816D01*
X71833000Y-94788184D01*
X71865703Y-94623772D01*
X71929853Y-94468900D01*
X72022985Y-94329519D01*
X72141519Y-94210985D01*
X72280900Y-94117853D01*
X72435772Y-94053703D01*
X72600184Y-94021000D01*
X72767816Y-94021000D01*
X72932228Y-94053703D01*
G37*
G36*
X116112228Y-93037703D02*
G01*
X116267100Y-93101853D01*
X116406481Y-93194985D01*
X116525015Y-93313519D01*
X116618147Y-93452900D01*
X116682297Y-93607772D01*
X116715000Y-93772184D01*
X116715000Y-93939816D01*
X116682297Y-94104228D01*
X116618147Y-94259100D01*
X116525015Y-94398481D01*
X116406481Y-94517015D01*
X116267100Y-94610147D01*
X116112228Y-94674297D01*
X115947816Y-94707000D01*
X115780184Y-94707000D01*
X115615772Y-94674297D01*
X115460900Y-94610147D01*
X115321519Y-94517015D01*
X115202985Y-94398481D01*
X115109853Y-94259100D01*
X115045703Y-94104228D01*
X115013000Y-93939816D01*
X115013000Y-93772184D01*
X115045703Y-93607772D01*
X115109853Y-93452900D01*
X115202985Y-93313519D01*
X115321519Y-93194985D01*
X115460900Y-93101853D01*
X115615772Y-93037703D01*
X115780184Y-93005000D01*
X115947816Y-93005000D01*
X116112228Y-93037703D01*
G37*
G36*
X118652228Y-93037703D02*
G01*
X118807100Y-93101853D01*
X118946481Y-93194985D01*
X119065015Y-93313519D01*
X119158147Y-93452900D01*
X119222297Y-93607772D01*
X119255000Y-93772184D01*
X119255000Y-93939816D01*
X119222297Y-94104228D01*
X119158147Y-94259100D01*
X119065015Y-94398481D01*
X118946481Y-94517015D01*
X118807100Y-94610147D01*
X118652228Y-94674297D01*
X118487816Y-94707000D01*
X118320184Y-94707000D01*
X118155772Y-94674297D01*
X118000900Y-94610147D01*
X117861519Y-94517015D01*
X117742985Y-94398481D01*
X117649853Y-94259100D01*
X117585703Y-94104228D01*
X117553000Y-93939816D01*
X117553000Y-93772184D01*
X117585703Y-93607772D01*
X117649853Y-93452900D01*
X117742985Y-93313519D01*
X117861519Y-93194985D01*
X118000900Y-93101853D01*
X118155772Y-93037703D01*
X118320184Y-93005000D01*
X118487816Y-93005000D01*
X118652228Y-93037703D01*
G37*
G36*
X64737142Y-92408242D02*
G01*
X64885101Y-92469529D01*
X65018255Y-92558499D01*
X65131501Y-92671745D01*
X65220471Y-92804899D01*
X65281758Y-92952858D01*
X65313000Y-93109925D01*
X65313000Y-93270075D01*
X65281758Y-93427142D01*
X65220471Y-93575101D01*
X65131501Y-93708255D01*
X65018255Y-93821501D01*
X64885101Y-93910471D01*
X64737142Y-93971758D01*
X64580075Y-94003000D01*
X64419925Y-94003000D01*
X64262858Y-93971758D01*
X64114899Y-93910471D01*
X63981745Y-93821501D01*
X63868499Y-93708255D01*
X63779529Y-93575101D01*
X63718242Y-93427142D01*
X63687000Y-93270075D01*
X63687000Y-93109925D01*
X63718242Y-92952858D01*
X63779529Y-92804899D01*
X63868499Y-92671745D01*
X63981745Y-92558499D01*
X64114899Y-92469529D01*
X64262858Y-92408242D01*
X64419925Y-92377000D01*
X64580075Y-92377000D01*
X64737142Y-92408242D01*
G37*
G36*
X70392228Y-91517703D02*
G01*
X70547100Y-91581853D01*
X70686481Y-91674985D01*
X70805015Y-91793519D01*
X70898147Y-91932900D01*
X70962297Y-92087772D01*
X70995000Y-92252184D01*
X70995000Y-92419816D01*
X70962297Y-92584228D01*
X70898147Y-92739100D01*
X70805015Y-92878481D01*
X70686481Y-92997015D01*
X70547100Y-93090147D01*
X70392228Y-93154297D01*
X70227816Y-93187000D01*
X70060184Y-93187000D01*
X69895772Y-93154297D01*
X69740900Y-93090147D01*
X69601519Y-92997015D01*
X69482985Y-92878481D01*
X69389853Y-92739100D01*
X69325703Y-92584228D01*
X69293000Y-92419816D01*
X69293000Y-92252184D01*
X69325703Y-92087772D01*
X69389853Y-91932900D01*
X69482985Y-91793519D01*
X69601519Y-91674985D01*
X69740900Y-91581853D01*
X69895772Y-91517703D01*
X70060184Y-91485000D01*
X70227816Y-91485000D01*
X70392228Y-91517703D01*
G37*
G36*
X72932228Y-91513703D02*
G01*
X73087100Y-91577853D01*
X73226481Y-91670985D01*
X73345015Y-91789519D01*
X73438147Y-91928900D01*
X73502297Y-92083772D01*
X73535000Y-92248184D01*
X73535000Y-92415816D01*
X73502297Y-92580228D01*
X73438147Y-92735100D01*
X73345015Y-92874481D01*
X73226481Y-92993015D01*
X73087100Y-93086147D01*
X72932228Y-93150297D01*
X72767816Y-93183000D01*
X72600184Y-93183000D01*
X72435772Y-93150297D01*
X72280900Y-93086147D01*
X72141519Y-92993015D01*
X72022985Y-92874481D01*
X71929853Y-92735100D01*
X71865703Y-92580228D01*
X71833000Y-92415816D01*
X71833000Y-92248184D01*
X71865703Y-92083772D01*
X71929853Y-91928900D01*
X72022985Y-91789519D01*
X72141519Y-91670985D01*
X72280900Y-91577853D01*
X72435772Y-91513703D01*
X72600184Y-91481000D01*
X72767816Y-91481000D01*
X72932228Y-91513703D01*
G37*
G36*
X116112228Y-90497703D02*
G01*
X116267100Y-90561853D01*
X116406481Y-90654985D01*
X116525015Y-90773519D01*
X116618147Y-90912900D01*
X116682297Y-91067772D01*
X116715000Y-91232184D01*
X116715000Y-91399816D01*
X116682297Y-91564228D01*
X116618147Y-91719100D01*
X116525015Y-91858481D01*
X116406481Y-91977015D01*
X116267100Y-92070147D01*
X116112228Y-92134297D01*
X115947816Y-92167000D01*
X115780184Y-92167000D01*
X115615772Y-92134297D01*
X115460900Y-92070147D01*
X115321519Y-91977015D01*
X115202985Y-91858481D01*
X115109853Y-91719100D01*
X115045703Y-91564228D01*
X115013000Y-91399816D01*
X115013000Y-91232184D01*
X115045703Y-91067772D01*
X115109853Y-90912900D01*
X115202985Y-90773519D01*
X115321519Y-90654985D01*
X115460900Y-90561853D01*
X115615772Y-90497703D01*
X115780184Y-90465000D01*
X115947816Y-90465000D01*
X116112228Y-90497703D01*
G37*
G36*
X118652228Y-90497703D02*
G01*
X118807100Y-90561853D01*
X118946481Y-90654985D01*
X119065015Y-90773519D01*
X119158147Y-90912900D01*
X119222297Y-91067772D01*
X119255000Y-91232184D01*
X119255000Y-91399816D01*
X119222297Y-91564228D01*
X119158147Y-91719100D01*
X119065015Y-91858481D01*
X118946481Y-91977015D01*
X118807100Y-92070147D01*
X118652228Y-92134297D01*
X118487816Y-92167000D01*
X118320184Y-92167000D01*
X118155772Y-92134297D01*
X118000900Y-92070147D01*
X117861519Y-91977015D01*
X117742985Y-91858481D01*
X117649853Y-91719100D01*
X117585703Y-91564228D01*
X117553000Y-91399816D01*
X117553000Y-91232184D01*
X117585703Y-91067772D01*
X117649853Y-90912900D01*
X117742985Y-90773519D01*
X117861519Y-90654985D01*
X118000900Y-90561853D01*
X118155772Y-90497703D01*
X118320184Y-90465000D01*
X118487816Y-90465000D01*
X118652228Y-90497703D01*
G37*
G36*
X64737142Y-89868242D02*
G01*
X64885101Y-89929529D01*
X65018255Y-90018499D01*
X65131501Y-90131745D01*
X65220471Y-90264899D01*
X65281758Y-90412858D01*
X65313000Y-90569925D01*
X65313000Y-90730075D01*
X65281758Y-90887142D01*
X65220471Y-91035101D01*
X65131501Y-91168255D01*
X65018255Y-91281501D01*
X64885101Y-91370471D01*
X64737142Y-91431758D01*
X64580075Y-91463000D01*
X64419925Y-91463000D01*
X64262858Y-91431758D01*
X64114899Y-91370471D01*
X63981745Y-91281501D01*
X63868499Y-91168255D01*
X63779529Y-91035101D01*
X63718242Y-90887142D01*
X63687000Y-90730075D01*
X63687000Y-90569925D01*
X63718242Y-90412858D01*
X63779529Y-90264899D01*
X63868499Y-90131745D01*
X63981745Y-90018499D01*
X64114899Y-89929529D01*
X64262858Y-89868242D01*
X64419925Y-89837000D01*
X64580075Y-89837000D01*
X64737142Y-89868242D01*
G37*
G36*
X70392228Y-88977703D02*
G01*
X70547100Y-89041853D01*
X70686481Y-89134985D01*
X70805015Y-89253519D01*
X70898147Y-89392900D01*
X70962297Y-89547772D01*
X70995000Y-89712184D01*
X70995000Y-89879816D01*
X70962297Y-90044228D01*
X70898147Y-90199100D01*
X70805015Y-90338481D01*
X70686481Y-90457015D01*
X70547100Y-90550147D01*
X70392228Y-90614297D01*
X70227816Y-90647000D01*
X70060184Y-90647000D01*
X69895772Y-90614297D01*
X69740900Y-90550147D01*
X69601519Y-90457015D01*
X69482985Y-90338481D01*
X69389853Y-90199100D01*
X69325703Y-90044228D01*
X69293000Y-89879816D01*
X69293000Y-89712184D01*
X69325703Y-89547772D01*
X69389853Y-89392900D01*
X69482985Y-89253519D01*
X69601519Y-89134985D01*
X69740900Y-89041853D01*
X69895772Y-88977703D01*
X70060184Y-88945000D01*
X70227816Y-88945000D01*
X70392228Y-88977703D01*
G37*
G36*
X72932228Y-88973703D02*
G01*
X73087100Y-89037853D01*
X73226481Y-89130985D01*
X73345015Y-89249519D01*
X73438147Y-89388900D01*
X73502297Y-89543772D01*
X73535000Y-89708184D01*
X73535000Y-89875816D01*
X73502297Y-90040228D01*
X73438147Y-90195100D01*
X73345015Y-90334481D01*
X73226481Y-90453015D01*
X73087100Y-90546147D01*
X72932228Y-90610297D01*
X72767816Y-90643000D01*
X72600184Y-90643000D01*
X72435772Y-90610297D01*
X72280900Y-90546147D01*
X72141519Y-90453015D01*
X72022985Y-90334481D01*
X71929853Y-90195100D01*
X71865703Y-90040228D01*
X71833000Y-89875816D01*
X71833000Y-89708184D01*
X71865703Y-89543772D01*
X71929853Y-89388900D01*
X72022985Y-89249519D01*
X72141519Y-89130985D01*
X72280900Y-89037853D01*
X72435772Y-88973703D01*
X72600184Y-88941000D01*
X72767816Y-88941000D01*
X72932228Y-88973703D01*
G37*
G36*
X118652228Y-87957703D02*
G01*
X118807100Y-88021853D01*
X118946481Y-88114985D01*
X119065015Y-88233519D01*
X119158147Y-88372900D01*
X119222297Y-88527772D01*
X119255000Y-88692184D01*
X119255000Y-88859816D01*
X119222297Y-89024228D01*
X119158147Y-89179100D01*
X119065015Y-89318481D01*
X118946481Y-89437015D01*
X118807100Y-89530147D01*
X118652228Y-89594297D01*
X118487816Y-89627000D01*
X118320184Y-89627000D01*
X118155772Y-89594297D01*
X118000900Y-89530147D01*
X117861519Y-89437015D01*
X117742985Y-89318481D01*
X117649853Y-89179100D01*
X117585703Y-89024228D01*
X117553000Y-88859816D01*
X117553000Y-88692184D01*
X117585703Y-88527772D01*
X117649853Y-88372900D01*
X117742985Y-88233519D01*
X117861519Y-88114985D01*
X118000900Y-88021853D01*
X118155772Y-87957703D01*
X118320184Y-87925000D01*
X118487816Y-87925000D01*
X118652228Y-87957703D01*
G37*
G36*
X64737142Y-87328242D02*
G01*
X64885101Y-87389529D01*
X65018255Y-87478499D01*
X65131501Y-87591745D01*
X65220471Y-87724899D01*
X65281758Y-87872858D01*
X65313000Y-88029925D01*
X65313000Y-88190075D01*
X65281758Y-88347142D01*
X65220471Y-88495101D01*
X65131501Y-88628255D01*
X65018255Y-88741501D01*
X64885101Y-88830471D01*
X64737142Y-88891758D01*
X64580075Y-88923000D01*
X64419925Y-88923000D01*
X64262858Y-88891758D01*
X64114899Y-88830471D01*
X63981745Y-88741501D01*
X63868499Y-88628255D01*
X63779529Y-88495101D01*
X63718242Y-88347142D01*
X63687000Y-88190075D01*
X63687000Y-88029925D01*
X63718242Y-87872858D01*
X63779529Y-87724899D01*
X63868499Y-87591745D01*
X63981745Y-87478499D01*
X64114899Y-87389529D01*
X64262858Y-87328242D01*
X64419925Y-87297000D01*
X64580075Y-87297000D01*
X64737142Y-87328242D01*
G37*
G36*
X70392228Y-86437703D02*
G01*
X70547100Y-86501853D01*
X70686481Y-86594985D01*
X70805015Y-86713519D01*
X70898147Y-86852900D01*
X70962297Y-87007772D01*
X70995000Y-87172184D01*
X70995000Y-87339816D01*
X70962297Y-87504228D01*
X70898147Y-87659100D01*
X70805015Y-87798481D01*
X70686481Y-87917015D01*
X70547100Y-88010147D01*
X70392228Y-88074297D01*
X70227816Y-88107000D01*
X70060184Y-88107000D01*
X69895772Y-88074297D01*
X69740900Y-88010147D01*
X69601519Y-87917015D01*
X69482985Y-87798481D01*
X69389853Y-87659100D01*
X69325703Y-87504228D01*
X69293000Y-87339816D01*
X69293000Y-87172184D01*
X69325703Y-87007772D01*
X69389853Y-86852900D01*
X69482985Y-86713519D01*
X69601519Y-86594985D01*
X69740900Y-86501853D01*
X69895772Y-86437703D01*
X70060184Y-86405000D01*
X70227816Y-86405000D01*
X70392228Y-86437703D01*
G37*
G36*
X72932228Y-86433703D02*
G01*
X73087100Y-86497853D01*
X73226481Y-86590985D01*
X73345015Y-86709519D01*
X73438147Y-86848900D01*
X73502297Y-87003772D01*
X73535000Y-87168184D01*
X73535000Y-87335816D01*
X73502297Y-87500228D01*
X73438147Y-87655100D01*
X73345015Y-87794481D01*
X73226481Y-87913015D01*
X73087100Y-88006147D01*
X72932228Y-88070297D01*
X72767816Y-88103000D01*
X72600184Y-88103000D01*
X72435772Y-88070297D01*
X72280900Y-88006147D01*
X72141519Y-87913015D01*
X72022985Y-87794481D01*
X71929853Y-87655100D01*
X71865703Y-87500228D01*
X71833000Y-87335816D01*
X71833000Y-87168184D01*
X71865703Y-87003772D01*
X71929853Y-86848900D01*
X72022985Y-86709519D01*
X72141519Y-86590985D01*
X72280900Y-86497853D01*
X72435772Y-86433703D01*
X72600184Y-86401000D01*
X72767816Y-86401000D01*
X72932228Y-86433703D01*
G37*
G36*
X118652228Y-85417703D02*
G01*
X118807100Y-85481853D01*
X118946481Y-85574985D01*
X119065015Y-85693519D01*
X119158147Y-85832900D01*
X119222297Y-85987772D01*
X119255000Y-86152184D01*
X119255000Y-86319816D01*
X119222297Y-86484228D01*
X119158147Y-86639100D01*
X119065015Y-86778481D01*
X118946481Y-86897015D01*
X118807100Y-86990147D01*
X118652228Y-87054297D01*
X118487816Y-87087000D01*
X118320184Y-87087000D01*
X118155772Y-87054297D01*
X118000900Y-86990147D01*
X117861519Y-86897015D01*
X117742985Y-86778481D01*
X117649853Y-86639100D01*
X117585703Y-86484228D01*
X117553000Y-86319816D01*
X117553000Y-86152184D01*
X117585703Y-85987772D01*
X117649853Y-85832900D01*
X117742985Y-85693519D01*
X117861519Y-85574985D01*
X118000900Y-85481853D01*
X118155772Y-85417703D01*
X118320184Y-85385000D01*
X118487816Y-85385000D01*
X118652228Y-85417703D01*
G37*
G36*
X64737142Y-84788242D02*
G01*
X64885101Y-84849529D01*
X65018255Y-84938499D01*
X65131501Y-85051745D01*
X65220471Y-85184899D01*
X65281758Y-85332858D01*
X65313000Y-85489925D01*
X65313000Y-85650075D01*
X65281758Y-85807142D01*
X65220471Y-85955101D01*
X65131501Y-86088255D01*
X65018255Y-86201501D01*
X64885101Y-86290471D01*
X64737142Y-86351758D01*
X64580075Y-86383000D01*
X64419925Y-86383000D01*
X64262858Y-86351758D01*
X64114899Y-86290471D01*
X63981745Y-86201501D01*
X63868499Y-86088255D01*
X63779529Y-85955101D01*
X63718242Y-85807142D01*
X63687000Y-85650075D01*
X63687000Y-85489925D01*
X63718242Y-85332858D01*
X63779529Y-85184899D01*
X63868499Y-85051745D01*
X63981745Y-84938499D01*
X64114899Y-84849529D01*
X64262858Y-84788242D01*
X64419925Y-84757000D01*
X64580075Y-84757000D01*
X64737142Y-84788242D01*
G37*
G36*
X59153721Y-84050985D02*
G01*
X59317812Y-84083624D01*
X59481784Y-84151544D01*
X59629354Y-84250147D01*
X59754853Y-84375646D01*
X59853456Y-84523216D01*
X59921376Y-84687188D01*
X59951073Y-84836488D01*
X59956000Y-84861258D01*
X59956000Y-85038742D01*
X59951073Y-85063512D01*
X59921376Y-85212812D01*
X59853456Y-85376784D01*
X59754853Y-85524354D01*
X59629354Y-85649853D01*
X59481784Y-85748456D01*
X59317812Y-85816376D01*
X59168512Y-85846073D01*
X59143742Y-85851000D01*
X58966258Y-85851000D01*
X58941488Y-85846073D01*
X58792188Y-85816376D01*
X58628216Y-85748456D01*
X58480646Y-85649853D01*
X58355147Y-85524354D01*
X58256544Y-85376784D01*
X58188624Y-85212812D01*
X58158927Y-85063512D01*
X58154000Y-85038742D01*
X58154000Y-84861258D01*
X58158927Y-84836488D01*
X58188624Y-84687188D01*
X58256544Y-84523216D01*
X58355147Y-84375646D01*
X58480646Y-84250147D01*
X58628216Y-84151544D01*
X58792188Y-84083624D01*
X58956279Y-84050985D01*
X58966258Y-84049000D01*
X59143742Y-84049000D01*
X59153721Y-84050985D01*
G37*
G36*
X56613721Y-84050985D02*
G01*
X56777812Y-84083624D01*
X56941784Y-84151544D01*
X57089354Y-84250147D01*
X57214853Y-84375646D01*
X57313456Y-84523216D01*
X57381376Y-84687188D01*
X57411073Y-84836488D01*
X57416000Y-84861258D01*
X57416000Y-85038742D01*
X57411073Y-85063512D01*
X57381376Y-85212812D01*
X57313456Y-85376784D01*
X57214853Y-85524354D01*
X57089354Y-85649853D01*
X56941784Y-85748456D01*
X56777812Y-85816376D01*
X56628512Y-85846073D01*
X56603742Y-85851000D01*
X56426258Y-85851000D01*
X56401488Y-85846073D01*
X56252188Y-85816376D01*
X56088216Y-85748456D01*
X55940646Y-85649853D01*
X55815147Y-85524354D01*
X55716544Y-85376784D01*
X55648624Y-85212812D01*
X55618927Y-85063512D01*
X55614000Y-85038742D01*
X55614000Y-84861258D01*
X55618927Y-84836488D01*
X55648624Y-84687188D01*
X55716544Y-84523216D01*
X55815147Y-84375646D01*
X55940646Y-84250147D01*
X56088216Y-84151544D01*
X56252188Y-84083624D01*
X56416279Y-84050985D01*
X56426258Y-84049000D01*
X56603742Y-84049000D01*
X56613721Y-84050985D01*
G37*
G36*
X54876000Y-85851000D02*
G01*
X53074000Y-85851000D01*
X53074000Y-84049000D01*
X54876000Y-84049000D01*
X54876000Y-85851000D01*
G37*
G36*
X70392228Y-83897703D02*
G01*
X70547100Y-83961853D01*
X70686481Y-84054985D01*
X70805015Y-84173519D01*
X70898147Y-84312900D01*
X70962297Y-84467772D01*
X70995000Y-84632184D01*
X70995000Y-84799816D01*
X70962297Y-84964228D01*
X70898147Y-85119100D01*
X70805015Y-85258481D01*
X70686481Y-85377015D01*
X70547100Y-85470147D01*
X70392228Y-85534297D01*
X70227816Y-85567000D01*
X70060184Y-85567000D01*
X69895772Y-85534297D01*
X69740900Y-85470147D01*
X69601519Y-85377015D01*
X69482985Y-85258481D01*
X69389853Y-85119100D01*
X69325703Y-84964228D01*
X69293000Y-84799816D01*
X69293000Y-84632184D01*
X69325703Y-84467772D01*
X69389853Y-84312900D01*
X69482985Y-84173519D01*
X69601519Y-84054985D01*
X69740900Y-83961853D01*
X69895772Y-83897703D01*
X70060184Y-83865000D01*
X70227816Y-83865000D01*
X70392228Y-83897703D01*
G37*
G36*
X72932228Y-83893703D02*
G01*
X73087100Y-83957853D01*
X73226481Y-84050985D01*
X73345015Y-84169519D01*
X73438147Y-84308900D01*
X73502297Y-84463772D01*
X73535000Y-84628184D01*
X73535000Y-84795816D01*
X73502297Y-84960228D01*
X73438147Y-85115100D01*
X73345015Y-85254481D01*
X73226481Y-85373015D01*
X73087100Y-85466147D01*
X72932228Y-85530297D01*
X72767816Y-85563000D01*
X72600184Y-85563000D01*
X72435772Y-85530297D01*
X72280900Y-85466147D01*
X72141519Y-85373015D01*
X72022985Y-85254481D01*
X71929853Y-85115100D01*
X71865703Y-84960228D01*
X71833000Y-84795816D01*
X71833000Y-84628184D01*
X71865703Y-84463772D01*
X71929853Y-84308900D01*
X72022985Y-84169519D01*
X72141519Y-84050985D01*
X72280900Y-83957853D01*
X72435772Y-83893703D01*
X72600184Y-83861000D01*
X72767816Y-83861000D01*
X72932228Y-83893703D01*
G37*
G36*
X118652228Y-82877703D02*
G01*
X118807100Y-82941853D01*
X118946481Y-83034985D01*
X119065015Y-83153519D01*
X119158147Y-83292900D01*
X119222297Y-83447772D01*
X119255000Y-83612184D01*
X119255000Y-83779816D01*
X119222297Y-83944228D01*
X119158147Y-84099100D01*
X119065015Y-84238481D01*
X118946481Y-84357015D01*
X118807100Y-84450147D01*
X118652228Y-84514297D01*
X118487816Y-84547000D01*
X118320184Y-84547000D01*
X118155772Y-84514297D01*
X118000900Y-84450147D01*
X117861519Y-84357015D01*
X117742985Y-84238481D01*
X117649853Y-84099100D01*
X117585703Y-83944228D01*
X117553000Y-83779816D01*
X117553000Y-83612184D01*
X117585703Y-83447772D01*
X117649853Y-83292900D01*
X117742985Y-83153519D01*
X117861519Y-83034985D01*
X118000900Y-82941853D01*
X118155772Y-82877703D01*
X118320184Y-82845000D01*
X118487816Y-82845000D01*
X118652228Y-82877703D01*
G37*
G36*
X64737142Y-82248242D02*
G01*
X64885101Y-82309529D01*
X65018255Y-82398499D01*
X65131501Y-82511745D01*
X65220471Y-82644899D01*
X65281758Y-82792858D01*
X65313000Y-82949925D01*
X65313000Y-83110075D01*
X65281758Y-83267142D01*
X65220471Y-83415101D01*
X65131501Y-83548255D01*
X65018255Y-83661501D01*
X64885101Y-83750471D01*
X64737142Y-83811758D01*
X64580075Y-83843000D01*
X64419925Y-83843000D01*
X64262858Y-83811758D01*
X64114899Y-83750471D01*
X63981745Y-83661501D01*
X63868499Y-83548255D01*
X63779529Y-83415101D01*
X63718242Y-83267142D01*
X63687000Y-83110075D01*
X63687000Y-82949925D01*
X63718242Y-82792858D01*
X63779529Y-82644899D01*
X63868499Y-82511745D01*
X63981745Y-82398499D01*
X64114899Y-82309529D01*
X64262858Y-82248242D01*
X64419925Y-82217000D01*
X64580075Y-82217000D01*
X64737142Y-82248242D01*
G37*
G36*
X70392228Y-81357703D02*
G01*
X70547100Y-81421853D01*
X70686481Y-81514985D01*
X70805015Y-81633519D01*
X70898147Y-81772900D01*
X70962297Y-81927772D01*
X70995000Y-82092184D01*
X70995000Y-82259816D01*
X70962297Y-82424228D01*
X70898147Y-82579100D01*
X70805015Y-82718481D01*
X70686481Y-82837015D01*
X70547100Y-82930147D01*
X70392228Y-82994297D01*
X70227816Y-83027000D01*
X70060184Y-83027000D01*
X69895772Y-82994297D01*
X69740900Y-82930147D01*
X69601519Y-82837015D01*
X69482985Y-82718481D01*
X69389853Y-82579100D01*
X69325703Y-82424228D01*
X69293000Y-82259816D01*
X69293000Y-82092184D01*
X69325703Y-81927772D01*
X69389853Y-81772900D01*
X69482985Y-81633519D01*
X69601519Y-81514985D01*
X69740900Y-81421853D01*
X69895772Y-81357703D01*
X70060184Y-81325000D01*
X70227816Y-81325000D01*
X70392228Y-81357703D01*
G37*
G36*
X72932228Y-81353703D02*
G01*
X73087100Y-81417853D01*
X73226481Y-81510985D01*
X73345015Y-81629519D01*
X73438147Y-81768900D01*
X73502297Y-81923772D01*
X73535000Y-82088184D01*
X73535000Y-82255816D01*
X73502297Y-82420228D01*
X73438147Y-82575100D01*
X73345015Y-82714481D01*
X73226481Y-82833015D01*
X73087100Y-82926147D01*
X72932228Y-82990297D01*
X72767816Y-83023000D01*
X72600184Y-83023000D01*
X72435772Y-82990297D01*
X72280900Y-82926147D01*
X72141519Y-82833015D01*
X72022985Y-82714481D01*
X71929853Y-82575100D01*
X71865703Y-82420228D01*
X71833000Y-82255816D01*
X71833000Y-82088184D01*
X71865703Y-81923772D01*
X71929853Y-81768900D01*
X72022985Y-81629519D01*
X72141519Y-81510985D01*
X72280900Y-81417853D01*
X72435772Y-81353703D01*
X72600184Y-81321000D01*
X72767816Y-81321000D01*
X72932228Y-81353703D01*
G37*
G36*
X54088512Y-80243927D02*
G01*
X54237812Y-80273624D01*
X54401784Y-80341544D01*
X54549354Y-80440147D01*
X54674853Y-80565646D01*
X54773456Y-80713216D01*
X54841376Y-80877188D01*
X54876000Y-81051259D01*
X54876000Y-81228741D01*
X54841376Y-81402812D01*
X54773456Y-81566784D01*
X54674853Y-81714354D01*
X54549354Y-81839853D01*
X54401784Y-81938456D01*
X54237812Y-82006376D01*
X54088512Y-82036073D01*
X54063742Y-82041000D01*
X53886258Y-82041000D01*
X53861488Y-82036073D01*
X53712188Y-82006376D01*
X53548216Y-81938456D01*
X53400646Y-81839853D01*
X53275147Y-81714354D01*
X53176544Y-81566784D01*
X53108624Y-81402812D01*
X53074000Y-81228741D01*
X53074000Y-81051259D01*
X53108624Y-80877188D01*
X53176544Y-80713216D01*
X53275147Y-80565646D01*
X53400646Y-80440147D01*
X53548216Y-80341544D01*
X53712188Y-80273624D01*
X53861488Y-80243927D01*
X53886258Y-80239000D01*
X54063742Y-80239000D01*
X54088512Y-80243927D01*
G37*
G36*
X56628512Y-80243927D02*
G01*
X56777812Y-80273624D01*
X56941784Y-80341544D01*
X57089354Y-80440147D01*
X57214853Y-80565646D01*
X57313456Y-80713216D01*
X57381376Y-80877188D01*
X57416000Y-81051259D01*
X57416000Y-81228741D01*
X57381376Y-81402812D01*
X57313456Y-81566784D01*
X57214853Y-81714354D01*
X57089354Y-81839853D01*
X56941784Y-81938456D01*
X56777812Y-82006376D01*
X56628512Y-82036073D01*
X56603742Y-82041000D01*
X56426258Y-82041000D01*
X56401488Y-82036073D01*
X56252188Y-82006376D01*
X56088216Y-81938456D01*
X55940646Y-81839853D01*
X55815147Y-81714354D01*
X55716544Y-81566784D01*
X55648624Y-81402812D01*
X55614000Y-81228741D01*
X55614000Y-81051259D01*
X55648624Y-80877188D01*
X55716544Y-80713216D01*
X55815147Y-80565646D01*
X55940646Y-80440147D01*
X56088216Y-80341544D01*
X56252188Y-80273624D01*
X56401488Y-80243927D01*
X56426258Y-80239000D01*
X56603742Y-80239000D01*
X56628512Y-80243927D01*
G37*
G36*
X59956000Y-82041000D02*
G01*
X58154000Y-82041000D01*
X58154000Y-80239000D01*
X59956000Y-80239000D01*
X59956000Y-82041000D01*
G37*
G36*
X118652228Y-80337703D02*
G01*
X118807100Y-80401853D01*
X118946481Y-80494985D01*
X119065015Y-80613519D01*
X119158147Y-80752900D01*
X119222297Y-80907772D01*
X119255000Y-81072184D01*
X119255000Y-81239816D01*
X119222297Y-81404228D01*
X119158147Y-81559100D01*
X119065015Y-81698481D01*
X118946481Y-81817015D01*
X118807100Y-81910147D01*
X118652228Y-81974297D01*
X118487816Y-82007000D01*
X118320184Y-82007000D01*
X118155772Y-81974297D01*
X118000900Y-81910147D01*
X117861519Y-81817015D01*
X117742985Y-81698481D01*
X117649853Y-81559100D01*
X117585703Y-81404228D01*
X117553000Y-81239816D01*
X117553000Y-81072184D01*
X117585703Y-80907772D01*
X117649853Y-80752900D01*
X117742985Y-80613519D01*
X117861519Y-80494985D01*
X118000900Y-80401853D01*
X118155772Y-80337703D01*
X118320184Y-80305000D01*
X118487816Y-80305000D01*
X118652228Y-80337703D01*
G37*
G36*
X64737142Y-79708242D02*
G01*
X64885101Y-79769529D01*
X65018255Y-79858499D01*
X65131501Y-79971745D01*
X65220471Y-80104899D01*
X65281758Y-80252858D01*
X65313000Y-80409925D01*
X65313000Y-80570075D01*
X65281758Y-80727142D01*
X65220471Y-80875101D01*
X65131501Y-81008255D01*
X65018255Y-81121501D01*
X64885101Y-81210471D01*
X64737142Y-81271758D01*
X64580075Y-81303000D01*
X64419925Y-81303000D01*
X64262858Y-81271758D01*
X64114899Y-81210471D01*
X63981745Y-81121501D01*
X63868499Y-81008255D01*
X63779529Y-80875101D01*
X63718242Y-80727142D01*
X63687000Y-80570075D01*
X63687000Y-80409925D01*
X63718242Y-80252858D01*
X63779529Y-80104899D01*
X63868499Y-79971745D01*
X63981745Y-79858499D01*
X64114899Y-79769529D01*
X64262858Y-79708242D01*
X64419925Y-79677000D01*
X64580075Y-79677000D01*
X64737142Y-79708242D01*
G37*
G36*
X70392228Y-78817703D02*
G01*
X70547100Y-78881853D01*
X70686481Y-78974985D01*
X70805015Y-79093519D01*
X70898147Y-79232900D01*
X70962297Y-79387772D01*
X70995000Y-79552184D01*
X70995000Y-79719816D01*
X70962297Y-79884228D01*
X70898147Y-80039100D01*
X70805015Y-80178481D01*
X70686481Y-80297015D01*
X70547100Y-80390147D01*
X70392228Y-80454297D01*
X70227816Y-80487000D01*
X70060184Y-80487000D01*
X69895772Y-80454297D01*
X69740900Y-80390147D01*
X69601519Y-80297015D01*
X69482985Y-80178481D01*
X69389853Y-80039100D01*
X69325703Y-79884228D01*
X69293000Y-79719816D01*
X69293000Y-79552184D01*
X69325703Y-79387772D01*
X69389853Y-79232900D01*
X69482985Y-79093519D01*
X69601519Y-78974985D01*
X69740900Y-78881853D01*
X69895772Y-78817703D01*
X70060184Y-78785000D01*
X70227816Y-78785000D01*
X70392228Y-78817703D01*
G37*
G36*
X72932228Y-78813703D02*
G01*
X73087100Y-78877853D01*
X73226481Y-78970985D01*
X73345015Y-79089519D01*
X73438147Y-79228900D01*
X73502297Y-79383772D01*
X73535000Y-79548184D01*
X73535000Y-79715816D01*
X73502297Y-79880228D01*
X73438147Y-80035100D01*
X73345015Y-80174481D01*
X73226481Y-80293015D01*
X73087100Y-80386147D01*
X72932228Y-80450297D01*
X72767816Y-80483000D01*
X72600184Y-80483000D01*
X72435772Y-80450297D01*
X72280900Y-80386147D01*
X72141519Y-80293015D01*
X72022985Y-80174481D01*
X71929853Y-80035100D01*
X71865703Y-79880228D01*
X71833000Y-79715816D01*
X71833000Y-79548184D01*
X71865703Y-79383772D01*
X71929853Y-79228900D01*
X72022985Y-79089519D01*
X72141519Y-78970985D01*
X72280900Y-78877853D01*
X72435772Y-78813703D01*
X72600184Y-78781000D01*
X72767816Y-78781000D01*
X72932228Y-78813703D01*
G37*
G36*
X64737142Y-77168242D02*
G01*
X64885101Y-77229529D01*
X65018255Y-77318499D01*
X65131501Y-77431745D01*
X65220471Y-77564899D01*
X65281758Y-77712858D01*
X65313000Y-77869925D01*
X65313000Y-78030075D01*
X65281758Y-78187142D01*
X65220471Y-78335101D01*
X65131501Y-78468255D01*
X65018255Y-78581501D01*
X64885101Y-78670471D01*
X64737142Y-78731758D01*
X64580075Y-78763000D01*
X64419925Y-78763000D01*
X64262858Y-78731758D01*
X64114899Y-78670471D01*
X63981745Y-78581501D01*
X63868499Y-78468255D01*
X63779529Y-78335101D01*
X63718242Y-78187142D01*
X63687000Y-78030075D01*
X63687000Y-77869925D01*
X63718242Y-77712858D01*
X63779529Y-77564899D01*
X63868499Y-77431745D01*
X63981745Y-77318499D01*
X64114899Y-77229529D01*
X64262858Y-77168242D01*
X64419925Y-77137000D01*
X64580075Y-77137000D01*
X64737142Y-77168242D01*
G37*
G36*
X70392228Y-76277703D02*
G01*
X70547100Y-76341853D01*
X70686481Y-76434985D01*
X70805015Y-76553519D01*
X70898147Y-76692900D01*
X70962297Y-76847772D01*
X70995000Y-77012184D01*
X70995000Y-77179816D01*
X70962297Y-77344228D01*
X70898147Y-77499100D01*
X70805015Y-77638481D01*
X70686481Y-77757015D01*
X70547100Y-77850147D01*
X70392228Y-77914297D01*
X70227816Y-77947000D01*
X70060184Y-77947000D01*
X69895772Y-77914297D01*
X69740900Y-77850147D01*
X69601519Y-77757015D01*
X69482985Y-77638481D01*
X69389853Y-77499100D01*
X69325703Y-77344228D01*
X69293000Y-77179816D01*
X69293000Y-77012184D01*
X69325703Y-76847772D01*
X69389853Y-76692900D01*
X69482985Y-76553519D01*
X69601519Y-76434985D01*
X69740900Y-76341853D01*
X69895772Y-76277703D01*
X70060184Y-76245000D01*
X70227816Y-76245000D01*
X70392228Y-76277703D01*
G37*
G36*
X72932228Y-76273703D02*
G01*
X73087100Y-76337853D01*
X73226481Y-76430985D01*
X73345015Y-76549519D01*
X73438147Y-76688900D01*
X73502297Y-76843772D01*
X73535000Y-77008184D01*
X73535000Y-77175816D01*
X73502297Y-77340228D01*
X73438147Y-77495100D01*
X73345015Y-77634481D01*
X73226481Y-77753015D01*
X73087100Y-77846147D01*
X72932228Y-77910297D01*
X72767816Y-77943000D01*
X72600184Y-77943000D01*
X72435772Y-77910297D01*
X72280900Y-77846147D01*
X72141519Y-77753015D01*
X72022985Y-77634481D01*
X71929853Y-77495100D01*
X71865703Y-77340228D01*
X71833000Y-77175816D01*
X71833000Y-77008184D01*
X71865703Y-76843772D01*
X71929853Y-76688900D01*
X72022985Y-76549519D01*
X72141519Y-76430985D01*
X72280900Y-76337853D01*
X72435772Y-76273703D01*
X72600184Y-76241000D01*
X72767816Y-76241000D01*
X72932228Y-76273703D01*
G37*
G36*
X70392228Y-73737703D02*
G01*
X70547100Y-73801853D01*
X70686481Y-73894985D01*
X70805015Y-74013519D01*
X70898147Y-74152900D01*
X70962297Y-74307772D01*
X70995000Y-74472184D01*
X70995000Y-74639816D01*
X70962297Y-74804228D01*
X70898147Y-74959100D01*
X70805015Y-75098481D01*
X70686481Y-75217015D01*
X70547100Y-75310147D01*
X70392228Y-75374297D01*
X70227816Y-75407000D01*
X70060184Y-75407000D01*
X69895772Y-75374297D01*
X69740900Y-75310147D01*
X69601519Y-75217015D01*
X69482985Y-75098481D01*
X69389853Y-74959100D01*
X69325703Y-74804228D01*
X69293000Y-74639816D01*
X69293000Y-74472184D01*
X69325703Y-74307772D01*
X69389853Y-74152900D01*
X69482985Y-74013519D01*
X69601519Y-73894985D01*
X69740900Y-73801853D01*
X69895772Y-73737703D01*
X70060184Y-73705000D01*
X70227816Y-73705000D01*
X70392228Y-73737703D01*
G37*
G36*
X70392228Y-71193703D02*
G01*
X70547100Y-71257853D01*
X70686481Y-71350985D01*
X70805015Y-71469519D01*
X70898147Y-71608900D01*
X70962297Y-71763772D01*
X70995000Y-71928184D01*
X70995000Y-72095816D01*
X70962297Y-72260228D01*
X70898147Y-72415100D01*
X70805015Y-72554481D01*
X70686481Y-72673015D01*
X70547100Y-72766147D01*
X70392228Y-72830297D01*
X70227816Y-72863000D01*
X70060184Y-72863000D01*
X69895772Y-72830297D01*
X69740900Y-72766147D01*
X69601519Y-72673015D01*
X69482985Y-72554481D01*
X69389853Y-72415100D01*
X69325703Y-72260228D01*
X69293000Y-72095816D01*
X69293000Y-71928184D01*
X69325703Y-71763772D01*
X69389853Y-71608900D01*
X69482985Y-71469519D01*
X69601519Y-71350985D01*
X69740900Y-71257853D01*
X69895772Y-71193703D01*
X70060184Y-71161000D01*
X70227816Y-71161000D01*
X70392228Y-71193703D01*
G37*
G36*
X59168512Y-68178927D02*
G01*
X59317812Y-68208624D01*
X59481784Y-68276544D01*
X59629354Y-68375147D01*
X59754853Y-68500646D01*
X59853456Y-68648216D01*
X59921376Y-68812188D01*
X59956000Y-68986259D01*
X59956000Y-69163741D01*
X59921376Y-69337812D01*
X59853456Y-69501784D01*
X59754853Y-69649354D01*
X59629354Y-69774853D01*
X59481784Y-69873456D01*
X59317812Y-69941376D01*
X59168512Y-69971073D01*
X59143742Y-69976000D01*
X58966258Y-69976000D01*
X58941488Y-69971073D01*
X58792188Y-69941376D01*
X58628216Y-69873456D01*
X58480646Y-69774853D01*
X58355147Y-69649354D01*
X58256544Y-69501784D01*
X58188624Y-69337812D01*
X58154000Y-69163741D01*
X58154000Y-68986259D01*
X58188624Y-68812188D01*
X58256544Y-68648216D01*
X58355147Y-68500646D01*
X58480646Y-68375147D01*
X58628216Y-68276544D01*
X58792188Y-68208624D01*
X58941488Y-68178927D01*
X58966258Y-68174000D01*
X59143742Y-68174000D01*
X59168512Y-68178927D01*
G37*
G36*
X56628512Y-68178927D02*
G01*
X56777812Y-68208624D01*
X56941784Y-68276544D01*
X57089354Y-68375147D01*
X57214853Y-68500646D01*
X57313456Y-68648216D01*
X57381376Y-68812188D01*
X57416000Y-68986259D01*
X57416000Y-69163741D01*
X57381376Y-69337812D01*
X57313456Y-69501784D01*
X57214853Y-69649354D01*
X57089354Y-69774853D01*
X56941784Y-69873456D01*
X56777812Y-69941376D01*
X56628512Y-69971073D01*
X56603742Y-69976000D01*
X56426258Y-69976000D01*
X56401488Y-69971073D01*
X56252188Y-69941376D01*
X56088216Y-69873456D01*
X55940646Y-69774853D01*
X55815147Y-69649354D01*
X55716544Y-69501784D01*
X55648624Y-69337812D01*
X55614000Y-69163741D01*
X55614000Y-68986259D01*
X55648624Y-68812188D01*
X55716544Y-68648216D01*
X55815147Y-68500646D01*
X55940646Y-68375147D01*
X56088216Y-68276544D01*
X56252188Y-68208624D01*
X56401488Y-68178927D01*
X56426258Y-68174000D01*
X56603742Y-68174000D01*
X56628512Y-68178927D01*
G37*
G36*
X54876000Y-69976000D02*
G01*
X53074000Y-69976000D01*
X53074000Y-68174000D01*
X54876000Y-68174000D01*
X54876000Y-69976000D01*
G37*
G36*
X58486425Y-64262760D02*
G01*
X58486428Y-64262761D01*
X58486429Y-64262761D01*
X58665693Y-64317140D01*
X58665696Y-64317142D01*
X58665697Y-64317142D01*
X58830903Y-64405446D01*
X58975712Y-64524288D01*
X59094554Y-64669097D01*
X59182858Y-64834303D01*
X59182860Y-64834307D01*
X59237239Y-65013571D01*
X59237240Y-65013575D01*
X59255601Y-65200000D01*
X59237240Y-65386425D01*
X59237239Y-65386428D01*
X59237239Y-65386429D01*
X59182860Y-65565693D01*
X59182858Y-65565696D01*
X59182858Y-65565697D01*
X59094554Y-65730903D01*
X58975712Y-65875712D01*
X58830903Y-65994554D01*
X58665697Y-66082858D01*
X58665693Y-66082860D01*
X58486429Y-66137239D01*
X58486428Y-66137239D01*
X58486425Y-66137240D01*
X58346718Y-66151000D01*
X57653282Y-66151000D01*
X57513575Y-66137240D01*
X57513572Y-66137239D01*
X57513571Y-66137239D01*
X57334307Y-66082860D01*
X57334303Y-66082858D01*
X57169097Y-65994554D01*
X57024288Y-65875712D01*
X56905446Y-65730903D01*
X56817142Y-65565697D01*
X56817142Y-65565696D01*
X56817140Y-65565693D01*
X56762761Y-65386429D01*
X56762761Y-65386428D01*
X56762760Y-65386425D01*
X56744399Y-65200000D01*
X56762760Y-65013575D01*
X56762761Y-65013571D01*
X56817140Y-64834307D01*
X56817142Y-64834303D01*
X56905446Y-64669097D01*
X57024288Y-64524288D01*
X57169097Y-64405446D01*
X57334303Y-64317142D01*
X57334304Y-64317142D01*
X57334307Y-64317140D01*
X57513571Y-64262761D01*
X57513572Y-64262761D01*
X57513575Y-64262760D01*
X57653282Y-64249000D01*
X58346718Y-64249000D01*
X58486425Y-64262760D01*
G37*
G36*
X55186424Y-59262760D02*
G01*
X55186427Y-59262761D01*
X55186428Y-59262761D01*
X55365692Y-59317140D01*
X55365695Y-59317142D01*
X55365696Y-59317142D01*
X55530903Y-59405446D01*
X55675712Y-59524288D01*
X55794554Y-59669097D01*
X55821279Y-59719097D01*
X55882860Y-59834307D01*
X55937239Y-60013571D01*
X55937240Y-60013575D01*
X55951000Y-60153282D01*
X55951000Y-60846717D01*
X55937240Y-60986424D01*
X55937239Y-60986426D01*
X55937239Y-60986429D01*
X55882860Y-61165693D01*
X55882858Y-61165696D01*
X55794554Y-61330903D01*
X55675712Y-61475712D01*
X55530903Y-61594554D01*
X55365697Y-61682858D01*
X55365693Y-61682860D01*
X55186429Y-61737239D01*
X55186428Y-61737239D01*
X55186425Y-61737240D01*
X55000000Y-61755601D01*
X54813576Y-61737240D01*
X54813573Y-61737239D01*
X54813572Y-61737239D01*
X54634308Y-61682860D01*
X54634304Y-61682858D01*
X54469098Y-61594554D01*
X54324289Y-61475712D01*
X54205447Y-61330903D01*
X54117140Y-61165692D01*
X54062760Y-60986430D01*
X54049000Y-60846718D01*
X54049000Y-60153283D01*
X54062760Y-60013576D01*
X54062761Y-60013572D01*
X54117140Y-59834308D01*
X54178721Y-59719097D01*
X54205446Y-59669097D01*
X54324288Y-59524288D01*
X54469097Y-59405446D01*
X54634303Y-59317142D01*
X54634304Y-59317142D01*
X54634307Y-59317140D01*
X54813571Y-59262761D01*
X54813572Y-59262761D01*
X54813575Y-59262760D01*
X55000000Y-59244399D01*
X55186424Y-59262760D01*
G37*
G36*
X61186424Y-59312760D02*
G01*
X61186427Y-59312761D01*
X61186428Y-59312761D01*
X61365692Y-59367140D01*
X61365695Y-59367142D01*
X61365696Y-59367142D01*
X61530903Y-59455446D01*
X61675712Y-59574288D01*
X61794554Y-59719097D01*
X61856135Y-59834308D01*
X61882860Y-59884307D01*
X61922072Y-60013572D01*
X61937240Y-60063575D01*
X61951000Y-60203282D01*
X61951000Y-60796717D01*
X61937240Y-60936424D01*
X61937239Y-60936426D01*
X61937239Y-60936429D01*
X61882860Y-61115693D01*
X61882859Y-61115694D01*
X61882858Y-61115696D01*
X61794554Y-61280903D01*
X61675712Y-61425712D01*
X61530903Y-61544554D01*
X61365697Y-61632858D01*
X61365693Y-61632860D01*
X61186429Y-61687239D01*
X61186428Y-61687239D01*
X61186425Y-61687240D01*
X61000000Y-61705601D01*
X60813576Y-61687240D01*
X60813573Y-61687239D01*
X60813572Y-61687239D01*
X60634308Y-61632860D01*
X60634304Y-61632858D01*
X60469098Y-61544554D01*
X60324289Y-61425712D01*
X60205448Y-61280904D01*
X60143866Y-61165693D01*
X60117140Y-61115693D01*
X60062761Y-60936429D01*
X60062761Y-60936428D01*
X60062760Y-60936425D01*
X60049000Y-60796718D01*
X60049000Y-60203283D01*
X60062760Y-60063576D01*
X60062761Y-60063572D01*
X60117140Y-59884308D01*
X60117143Y-59884303D01*
X60205446Y-59719097D01*
X60324288Y-59574288D01*
X60469097Y-59455446D01*
X60634303Y-59367142D01*
X60634304Y-59367142D01*
X60634307Y-59367140D01*
X60813571Y-59312761D01*
X60813572Y-59312761D01*
X60813575Y-59312760D01*
X61000000Y-59294399D01*
X61186424Y-59312760D01*
G37*
G36*
X177913512Y-36203927D02*
G01*
X178062812Y-36233624D01*
X178226784Y-36301544D01*
X178374354Y-36400147D01*
X178499853Y-36525646D01*
X178598456Y-36673216D01*
X178666376Y-36837188D01*
X178701000Y-37011259D01*
X178701000Y-37188741D01*
X178666376Y-37362812D01*
X178598456Y-37526784D01*
X178499853Y-37674354D01*
X178374354Y-37799853D01*
X178226784Y-37898456D01*
X178062812Y-37966376D01*
X177913512Y-37996073D01*
X177888742Y-38001000D01*
X177711258Y-38001000D01*
X177686488Y-37996073D01*
X177537188Y-37966376D01*
X177373216Y-37898456D01*
X177225646Y-37799853D01*
X177100147Y-37674354D01*
X177001544Y-37526784D01*
X176933624Y-37362812D01*
X176899000Y-37188741D01*
X176899000Y-37011259D01*
X176933624Y-36837188D01*
X177001544Y-36673216D01*
X177100147Y-36525646D01*
X177225646Y-36400147D01*
X177373216Y-36301544D01*
X177537188Y-36233624D01*
X177686488Y-36203927D01*
X177711258Y-36199000D01*
X177888742Y-36199000D01*
X177913512Y-36203927D01*
G37*
G36*
X175373512Y-36203927D02*
G01*
X175522812Y-36233624D01*
X175686784Y-36301544D01*
X175834354Y-36400147D01*
X175959853Y-36525646D01*
X176058456Y-36673216D01*
X176126376Y-36837188D01*
X176161000Y-37011259D01*
X176161000Y-37188741D01*
X176126376Y-37362812D01*
X176058456Y-37526784D01*
X175959853Y-37674354D01*
X175834354Y-37799853D01*
X175686784Y-37898456D01*
X175522812Y-37966376D01*
X175373512Y-37996073D01*
X175348742Y-38001000D01*
X175171258Y-38001000D01*
X175146488Y-37996073D01*
X174997188Y-37966376D01*
X174833216Y-37898456D01*
X174685646Y-37799853D01*
X174560147Y-37674354D01*
X174461544Y-37526784D01*
X174393624Y-37362812D01*
X174359000Y-37188741D01*
X174359000Y-37011259D01*
X174393624Y-36837188D01*
X174461544Y-36673216D01*
X174560147Y-36525646D01*
X174685646Y-36400147D01*
X174833216Y-36301544D01*
X174997188Y-36233624D01*
X175146488Y-36203927D01*
X175171258Y-36199000D01*
X175348742Y-36199000D01*
X175373512Y-36203927D01*
G37*
G36*
X172833512Y-36203927D02*
G01*
X172982812Y-36233624D01*
X173146784Y-36301544D01*
X173294354Y-36400147D01*
X173419853Y-36525646D01*
X173518456Y-36673216D01*
X173586376Y-36837188D01*
X173621000Y-37011259D01*
X173621000Y-37188741D01*
X173586376Y-37362812D01*
X173518456Y-37526784D01*
X173419853Y-37674354D01*
X173294354Y-37799853D01*
X173146784Y-37898456D01*
X172982812Y-37966376D01*
X172833512Y-37996073D01*
X172808742Y-38001000D01*
X172631258Y-38001000D01*
X172606488Y-37996073D01*
X172457188Y-37966376D01*
X172293216Y-37898456D01*
X172145646Y-37799853D01*
X172020147Y-37674354D01*
X171921544Y-37526784D01*
X171853624Y-37362812D01*
X171819000Y-37188741D01*
X171819000Y-37011259D01*
X171853624Y-36837188D01*
X171921544Y-36673216D01*
X172020147Y-36525646D01*
X172145646Y-36400147D01*
X172293216Y-36301544D01*
X172457188Y-36233624D01*
X172606488Y-36203927D01*
X172631258Y-36199000D01*
X172808742Y-36199000D01*
X172833512Y-36203927D01*
G37*
G36*
X170293512Y-36203927D02*
G01*
X170442812Y-36233624D01*
X170606784Y-36301544D01*
X170754354Y-36400147D01*
X170879853Y-36525646D01*
X170978456Y-36673216D01*
X171046376Y-36837188D01*
X171081000Y-37011259D01*
X171081000Y-37188741D01*
X171046376Y-37362812D01*
X170978456Y-37526784D01*
X170879853Y-37674354D01*
X170754354Y-37799853D01*
X170606784Y-37898456D01*
X170442812Y-37966376D01*
X170293512Y-37996073D01*
X170268742Y-38001000D01*
X170091258Y-38001000D01*
X170066488Y-37996073D01*
X169917188Y-37966376D01*
X169753216Y-37898456D01*
X169605646Y-37799853D01*
X169480147Y-37674354D01*
X169381544Y-37526784D01*
X169313624Y-37362812D01*
X169279000Y-37188741D01*
X169279000Y-37011259D01*
X169313624Y-36837188D01*
X169381544Y-36673216D01*
X169480147Y-36525646D01*
X169605646Y-36400147D01*
X169753216Y-36301544D01*
X169917188Y-36233624D01*
X170066488Y-36203927D01*
X170091258Y-36199000D01*
X170268742Y-36199000D01*
X170293512Y-36203927D01*
G37*
G36*
X168541000Y-38001000D02*
G01*
X166739000Y-38001000D01*
X166739000Y-36199000D01*
X168541000Y-36199000D01*
X168541000Y-38001000D01*
G37*
G36*
X157593512Y-36203927D02*
G01*
X157742812Y-36233624D01*
X157906784Y-36301544D01*
X158054354Y-36400147D01*
X158179853Y-36525646D01*
X158278456Y-36673216D01*
X158346376Y-36837188D01*
X158381000Y-37011259D01*
X158381000Y-37188741D01*
X158346376Y-37362812D01*
X158278456Y-37526784D01*
X158179853Y-37674354D01*
X158054354Y-37799853D01*
X157906784Y-37898456D01*
X157742812Y-37966376D01*
X157593512Y-37996073D01*
X157568742Y-38001000D01*
X157391258Y-38001000D01*
X157366488Y-37996073D01*
X157217188Y-37966376D01*
X157053216Y-37898456D01*
X156905646Y-37799853D01*
X156780147Y-37674354D01*
X156681544Y-37526784D01*
X156613624Y-37362812D01*
X156579000Y-37188741D01*
X156579000Y-37011259D01*
X156613624Y-36837188D01*
X156681544Y-36673216D01*
X156780147Y-36525646D01*
X156905646Y-36400147D01*
X157053216Y-36301544D01*
X157217188Y-36233624D01*
X157366488Y-36203927D01*
X157391258Y-36199000D01*
X157568742Y-36199000D01*
X157593512Y-36203927D01*
G37*
G36*
X188861000Y-38001000D02*
G01*
X187059000Y-38001000D01*
X187059000Y-36199000D01*
X188861000Y-36199000D01*
X188861000Y-38001000D01*
G37*
G36*
X155053512Y-36203927D02*
G01*
X155202812Y-36233624D01*
X155366784Y-36301544D01*
X155514354Y-36400147D01*
X155639853Y-36525646D01*
X155738456Y-36673216D01*
X155806376Y-36837188D01*
X155841000Y-37011259D01*
X155841000Y-37188741D01*
X155806376Y-37362812D01*
X155738456Y-37526784D01*
X155639853Y-37674354D01*
X155514354Y-37799853D01*
X155366784Y-37898456D01*
X155202812Y-37966376D01*
X155053512Y-37996073D01*
X155028742Y-38001000D01*
X154851258Y-38001000D01*
X154826488Y-37996073D01*
X154677188Y-37966376D01*
X154513216Y-37898456D01*
X154365646Y-37799853D01*
X154240147Y-37674354D01*
X154141544Y-37526784D01*
X154073624Y-37362812D01*
X154039000Y-37188741D01*
X154039000Y-37011259D01*
X154073624Y-36837188D01*
X154141544Y-36673216D01*
X154240147Y-36525646D01*
X154365646Y-36400147D01*
X154513216Y-36301544D01*
X154677188Y-36233624D01*
X154826488Y-36203927D01*
X154851258Y-36199000D01*
X155028742Y-36199000D01*
X155053512Y-36203927D01*
G37*
G36*
X152513512Y-36203927D02*
G01*
X152662812Y-36233624D01*
X152826784Y-36301544D01*
X152974354Y-36400147D01*
X153099853Y-36525646D01*
X153198456Y-36673216D01*
X153266376Y-36837188D01*
X153301000Y-37011259D01*
X153301000Y-37188741D01*
X153266376Y-37362812D01*
X153198456Y-37526784D01*
X153099853Y-37674354D01*
X152974354Y-37799853D01*
X152826784Y-37898456D01*
X152662812Y-37966376D01*
X152513512Y-37996073D01*
X152488742Y-38001000D01*
X152311258Y-38001000D01*
X152286488Y-37996073D01*
X152137188Y-37966376D01*
X151973216Y-37898456D01*
X151825646Y-37799853D01*
X151700147Y-37674354D01*
X151601544Y-37526784D01*
X151533624Y-37362812D01*
X151499000Y-37188741D01*
X151499000Y-37011259D01*
X151533624Y-36837188D01*
X151601544Y-36673216D01*
X151700147Y-36525646D01*
X151825646Y-36400147D01*
X151973216Y-36301544D01*
X152137188Y-36233624D01*
X152286488Y-36203927D01*
X152311258Y-36199000D01*
X152488742Y-36199000D01*
X152513512Y-36203927D01*
G37*
G36*
X238873512Y-36203927D02*
G01*
X239022812Y-36233624D01*
X239186784Y-36301544D01*
X239334354Y-36400147D01*
X239459853Y-36525646D01*
X239558456Y-36673216D01*
X239626376Y-36837188D01*
X239661000Y-37011259D01*
X239661000Y-37188741D01*
X239626376Y-37362812D01*
X239558456Y-37526784D01*
X239459853Y-37674354D01*
X239334354Y-37799853D01*
X239186784Y-37898456D01*
X239022812Y-37966376D01*
X238873512Y-37996073D01*
X238848742Y-38001000D01*
X238671258Y-38001000D01*
X238646488Y-37996073D01*
X238497188Y-37966376D01*
X238333216Y-37898456D01*
X238185646Y-37799853D01*
X238060147Y-37674354D01*
X237961544Y-37526784D01*
X237893624Y-37362812D01*
X237859000Y-37188741D01*
X237859000Y-37011259D01*
X237893624Y-36837188D01*
X237961544Y-36673216D01*
X238060147Y-36525646D01*
X238185646Y-36400147D01*
X238333216Y-36301544D01*
X238497188Y-36233624D01*
X238646488Y-36203927D01*
X238671258Y-36199000D01*
X238848742Y-36199000D01*
X238873512Y-36203927D01*
G37*
G36*
X129653512Y-36203927D02*
G01*
X129802812Y-36233624D01*
X129966784Y-36301544D01*
X130114354Y-36400147D01*
X130239853Y-36525646D01*
X130338456Y-36673216D01*
X130406376Y-36837188D01*
X130441000Y-37011259D01*
X130441000Y-37188741D01*
X130406376Y-37362812D01*
X130338456Y-37526784D01*
X130239853Y-37674354D01*
X130114354Y-37799853D01*
X129966784Y-37898456D01*
X129802812Y-37966376D01*
X129653512Y-37996073D01*
X129628742Y-38001000D01*
X129451258Y-38001000D01*
X129426488Y-37996073D01*
X129277188Y-37966376D01*
X129113216Y-37898456D01*
X128965646Y-37799853D01*
X128840147Y-37674354D01*
X128741544Y-37526784D01*
X128673624Y-37362812D01*
X128639000Y-37188741D01*
X128639000Y-37011259D01*
X128673624Y-36837188D01*
X128741544Y-36673216D01*
X128840147Y-36525646D01*
X128965646Y-36400147D01*
X129113216Y-36301544D01*
X129277188Y-36233624D01*
X129426488Y-36203927D01*
X129451258Y-36199000D01*
X129628742Y-36199000D01*
X129653512Y-36203927D01*
G37*
G36*
X132193512Y-36203927D02*
G01*
X132342812Y-36233624D01*
X132506784Y-36301544D01*
X132654354Y-36400147D01*
X132779853Y-36525646D01*
X132878456Y-36673216D01*
X132946376Y-36837188D01*
X132981000Y-37011259D01*
X132981000Y-37188741D01*
X132946376Y-37362812D01*
X132878456Y-37526784D01*
X132779853Y-37674354D01*
X132654354Y-37799853D01*
X132506784Y-37898456D01*
X132342812Y-37966376D01*
X132193512Y-37996073D01*
X132168742Y-38001000D01*
X131991258Y-38001000D01*
X131966488Y-37996073D01*
X131817188Y-37966376D01*
X131653216Y-37898456D01*
X131505646Y-37799853D01*
X131380147Y-37674354D01*
X131281544Y-37526784D01*
X131213624Y-37362812D01*
X131179000Y-37188741D01*
X131179000Y-37011259D01*
X131213624Y-36837188D01*
X131281544Y-36673216D01*
X131380147Y-36525646D01*
X131505646Y-36400147D01*
X131653216Y-36301544D01*
X131817188Y-36233624D01*
X131966488Y-36203927D01*
X131991258Y-36199000D01*
X132168742Y-36199000D01*
X132193512Y-36203927D01*
G37*
G36*
X134733512Y-36203927D02*
G01*
X134882812Y-36233624D01*
X135046784Y-36301544D01*
X135194354Y-36400147D01*
X135319853Y-36525646D01*
X135418456Y-36673216D01*
X135486376Y-36837188D01*
X135521000Y-37011259D01*
X135521000Y-37188741D01*
X135486376Y-37362812D01*
X135418456Y-37526784D01*
X135319853Y-37674354D01*
X135194354Y-37799853D01*
X135046784Y-37898456D01*
X134882812Y-37966376D01*
X134733512Y-37996073D01*
X134708742Y-38001000D01*
X134531258Y-38001000D01*
X134506488Y-37996073D01*
X134357188Y-37966376D01*
X134193216Y-37898456D01*
X134045646Y-37799853D01*
X133920147Y-37674354D01*
X133821544Y-37526784D01*
X133753624Y-37362812D01*
X133719000Y-37188741D01*
X133719000Y-37011259D01*
X133753624Y-36837188D01*
X133821544Y-36673216D01*
X133920147Y-36525646D01*
X134045646Y-36400147D01*
X134193216Y-36301544D01*
X134357188Y-36233624D01*
X134506488Y-36203927D01*
X134531258Y-36199000D01*
X134708742Y-36199000D01*
X134733512Y-36203927D01*
G37*
G36*
X236333512Y-36203927D02*
G01*
X236482812Y-36233624D01*
X236646784Y-36301544D01*
X236794354Y-36400147D01*
X236919853Y-36525646D01*
X237018456Y-36673216D01*
X237086376Y-36837188D01*
X237121000Y-37011259D01*
X237121000Y-37188741D01*
X237086376Y-37362812D01*
X237018456Y-37526784D01*
X236919853Y-37674354D01*
X236794354Y-37799853D01*
X236646784Y-37898456D01*
X236482812Y-37966376D01*
X236333512Y-37996073D01*
X236308742Y-38001000D01*
X236131258Y-38001000D01*
X236106488Y-37996073D01*
X235957188Y-37966376D01*
X235793216Y-37898456D01*
X235645646Y-37799853D01*
X235520147Y-37674354D01*
X235421544Y-37526784D01*
X235353624Y-37362812D01*
X235319000Y-37188741D01*
X235319000Y-37011259D01*
X235353624Y-36837188D01*
X235421544Y-36673216D01*
X235520147Y-36525646D01*
X235645646Y-36400147D01*
X235793216Y-36301544D01*
X235957188Y-36233624D01*
X236106488Y-36203927D01*
X236131258Y-36199000D01*
X236308742Y-36199000D01*
X236333512Y-36203927D01*
G37*
G36*
X218553512Y-36203927D02*
G01*
X218702812Y-36233624D01*
X218866784Y-36301544D01*
X219014354Y-36400147D01*
X219139853Y-36525646D01*
X219238456Y-36673216D01*
X219306376Y-36837188D01*
X219341000Y-37011259D01*
X219341000Y-37188741D01*
X219306376Y-37362812D01*
X219238456Y-37526784D01*
X219139853Y-37674354D01*
X219014354Y-37799853D01*
X218866784Y-37898456D01*
X218702812Y-37966376D01*
X218553512Y-37996073D01*
X218528742Y-38001000D01*
X218351258Y-38001000D01*
X218326488Y-37996073D01*
X218177188Y-37966376D01*
X218013216Y-37898456D01*
X217865646Y-37799853D01*
X217740147Y-37674354D01*
X217641544Y-37526784D01*
X217573624Y-37362812D01*
X217539000Y-37188741D01*
X217539000Y-37011259D01*
X217573624Y-36837188D01*
X217641544Y-36673216D01*
X217740147Y-36525646D01*
X217865646Y-36400147D01*
X218013216Y-36301544D01*
X218177188Y-36233624D01*
X218326488Y-36203927D01*
X218351258Y-36199000D01*
X218528742Y-36199000D01*
X218553512Y-36203927D01*
G37*
G36*
X127901000Y-38001000D02*
G01*
X126099000Y-38001000D01*
X126099000Y-36199000D01*
X127901000Y-36199000D01*
X127901000Y-38001000D01*
G37*
G36*
X193153512Y-36203927D02*
G01*
X193302812Y-36233624D01*
X193466784Y-36301544D01*
X193614354Y-36400147D01*
X193739853Y-36525646D01*
X193838456Y-36673216D01*
X193906376Y-36837188D01*
X193941000Y-37011259D01*
X193941000Y-37188741D01*
X193906376Y-37362812D01*
X193838456Y-37526784D01*
X193739853Y-37674354D01*
X193614354Y-37799853D01*
X193466784Y-37898456D01*
X193302812Y-37966376D01*
X193153512Y-37996073D01*
X193128742Y-38001000D01*
X192951258Y-38001000D01*
X192926488Y-37996073D01*
X192777188Y-37966376D01*
X192613216Y-37898456D01*
X192465646Y-37799853D01*
X192340147Y-37674354D01*
X192241544Y-37526784D01*
X192173624Y-37362812D01*
X192139000Y-37188741D01*
X192139000Y-37011259D01*
X192173624Y-36837188D01*
X192241544Y-36673216D01*
X192340147Y-36525646D01*
X192465646Y-36400147D01*
X192613216Y-36301544D01*
X192777188Y-36233624D01*
X192926488Y-36203927D01*
X192951258Y-36199000D01*
X193128742Y-36199000D01*
X193153512Y-36203927D01*
G37*
G36*
X198233512Y-36203927D02*
G01*
X198382812Y-36233624D01*
X198546784Y-36301544D01*
X198694354Y-36400147D01*
X198819853Y-36525646D01*
X198918456Y-36673216D01*
X198986376Y-36837188D01*
X199021000Y-37011259D01*
X199021000Y-37188741D01*
X198986376Y-37362812D01*
X198918456Y-37526784D01*
X198819853Y-37674354D01*
X198694354Y-37799853D01*
X198546784Y-37898456D01*
X198382812Y-37966376D01*
X198233512Y-37996073D01*
X198208742Y-38001000D01*
X198031258Y-38001000D01*
X198006488Y-37996073D01*
X197857188Y-37966376D01*
X197693216Y-37898456D01*
X197545646Y-37799853D01*
X197420147Y-37674354D01*
X197321544Y-37526784D01*
X197253624Y-37362812D01*
X197219000Y-37188741D01*
X197219000Y-37011259D01*
X197253624Y-36837188D01*
X197321544Y-36673216D01*
X197420147Y-36525646D01*
X197545646Y-36400147D01*
X197693216Y-36301544D01*
X197857188Y-36233624D01*
X198006488Y-36203927D01*
X198031258Y-36199000D01*
X198208742Y-36199000D01*
X198233512Y-36203927D01*
G37*
G36*
X137273512Y-36203927D02*
G01*
X137422812Y-36233624D01*
X137586784Y-36301544D01*
X137734354Y-36400147D01*
X137859853Y-36525646D01*
X137958456Y-36673216D01*
X138026376Y-36837188D01*
X138061000Y-37011259D01*
X138061000Y-37188741D01*
X138026376Y-37362812D01*
X137958456Y-37526784D01*
X137859853Y-37674354D01*
X137734354Y-37799853D01*
X137586784Y-37898456D01*
X137422812Y-37966376D01*
X137273512Y-37996073D01*
X137248742Y-38001000D01*
X137071258Y-38001000D01*
X137046488Y-37996073D01*
X136897188Y-37966376D01*
X136733216Y-37898456D01*
X136585646Y-37799853D01*
X136460147Y-37674354D01*
X136361544Y-37526784D01*
X136293624Y-37362812D01*
X136259000Y-37188741D01*
X136259000Y-37011259D01*
X136293624Y-36837188D01*
X136361544Y-36673216D01*
X136460147Y-36525646D01*
X136585646Y-36400147D01*
X136733216Y-36301544D01*
X136897188Y-36233624D01*
X137046488Y-36203927D01*
X137071258Y-36199000D01*
X137248742Y-36199000D01*
X137273512Y-36203927D01*
G37*
G36*
X148221000Y-38001000D02*
G01*
X146419000Y-38001000D01*
X146419000Y-36199000D01*
X148221000Y-36199000D01*
X148221000Y-38001000D01*
G37*
G36*
X233793512Y-36203927D02*
G01*
X233942812Y-36233624D01*
X234106784Y-36301544D01*
X234254354Y-36400147D01*
X234379853Y-36525646D01*
X234478456Y-36673216D01*
X234546376Y-36837188D01*
X234581000Y-37011259D01*
X234581000Y-37188741D01*
X234546376Y-37362812D01*
X234478456Y-37526784D01*
X234379853Y-37674354D01*
X234254354Y-37799853D01*
X234106784Y-37898456D01*
X233942812Y-37966376D01*
X233793512Y-37996073D01*
X233768742Y-38001000D01*
X233591258Y-38001000D01*
X233566488Y-37996073D01*
X233417188Y-37966376D01*
X233253216Y-37898456D01*
X233105646Y-37799853D01*
X232980147Y-37674354D01*
X232881544Y-37526784D01*
X232813624Y-37362812D01*
X232779000Y-37188741D01*
X232779000Y-37011259D01*
X232813624Y-36837188D01*
X232881544Y-36673216D01*
X232980147Y-36525646D01*
X233105646Y-36400147D01*
X233253216Y-36301544D01*
X233417188Y-36233624D01*
X233566488Y-36203927D01*
X233591258Y-36199000D01*
X233768742Y-36199000D01*
X233793512Y-36203927D01*
G37*
G36*
X229501000Y-38001000D02*
G01*
X227699000Y-38001000D01*
X227699000Y-36199000D01*
X229501000Y-36199000D01*
X229501000Y-38001000D01*
G37*
G36*
X195693512Y-36203927D02*
G01*
X195842812Y-36233624D01*
X196006784Y-36301544D01*
X196154354Y-36400147D01*
X196279853Y-36525646D01*
X196378456Y-36673216D01*
X196446376Y-36837188D01*
X196481000Y-37011259D01*
X196481000Y-37188741D01*
X196446376Y-37362812D01*
X196378456Y-37526784D01*
X196279853Y-37674354D01*
X196154354Y-37799853D01*
X196006784Y-37898456D01*
X195842812Y-37966376D01*
X195693512Y-37996073D01*
X195668742Y-38001000D01*
X195491258Y-38001000D01*
X195466488Y-37996073D01*
X195317188Y-37966376D01*
X195153216Y-37898456D01*
X195005646Y-37799853D01*
X194880147Y-37674354D01*
X194781544Y-37526784D01*
X194713624Y-37362812D01*
X194679000Y-37188741D01*
X194679000Y-37011259D01*
X194713624Y-36837188D01*
X194781544Y-36673216D01*
X194880147Y-36525646D01*
X195005646Y-36400147D01*
X195153216Y-36301544D01*
X195317188Y-36233624D01*
X195466488Y-36203927D01*
X195491258Y-36199000D01*
X195668742Y-36199000D01*
X195693512Y-36203927D01*
G37*
G36*
X213473512Y-36203927D02*
G01*
X213622812Y-36233624D01*
X213786784Y-36301544D01*
X213934354Y-36400147D01*
X214059853Y-36525646D01*
X214158456Y-36673216D01*
X214226376Y-36837188D01*
X214261000Y-37011259D01*
X214261000Y-37188741D01*
X214226376Y-37362812D01*
X214158456Y-37526784D01*
X214059853Y-37674354D01*
X213934354Y-37799853D01*
X213786784Y-37898456D01*
X213622812Y-37966376D01*
X213473512Y-37996073D01*
X213448742Y-38001000D01*
X213271258Y-38001000D01*
X213246488Y-37996073D01*
X213097188Y-37966376D01*
X212933216Y-37898456D01*
X212785646Y-37799853D01*
X212660147Y-37674354D01*
X212561544Y-37526784D01*
X212493624Y-37362812D01*
X212459000Y-37188741D01*
X212459000Y-37011259D01*
X212493624Y-36837188D01*
X212561544Y-36673216D01*
X212660147Y-36525646D01*
X212785646Y-36400147D01*
X212933216Y-36301544D01*
X213097188Y-36233624D01*
X213246488Y-36203927D01*
X213271258Y-36199000D01*
X213448742Y-36199000D01*
X213473512Y-36203927D01*
G37*
G36*
X210933512Y-36203927D02*
G01*
X211082812Y-36233624D01*
X211246784Y-36301544D01*
X211394354Y-36400147D01*
X211519853Y-36525646D01*
X211618456Y-36673216D01*
X211686376Y-36837188D01*
X211721000Y-37011259D01*
X211721000Y-37188741D01*
X211686376Y-37362812D01*
X211618456Y-37526784D01*
X211519853Y-37674354D01*
X211394354Y-37799853D01*
X211246784Y-37898456D01*
X211082812Y-37966376D01*
X210933512Y-37996073D01*
X210908742Y-38001000D01*
X210731258Y-38001000D01*
X210706488Y-37996073D01*
X210557188Y-37966376D01*
X210393216Y-37898456D01*
X210245646Y-37799853D01*
X210120147Y-37674354D01*
X210021544Y-37526784D01*
X209953624Y-37362812D01*
X209919000Y-37188741D01*
X209919000Y-37011259D01*
X209953624Y-36837188D01*
X210021544Y-36673216D01*
X210120147Y-36525646D01*
X210245646Y-36400147D01*
X210393216Y-36301544D01*
X210557188Y-36233624D01*
X210706488Y-36203927D01*
X210731258Y-36199000D01*
X210908742Y-36199000D01*
X210933512Y-36203927D01*
G37*
G36*
X149973512Y-36203927D02*
G01*
X150122812Y-36233624D01*
X150286784Y-36301544D01*
X150434354Y-36400147D01*
X150559853Y-36525646D01*
X150658456Y-36673216D01*
X150726376Y-36837188D01*
X150761000Y-37011259D01*
X150761000Y-37188741D01*
X150726376Y-37362812D01*
X150658456Y-37526784D01*
X150559853Y-37674354D01*
X150434354Y-37799853D01*
X150286784Y-37898456D01*
X150122812Y-37966376D01*
X149973512Y-37996073D01*
X149948742Y-38001000D01*
X149771258Y-38001000D01*
X149746488Y-37996073D01*
X149597188Y-37966376D01*
X149433216Y-37898456D01*
X149285646Y-37799853D01*
X149160147Y-37674354D01*
X149061544Y-37526784D01*
X148993624Y-37362812D01*
X148959000Y-37188741D01*
X148959000Y-37011259D01*
X148993624Y-36837188D01*
X149061544Y-36673216D01*
X149160147Y-36525646D01*
X149285646Y-36400147D01*
X149433216Y-36301544D01*
X149597188Y-36233624D01*
X149746488Y-36203927D01*
X149771258Y-36199000D01*
X149948742Y-36199000D01*
X149973512Y-36203927D01*
G37*
G36*
X231253512Y-36203927D02*
G01*
X231402812Y-36233624D01*
X231566784Y-36301544D01*
X231714354Y-36400147D01*
X231839853Y-36525646D01*
X231938456Y-36673216D01*
X232006376Y-36837188D01*
X232041000Y-37011259D01*
X232041000Y-37188741D01*
X232006376Y-37362812D01*
X231938456Y-37526784D01*
X231839853Y-37674354D01*
X231714354Y-37799853D01*
X231566784Y-37898456D01*
X231402812Y-37966376D01*
X231253512Y-37996073D01*
X231228742Y-38001000D01*
X231051258Y-38001000D01*
X231026488Y-37996073D01*
X230877188Y-37966376D01*
X230713216Y-37898456D01*
X230565646Y-37799853D01*
X230440147Y-37674354D01*
X230341544Y-37526784D01*
X230273624Y-37362812D01*
X230239000Y-37188741D01*
X230239000Y-37011259D01*
X230273624Y-36837188D01*
X230341544Y-36673216D01*
X230440147Y-36525646D01*
X230565646Y-36400147D01*
X230713216Y-36301544D01*
X230877188Y-36233624D01*
X231026488Y-36203927D01*
X231051258Y-36199000D01*
X231228742Y-36199000D01*
X231253512Y-36203927D01*
G37*
G36*
X209181000Y-38001000D02*
G01*
X207379000Y-38001000D01*
X207379000Y-36199000D01*
X209181000Y-36199000D01*
X209181000Y-38001000D01*
G37*
G36*
X216013512Y-36203927D02*
G01*
X216162812Y-36233624D01*
X216326784Y-36301544D01*
X216474354Y-36400147D01*
X216599853Y-36525646D01*
X216698456Y-36673216D01*
X216766376Y-36837188D01*
X216801000Y-37011259D01*
X216801000Y-37188741D01*
X216766376Y-37362812D01*
X216698456Y-37526784D01*
X216599853Y-37674354D01*
X216474354Y-37799853D01*
X216326784Y-37898456D01*
X216162812Y-37966376D01*
X216013512Y-37996073D01*
X215988742Y-38001000D01*
X215811258Y-38001000D01*
X215786488Y-37996073D01*
X215637188Y-37966376D01*
X215473216Y-37898456D01*
X215325646Y-37799853D01*
X215200147Y-37674354D01*
X215101544Y-37526784D01*
X215033624Y-37362812D01*
X214999000Y-37188741D01*
X214999000Y-37011259D01*
X215033624Y-36837188D01*
X215101544Y-36673216D01*
X215200147Y-36525646D01*
X215325646Y-36400147D01*
X215473216Y-36301544D01*
X215637188Y-36233624D01*
X215786488Y-36203927D01*
X215811258Y-36199000D01*
X215988742Y-36199000D01*
X216013512Y-36203927D01*
G37*
G36*
X190613512Y-36203927D02*
G01*
X190762812Y-36233624D01*
X190926784Y-36301544D01*
X191074354Y-36400147D01*
X191199853Y-36525646D01*
X191298456Y-36673216D01*
X191366376Y-36837188D01*
X191401000Y-37011259D01*
X191401000Y-37188741D01*
X191366376Y-37362812D01*
X191298456Y-37526784D01*
X191199853Y-37674354D01*
X191074354Y-37799853D01*
X190926784Y-37898456D01*
X190762812Y-37966376D01*
X190613512Y-37996073D01*
X190588742Y-38001000D01*
X190411258Y-38001000D01*
X190386488Y-37996073D01*
X190237188Y-37966376D01*
X190073216Y-37898456D01*
X189925646Y-37799853D01*
X189800147Y-37674354D01*
X189701544Y-37526784D01*
X189633624Y-37362812D01*
X189599000Y-37188741D01*
X189599000Y-37011259D01*
X189633624Y-36837188D01*
X189701544Y-36673216D01*
X189800147Y-36525646D01*
X189925646Y-36400147D01*
X190073216Y-36301544D01*
X190237188Y-36233624D01*
X190386488Y-36203927D01*
X190411258Y-36199000D01*
X190588742Y-36199000D01*
X190613512Y-36203927D01*
G37*
G36*
X52744098Y-32547033D02*
G01*
X53208350Y-32739332D01*
X53208352Y-32739333D01*
X53626168Y-33018509D01*
X53981491Y-33373832D01*
X54172034Y-33659000D01*
X54260668Y-33791650D01*
X54452967Y-34255902D01*
X54551000Y-34748747D01*
X54551000Y-35251253D01*
X54452967Y-35744098D01*
X54264541Y-36199000D01*
X54260667Y-36208352D01*
X53981491Y-36626168D01*
X53626168Y-36981491D01*
X53208352Y-37260667D01*
X53208351Y-37260668D01*
X53208350Y-37260668D01*
X52744098Y-37452967D01*
X52251253Y-37551000D01*
X51748747Y-37551000D01*
X51255902Y-37452967D01*
X50791650Y-37260668D01*
X50791649Y-37260668D01*
X50791648Y-37260667D01*
X50373832Y-36981491D01*
X50018509Y-36626168D01*
X49739333Y-36208352D01*
X49735459Y-36199000D01*
X49547033Y-35744098D01*
X49449000Y-35251253D01*
X49449000Y-34748747D01*
X49547033Y-34255902D01*
X49739332Y-33791650D01*
X49827966Y-33659000D01*
X50018509Y-33373832D01*
X50373832Y-33018509D01*
X50791648Y-32739333D01*
X50791650Y-32739332D01*
X51255902Y-32547033D01*
X51748747Y-32449000D01*
X52251253Y-32449000D01*
X52744098Y-32547033D01*
G37*
G36*
X245744098Y-32547033D02*
G01*
X246208350Y-32739332D01*
X246208352Y-32739333D01*
X246626168Y-33018509D01*
X246981491Y-33373832D01*
X247172034Y-33659000D01*
X247260668Y-33791650D01*
X247452967Y-34255902D01*
X247551000Y-34748747D01*
X247551000Y-35251253D01*
X247452967Y-35744098D01*
X247264541Y-36199000D01*
X247260667Y-36208352D01*
X246981491Y-36626168D01*
X246626168Y-36981491D01*
X246208352Y-37260667D01*
X246208351Y-37260668D01*
X246208350Y-37260668D01*
X245744098Y-37452967D01*
X245251253Y-37551000D01*
X244748747Y-37551000D01*
X244255902Y-37452967D01*
X243791650Y-37260668D01*
X243791649Y-37260668D01*
X243791648Y-37260667D01*
X243373832Y-36981491D01*
X243018509Y-36626168D01*
X242739333Y-36208352D01*
X242735459Y-36199000D01*
X242547033Y-35744098D01*
X242449000Y-35251253D01*
X242449000Y-34748747D01*
X242547033Y-34255902D01*
X242739332Y-33791650D01*
X242827966Y-33659000D01*
X243018509Y-33373832D01*
X243373832Y-33018509D01*
X243791648Y-32739333D01*
X243791650Y-32739332D01*
X244255902Y-32547033D01*
X244748747Y-32449000D01*
X245251253Y-32449000D01*
X245744098Y-32547033D01*
G37*
G36*
X216013512Y-33663927D02*
G01*
X216162812Y-33693624D01*
X216326784Y-33761544D01*
X216474354Y-33860147D01*
X216599853Y-33985646D01*
X216698456Y-34133216D01*
X216766376Y-34297188D01*
X216801000Y-34471259D01*
X216801000Y-34648741D01*
X216766376Y-34822812D01*
X216698456Y-34986784D01*
X216599853Y-35134354D01*
X216474354Y-35259853D01*
X216326784Y-35358456D01*
X216162812Y-35426376D01*
X216013512Y-35456073D01*
X215988742Y-35461000D01*
X215811258Y-35461000D01*
X215786488Y-35456073D01*
X215637188Y-35426376D01*
X215473216Y-35358456D01*
X215325646Y-35259853D01*
X215200147Y-35134354D01*
X215101544Y-34986784D01*
X215033624Y-34822812D01*
X214999000Y-34648741D01*
X214999000Y-34471259D01*
X215033624Y-34297188D01*
X215101544Y-34133216D01*
X215200147Y-33985646D01*
X215325646Y-33860147D01*
X215473216Y-33761544D01*
X215637188Y-33693624D01*
X215786488Y-33663927D01*
X215811258Y-33659000D01*
X215988742Y-33659000D01*
X216013512Y-33663927D01*
G37*
G36*
X218553512Y-33663927D02*
G01*
X218702812Y-33693624D01*
X218866784Y-33761544D01*
X219014354Y-33860147D01*
X219139853Y-33985646D01*
X219238456Y-34133216D01*
X219306376Y-34297188D01*
X219341000Y-34471259D01*
X219341000Y-34648741D01*
X219306376Y-34822812D01*
X219238456Y-34986784D01*
X219139853Y-35134354D01*
X219014354Y-35259853D01*
X218866784Y-35358456D01*
X218702812Y-35426376D01*
X218553512Y-35456073D01*
X218528742Y-35461000D01*
X218351258Y-35461000D01*
X218326488Y-35456073D01*
X218177188Y-35426376D01*
X218013216Y-35358456D01*
X217865646Y-35259853D01*
X217740147Y-35134354D01*
X217641544Y-34986784D01*
X217573624Y-34822812D01*
X217539000Y-34648741D01*
X217539000Y-34471259D01*
X217573624Y-34297188D01*
X217641544Y-34133216D01*
X217740147Y-33985646D01*
X217865646Y-33860147D01*
X218013216Y-33761544D01*
X218177188Y-33693624D01*
X218326488Y-33663927D01*
X218351258Y-33659000D01*
X218528742Y-33659000D01*
X218553512Y-33663927D01*
G37*
G36*
X208393512Y-33663927D02*
G01*
X208542812Y-33693624D01*
X208706784Y-33761544D01*
X208854354Y-33860147D01*
X208979853Y-33985646D01*
X209078456Y-34133216D01*
X209146376Y-34297188D01*
X209181000Y-34471259D01*
X209181000Y-34648741D01*
X209146376Y-34822812D01*
X209078456Y-34986784D01*
X208979853Y-35134354D01*
X208854354Y-35259853D01*
X208706784Y-35358456D01*
X208542812Y-35426376D01*
X208393512Y-35456073D01*
X208368742Y-35461000D01*
X208191258Y-35461000D01*
X208166488Y-35456073D01*
X208017188Y-35426376D01*
X207853216Y-35358456D01*
X207705646Y-35259853D01*
X207580147Y-35134354D01*
X207481544Y-34986784D01*
X207413624Y-34822812D01*
X207379000Y-34648741D01*
X207379000Y-34471259D01*
X207413624Y-34297188D01*
X207481544Y-34133216D01*
X207580147Y-33985646D01*
X207705646Y-33860147D01*
X207853216Y-33761544D01*
X208017188Y-33693624D01*
X208166488Y-33663927D01*
X208191258Y-33659000D01*
X208368742Y-33659000D01*
X208393512Y-33663927D01*
G37*
G36*
X195693512Y-33663927D02*
G01*
X195842812Y-33693624D01*
X196006784Y-33761544D01*
X196154354Y-33860147D01*
X196279853Y-33985646D01*
X196378456Y-34133216D01*
X196446376Y-34297188D01*
X196481000Y-34471259D01*
X196481000Y-34648741D01*
X196446376Y-34822812D01*
X196378456Y-34986784D01*
X196279853Y-35134354D01*
X196154354Y-35259853D01*
X196006784Y-35358456D01*
X195842812Y-35426376D01*
X195693512Y-35456073D01*
X195668742Y-35461000D01*
X195491258Y-35461000D01*
X195466488Y-35456073D01*
X195317188Y-35426376D01*
X195153216Y-35358456D01*
X195005646Y-35259853D01*
X194880147Y-35134354D01*
X194781544Y-34986784D01*
X194713624Y-34822812D01*
X194679000Y-34648741D01*
X194679000Y-34471259D01*
X194713624Y-34297188D01*
X194781544Y-34133216D01*
X194880147Y-33985646D01*
X195005646Y-33860147D01*
X195153216Y-33761544D01*
X195317188Y-33693624D01*
X195466488Y-33663927D01*
X195491258Y-33659000D01*
X195668742Y-33659000D01*
X195693512Y-33663927D01*
G37*
G36*
X193153512Y-33663927D02*
G01*
X193302812Y-33693624D01*
X193466784Y-33761544D01*
X193614354Y-33860147D01*
X193739853Y-33985646D01*
X193838456Y-34133216D01*
X193906376Y-34297188D01*
X193941000Y-34471259D01*
X193941000Y-34648741D01*
X193906376Y-34822812D01*
X193838456Y-34986784D01*
X193739853Y-35134354D01*
X193614354Y-35259853D01*
X193466784Y-35358456D01*
X193302812Y-35426376D01*
X193153512Y-35456073D01*
X193128742Y-35461000D01*
X192951258Y-35461000D01*
X192926488Y-35456073D01*
X192777188Y-35426376D01*
X192613216Y-35358456D01*
X192465646Y-35259853D01*
X192340147Y-35134354D01*
X192241544Y-34986784D01*
X192173624Y-34822812D01*
X192139000Y-34648741D01*
X192139000Y-34471259D01*
X192173624Y-34297188D01*
X192241544Y-34133216D01*
X192340147Y-33985646D01*
X192465646Y-33860147D01*
X192613216Y-33761544D01*
X192777188Y-33693624D01*
X192926488Y-33663927D01*
X192951258Y-33659000D01*
X193128742Y-33659000D01*
X193153512Y-33663927D01*
G37*
G36*
X190613512Y-33663927D02*
G01*
X190762812Y-33693624D01*
X190926784Y-33761544D01*
X191074354Y-33860147D01*
X191199853Y-33985646D01*
X191298456Y-34133216D01*
X191366376Y-34297188D01*
X191401000Y-34471259D01*
X191401000Y-34648741D01*
X191366376Y-34822812D01*
X191298456Y-34986784D01*
X191199853Y-35134354D01*
X191074354Y-35259853D01*
X190926784Y-35358456D01*
X190762812Y-35426376D01*
X190613512Y-35456073D01*
X190588742Y-35461000D01*
X190411258Y-35461000D01*
X190386488Y-35456073D01*
X190237188Y-35426376D01*
X190073216Y-35358456D01*
X189925646Y-35259853D01*
X189800147Y-35134354D01*
X189701544Y-34986784D01*
X189633624Y-34822812D01*
X189599000Y-34648741D01*
X189599000Y-34471259D01*
X189633624Y-34297188D01*
X189701544Y-34133216D01*
X189800147Y-33985646D01*
X189925646Y-33860147D01*
X190073216Y-33761544D01*
X190237188Y-33693624D01*
X190386488Y-33663927D01*
X190411258Y-33659000D01*
X190588742Y-33659000D01*
X190613512Y-33663927D01*
G37*
G36*
X188073512Y-33663927D02*
G01*
X188222812Y-33693624D01*
X188386784Y-33761544D01*
X188534354Y-33860147D01*
X188659853Y-33985646D01*
X188758456Y-34133216D01*
X188826376Y-34297188D01*
X188861000Y-34471259D01*
X188861000Y-34648741D01*
X188826376Y-34822812D01*
X188758456Y-34986784D01*
X188659853Y-35134354D01*
X188534354Y-35259853D01*
X188386784Y-35358456D01*
X188222812Y-35426376D01*
X188073512Y-35456073D01*
X188048742Y-35461000D01*
X187871258Y-35461000D01*
X187846488Y-35456073D01*
X187697188Y-35426376D01*
X187533216Y-35358456D01*
X187385646Y-35259853D01*
X187260147Y-35134354D01*
X187161544Y-34986784D01*
X187093624Y-34822812D01*
X187059000Y-34648741D01*
X187059000Y-34471259D01*
X187093624Y-34297188D01*
X187161544Y-34133216D01*
X187260147Y-33985646D01*
X187385646Y-33860147D01*
X187533216Y-33761544D01*
X187697188Y-33693624D01*
X187846488Y-33663927D01*
X187871258Y-33659000D01*
X188048742Y-33659000D01*
X188073512Y-33663927D01*
G37*
G36*
X177913512Y-33663927D02*
G01*
X178062812Y-33693624D01*
X178226784Y-33761544D01*
X178374354Y-33860147D01*
X178499853Y-33985646D01*
X178598456Y-34133216D01*
X178666376Y-34297188D01*
X178701000Y-34471259D01*
X178701000Y-34648741D01*
X178666376Y-34822812D01*
X178598456Y-34986784D01*
X178499853Y-35134354D01*
X178374354Y-35259853D01*
X178226784Y-35358456D01*
X178062812Y-35426376D01*
X177913512Y-35456073D01*
X177888742Y-35461000D01*
X177711258Y-35461000D01*
X177686488Y-35456073D01*
X177537188Y-35426376D01*
X177373216Y-35358456D01*
X177225646Y-35259853D01*
X177100147Y-35134354D01*
X177001544Y-34986784D01*
X176933624Y-34822812D01*
X176899000Y-34648741D01*
X176899000Y-34471259D01*
X176933624Y-34297188D01*
X177001544Y-34133216D01*
X177100147Y-33985646D01*
X177225646Y-33860147D01*
X177373216Y-33761544D01*
X177537188Y-33693624D01*
X177686488Y-33663927D01*
X177711258Y-33659000D01*
X177888742Y-33659000D01*
X177913512Y-33663927D01*
G37*
G36*
X175373512Y-33663927D02*
G01*
X175522812Y-33693624D01*
X175686784Y-33761544D01*
X175834354Y-33860147D01*
X175959853Y-33985646D01*
X176058456Y-34133216D01*
X176126376Y-34297188D01*
X176161000Y-34471259D01*
X176161000Y-34648741D01*
X176126376Y-34822812D01*
X176058456Y-34986784D01*
X175959853Y-35134354D01*
X175834354Y-35259853D01*
X175686784Y-35358456D01*
X175522812Y-35426376D01*
X175373512Y-35456073D01*
X175348742Y-35461000D01*
X175171258Y-35461000D01*
X175146488Y-35456073D01*
X174997188Y-35426376D01*
X174833216Y-35358456D01*
X174685646Y-35259853D01*
X174560147Y-35134354D01*
X174461544Y-34986784D01*
X174393624Y-34822812D01*
X174359000Y-34648741D01*
X174359000Y-34471259D01*
X174393624Y-34297188D01*
X174461544Y-34133216D01*
X174560147Y-33985646D01*
X174685646Y-33860147D01*
X174833216Y-33761544D01*
X174997188Y-33693624D01*
X175146488Y-33663927D01*
X175171258Y-33659000D01*
X175348742Y-33659000D01*
X175373512Y-33663927D01*
G37*
G36*
X172833512Y-33663927D02*
G01*
X172982812Y-33693624D01*
X173146784Y-33761544D01*
X173294354Y-33860147D01*
X173419853Y-33985646D01*
X173518456Y-34133216D01*
X173586376Y-34297188D01*
X173621000Y-34471259D01*
X173621000Y-34648741D01*
X173586376Y-34822812D01*
X173518456Y-34986784D01*
X173419853Y-35134354D01*
X173294354Y-35259853D01*
X173146784Y-35358456D01*
X172982812Y-35426376D01*
X172833512Y-35456073D01*
X172808742Y-35461000D01*
X172631258Y-35461000D01*
X172606488Y-35456073D01*
X172457188Y-35426376D01*
X172293216Y-35358456D01*
X172145646Y-35259853D01*
X172020147Y-35134354D01*
X171921544Y-34986784D01*
X171853624Y-34822812D01*
X171819000Y-34648741D01*
X171819000Y-34471259D01*
X171853624Y-34297188D01*
X171921544Y-34133216D01*
X172020147Y-33985646D01*
X172145646Y-33860147D01*
X172293216Y-33761544D01*
X172457188Y-33693624D01*
X172606488Y-33663927D01*
X172631258Y-33659000D01*
X172808742Y-33659000D01*
X172833512Y-33663927D01*
G37*
G36*
X170293512Y-33663927D02*
G01*
X170442812Y-33693624D01*
X170606784Y-33761544D01*
X170754354Y-33860147D01*
X170879853Y-33985646D01*
X170978456Y-34133216D01*
X171046376Y-34297188D01*
X171081000Y-34471259D01*
X171081000Y-34648741D01*
X171046376Y-34822812D01*
X170978456Y-34986784D01*
X170879853Y-35134354D01*
X170754354Y-35259853D01*
X170606784Y-35358456D01*
X170442812Y-35426376D01*
X170293512Y-35456073D01*
X170268742Y-35461000D01*
X170091258Y-35461000D01*
X170066488Y-35456073D01*
X169917188Y-35426376D01*
X169753216Y-35358456D01*
X169605646Y-35259853D01*
X169480147Y-35134354D01*
X169381544Y-34986784D01*
X169313624Y-34822812D01*
X169279000Y-34648741D01*
X169279000Y-34471259D01*
X169313624Y-34297188D01*
X169381544Y-34133216D01*
X169480147Y-33985646D01*
X169605646Y-33860147D01*
X169753216Y-33761544D01*
X169917188Y-33693624D01*
X170066488Y-33663927D01*
X170091258Y-33659000D01*
X170268742Y-33659000D01*
X170293512Y-33663927D01*
G37*
G36*
X167753512Y-33663927D02*
G01*
X167902812Y-33693624D01*
X168066784Y-33761544D01*
X168214354Y-33860147D01*
X168339853Y-33985646D01*
X168438456Y-34133216D01*
X168506376Y-34297188D01*
X168541000Y-34471259D01*
X168541000Y-34648741D01*
X168506376Y-34822812D01*
X168438456Y-34986784D01*
X168339853Y-35134354D01*
X168214354Y-35259853D01*
X168066784Y-35358456D01*
X167902812Y-35426376D01*
X167753512Y-35456073D01*
X167728742Y-35461000D01*
X167551258Y-35461000D01*
X167526488Y-35456073D01*
X167377188Y-35426376D01*
X167213216Y-35358456D01*
X167065646Y-35259853D01*
X166940147Y-35134354D01*
X166841544Y-34986784D01*
X166773624Y-34822812D01*
X166739000Y-34648741D01*
X166739000Y-34471259D01*
X166773624Y-34297188D01*
X166841544Y-34133216D01*
X166940147Y-33985646D01*
X167065646Y-33860147D01*
X167213216Y-33761544D01*
X167377188Y-33693624D01*
X167526488Y-33663927D01*
X167551258Y-33659000D01*
X167728742Y-33659000D01*
X167753512Y-33663927D01*
G37*
G36*
X155053512Y-33663927D02*
G01*
X155202812Y-33693624D01*
X155366784Y-33761544D01*
X155514354Y-33860147D01*
X155639853Y-33985646D01*
X155738456Y-34133216D01*
X155806376Y-34297188D01*
X155841000Y-34471259D01*
X155841000Y-34648741D01*
X155806376Y-34822812D01*
X155738456Y-34986784D01*
X155639853Y-35134354D01*
X155514354Y-35259853D01*
X155366784Y-35358456D01*
X155202812Y-35426376D01*
X155053512Y-35456073D01*
X155028742Y-35461000D01*
X154851258Y-35461000D01*
X154826488Y-35456073D01*
X154677188Y-35426376D01*
X154513216Y-35358456D01*
X154365646Y-35259853D01*
X154240147Y-35134354D01*
X154141544Y-34986784D01*
X154073624Y-34822812D01*
X154039000Y-34648741D01*
X154039000Y-34471259D01*
X154073624Y-34297188D01*
X154141544Y-34133216D01*
X154240147Y-33985646D01*
X154365646Y-33860147D01*
X154513216Y-33761544D01*
X154677188Y-33693624D01*
X154826488Y-33663927D01*
X154851258Y-33659000D01*
X155028742Y-33659000D01*
X155053512Y-33663927D01*
G37*
G36*
X152513512Y-33663927D02*
G01*
X152662812Y-33693624D01*
X152826784Y-33761544D01*
X152974354Y-33860147D01*
X153099853Y-33985646D01*
X153198456Y-34133216D01*
X153266376Y-34297188D01*
X153301000Y-34471259D01*
X153301000Y-34648741D01*
X153266376Y-34822812D01*
X153198456Y-34986784D01*
X153099853Y-35134354D01*
X152974354Y-35259853D01*
X152826784Y-35358456D01*
X152662812Y-35426376D01*
X152513512Y-35456073D01*
X152488742Y-35461000D01*
X152311258Y-35461000D01*
X152286488Y-35456073D01*
X152137188Y-35426376D01*
X151973216Y-35358456D01*
X151825646Y-35259853D01*
X151700147Y-35134354D01*
X151601544Y-34986784D01*
X151533624Y-34822812D01*
X151499000Y-34648741D01*
X151499000Y-34471259D01*
X151533624Y-34297188D01*
X151601544Y-34133216D01*
X151700147Y-33985646D01*
X151825646Y-33860147D01*
X151973216Y-33761544D01*
X152137188Y-33693624D01*
X152286488Y-33663927D01*
X152311258Y-33659000D01*
X152488742Y-33659000D01*
X152513512Y-33663927D01*
G37*
G36*
X149973512Y-33663927D02*
G01*
X150122812Y-33693624D01*
X150286784Y-33761544D01*
X150434354Y-33860147D01*
X150559853Y-33985646D01*
X150658456Y-34133216D01*
X150726376Y-34297188D01*
X150761000Y-34471259D01*
X150761000Y-34648741D01*
X150726376Y-34822812D01*
X150658456Y-34986784D01*
X150559853Y-35134354D01*
X150434354Y-35259853D01*
X150286784Y-35358456D01*
X150122812Y-35426376D01*
X149973512Y-35456073D01*
X149948742Y-35461000D01*
X149771258Y-35461000D01*
X149746488Y-35456073D01*
X149597188Y-35426376D01*
X149433216Y-35358456D01*
X149285646Y-35259853D01*
X149160147Y-35134354D01*
X149061544Y-34986784D01*
X148993624Y-34822812D01*
X148959000Y-34648741D01*
X148959000Y-34471259D01*
X148993624Y-34297188D01*
X149061544Y-34133216D01*
X149160147Y-33985646D01*
X149285646Y-33860147D01*
X149433216Y-33761544D01*
X149597188Y-33693624D01*
X149746488Y-33663927D01*
X149771258Y-33659000D01*
X149948742Y-33659000D01*
X149973512Y-33663927D01*
G37*
G36*
X147433512Y-33663927D02*
G01*
X147582812Y-33693624D01*
X147746784Y-33761544D01*
X147894354Y-33860147D01*
X148019853Y-33985646D01*
X148118456Y-34133216D01*
X148186376Y-34297188D01*
X148221000Y-34471259D01*
X148221000Y-34648741D01*
X148186376Y-34822812D01*
X148118456Y-34986784D01*
X148019853Y-35134354D01*
X147894354Y-35259853D01*
X147746784Y-35358456D01*
X147582812Y-35426376D01*
X147433512Y-35456073D01*
X147408742Y-35461000D01*
X147231258Y-35461000D01*
X147206488Y-35456073D01*
X147057188Y-35426376D01*
X146893216Y-35358456D01*
X146745646Y-35259853D01*
X146620147Y-35134354D01*
X146521544Y-34986784D01*
X146453624Y-34822812D01*
X146419000Y-34648741D01*
X146419000Y-34471259D01*
X146453624Y-34297188D01*
X146521544Y-34133216D01*
X146620147Y-33985646D01*
X146745646Y-33860147D01*
X146893216Y-33761544D01*
X147057188Y-33693624D01*
X147206488Y-33663927D01*
X147231258Y-33659000D01*
X147408742Y-33659000D01*
X147433512Y-33663927D01*
G37*
G36*
X137273512Y-33663927D02*
G01*
X137422812Y-33693624D01*
X137586784Y-33761544D01*
X137734354Y-33860147D01*
X137859853Y-33985646D01*
X137958456Y-34133216D01*
X138026376Y-34297188D01*
X138061000Y-34471259D01*
X138061000Y-34648741D01*
X138026376Y-34822812D01*
X137958456Y-34986784D01*
X137859853Y-35134354D01*
X137734354Y-35259853D01*
X137586784Y-35358456D01*
X137422812Y-35426376D01*
X137273512Y-35456073D01*
X137248742Y-35461000D01*
X137071258Y-35461000D01*
X137046488Y-35456073D01*
X136897188Y-35426376D01*
X136733216Y-35358456D01*
X136585646Y-35259853D01*
X136460147Y-35134354D01*
X136361544Y-34986784D01*
X136293624Y-34822812D01*
X136259000Y-34648741D01*
X136259000Y-34471259D01*
X136293624Y-34297188D01*
X136361544Y-34133216D01*
X136460147Y-33985646D01*
X136585646Y-33860147D01*
X136733216Y-33761544D01*
X136897188Y-33693624D01*
X137046488Y-33663927D01*
X137071258Y-33659000D01*
X137248742Y-33659000D01*
X137273512Y-33663927D01*
G37*
G36*
X210933512Y-33663927D02*
G01*
X211082812Y-33693624D01*
X211246784Y-33761544D01*
X211394354Y-33860147D01*
X211519853Y-33985646D01*
X211618456Y-34133216D01*
X211686376Y-34297188D01*
X211721000Y-34471259D01*
X211721000Y-34648741D01*
X211686376Y-34822812D01*
X211618456Y-34986784D01*
X211519853Y-35134354D01*
X211394354Y-35259853D01*
X211246784Y-35358456D01*
X211082812Y-35426376D01*
X210933512Y-35456073D01*
X210908742Y-35461000D01*
X210731258Y-35461000D01*
X210706488Y-35456073D01*
X210557188Y-35426376D01*
X210393216Y-35358456D01*
X210245646Y-35259853D01*
X210120147Y-35134354D01*
X210021544Y-34986784D01*
X209953624Y-34822812D01*
X209919000Y-34648741D01*
X209919000Y-34471259D01*
X209953624Y-34297188D01*
X210021544Y-34133216D01*
X210120147Y-33985646D01*
X210245646Y-33860147D01*
X210393216Y-33761544D01*
X210557188Y-33693624D01*
X210706488Y-33663927D01*
X210731258Y-33659000D01*
X210908742Y-33659000D01*
X210933512Y-33663927D01*
G37*
G36*
X213473512Y-33663927D02*
G01*
X213622812Y-33693624D01*
X213786784Y-33761544D01*
X213934354Y-33860147D01*
X214059853Y-33985646D01*
X214158456Y-34133216D01*
X214226376Y-34297188D01*
X214261000Y-34471259D01*
X214261000Y-34648741D01*
X214226376Y-34822812D01*
X214158456Y-34986784D01*
X214059853Y-35134354D01*
X213934354Y-35259853D01*
X213786784Y-35358456D01*
X213622812Y-35426376D01*
X213473512Y-35456073D01*
X213448742Y-35461000D01*
X213271258Y-35461000D01*
X213246488Y-35456073D01*
X213097188Y-35426376D01*
X212933216Y-35358456D01*
X212785646Y-35259853D01*
X212660147Y-35134354D01*
X212561544Y-34986784D01*
X212493624Y-34822812D01*
X212459000Y-34648741D01*
X212459000Y-34471259D01*
X212493624Y-34297188D01*
X212561544Y-34133216D01*
X212660147Y-33985646D01*
X212785646Y-33860147D01*
X212933216Y-33761544D01*
X213097188Y-33693624D01*
X213246488Y-33663927D01*
X213271258Y-33659000D01*
X213448742Y-33659000D01*
X213473512Y-33663927D01*
G37*
G36*
X157593512Y-33663927D02*
G01*
X157742812Y-33693624D01*
X157906784Y-33761544D01*
X158054354Y-33860147D01*
X158179853Y-33985646D01*
X158278456Y-34133216D01*
X158346376Y-34297188D01*
X158381000Y-34471259D01*
X158381000Y-34648741D01*
X158346376Y-34822812D01*
X158278456Y-34986784D01*
X158179853Y-35134354D01*
X158054354Y-35259853D01*
X157906784Y-35358456D01*
X157742812Y-35426376D01*
X157593512Y-35456073D01*
X157568742Y-35461000D01*
X157391258Y-35461000D01*
X157366488Y-35456073D01*
X157217188Y-35426376D01*
X157053216Y-35358456D01*
X156905646Y-35259853D01*
X156780147Y-35134354D01*
X156681544Y-34986784D01*
X156613624Y-34822812D01*
X156579000Y-34648741D01*
X156579000Y-34471259D01*
X156613624Y-34297188D01*
X156681544Y-34133216D01*
X156780147Y-33985646D01*
X156905646Y-33860147D01*
X157053216Y-33761544D01*
X157217188Y-33693624D01*
X157366488Y-33663927D01*
X157391258Y-33659000D01*
X157568742Y-33659000D01*
X157593512Y-33663927D01*
G37*
G36*
X198233512Y-33663927D02*
G01*
X198382812Y-33693624D01*
X198546784Y-33761544D01*
X198694354Y-33860147D01*
X198819853Y-33985646D01*
X198918456Y-34133216D01*
X198986376Y-34297188D01*
X199021000Y-34471259D01*
X199021000Y-34648741D01*
X198986376Y-34822812D01*
X198918456Y-34986784D01*
X198819853Y-35134354D01*
X198694354Y-35259853D01*
X198546784Y-35358456D01*
X198382812Y-35426376D01*
X198233512Y-35456073D01*
X198208742Y-35461000D01*
X198031258Y-35461000D01*
X198006488Y-35456073D01*
X197857188Y-35426376D01*
X197693216Y-35358456D01*
X197545646Y-35259853D01*
X197420147Y-35134354D01*
X197321544Y-34986784D01*
X197253624Y-34822812D01*
X197219000Y-34648741D01*
X197219000Y-34471259D01*
X197253624Y-34297188D01*
X197321544Y-34133216D01*
X197420147Y-33985646D01*
X197545646Y-33860147D01*
X197693216Y-33761544D01*
X197857188Y-33693624D01*
X198006488Y-33663927D01*
X198031258Y-33659000D01*
X198208742Y-33659000D01*
X198233512Y-33663927D01*
G37*
G36*
X127113512Y-33663927D02*
G01*
X127262812Y-33693624D01*
X127426784Y-33761544D01*
X127574354Y-33860147D01*
X127699853Y-33985646D01*
X127798456Y-34133216D01*
X127866376Y-34297188D01*
X127901000Y-34471259D01*
X127901000Y-34648741D01*
X127866376Y-34822812D01*
X127798456Y-34986784D01*
X127699853Y-35134354D01*
X127574354Y-35259853D01*
X127426784Y-35358456D01*
X127262812Y-35426376D01*
X127113512Y-35456073D01*
X127088742Y-35461000D01*
X126911258Y-35461000D01*
X126886488Y-35456073D01*
X126737188Y-35426376D01*
X126573216Y-35358456D01*
X126425646Y-35259853D01*
X126300147Y-35134354D01*
X126201544Y-34986784D01*
X126133624Y-34822812D01*
X126099000Y-34648741D01*
X126099000Y-34471259D01*
X126133624Y-34297188D01*
X126201544Y-34133216D01*
X126300147Y-33985646D01*
X126425646Y-33860147D01*
X126573216Y-33761544D01*
X126737188Y-33693624D01*
X126886488Y-33663927D01*
X126911258Y-33659000D01*
X127088742Y-33659000D01*
X127113512Y-33663927D01*
G37*
G36*
X129653512Y-33663927D02*
G01*
X129802812Y-33693624D01*
X129966784Y-33761544D01*
X130114354Y-33860147D01*
X130239853Y-33985646D01*
X130338456Y-34133216D01*
X130406376Y-34297188D01*
X130441000Y-34471259D01*
X130441000Y-34648741D01*
X130406376Y-34822812D01*
X130338456Y-34986784D01*
X130239853Y-35134354D01*
X130114354Y-35259853D01*
X129966784Y-35358456D01*
X129802812Y-35426376D01*
X129653512Y-35456073D01*
X129628742Y-35461000D01*
X129451258Y-35461000D01*
X129426488Y-35456073D01*
X129277188Y-35426376D01*
X129113216Y-35358456D01*
X128965646Y-35259853D01*
X128840147Y-35134354D01*
X128741544Y-34986784D01*
X128673624Y-34822812D01*
X128639000Y-34648741D01*
X128639000Y-34471259D01*
X128673624Y-34297188D01*
X128741544Y-34133216D01*
X128840147Y-33985646D01*
X128965646Y-33860147D01*
X129113216Y-33761544D01*
X129277188Y-33693624D01*
X129426488Y-33663927D01*
X129451258Y-33659000D01*
X129628742Y-33659000D01*
X129653512Y-33663927D01*
G37*
G36*
X132193512Y-33663927D02*
G01*
X132342812Y-33693624D01*
X132506784Y-33761544D01*
X132654354Y-33860147D01*
X132779853Y-33985646D01*
X132878456Y-34133216D01*
X132946376Y-34297188D01*
X132981000Y-34471259D01*
X132981000Y-34648741D01*
X132946376Y-34822812D01*
X132878456Y-34986784D01*
X132779853Y-35134354D01*
X132654354Y-35259853D01*
X132506784Y-35358456D01*
X132342812Y-35426376D01*
X132193512Y-35456073D01*
X132168742Y-35461000D01*
X131991258Y-35461000D01*
X131966488Y-35456073D01*
X131817188Y-35426376D01*
X131653216Y-35358456D01*
X131505646Y-35259853D01*
X131380147Y-35134354D01*
X131281544Y-34986784D01*
X131213624Y-34822812D01*
X131179000Y-34648741D01*
X131179000Y-34471259D01*
X131213624Y-34297188D01*
X131281544Y-34133216D01*
X131380147Y-33985646D01*
X131505646Y-33860147D01*
X131653216Y-33761544D01*
X131817188Y-33693624D01*
X131966488Y-33663927D01*
X131991258Y-33659000D01*
X132168742Y-33659000D01*
X132193512Y-33663927D01*
G37*
G36*
X134733512Y-33663927D02*
G01*
X134882812Y-33693624D01*
X135046784Y-33761544D01*
X135194354Y-33860147D01*
X135319853Y-33985646D01*
X135418456Y-34133216D01*
X135486376Y-34297188D01*
X135521000Y-34471259D01*
X135521000Y-34648741D01*
X135486376Y-34822812D01*
X135418456Y-34986784D01*
X135319853Y-35134354D01*
X135194354Y-35259853D01*
X135046784Y-35358456D01*
X134882812Y-35426376D01*
X134733512Y-35456073D01*
X134708742Y-35461000D01*
X134531258Y-35461000D01*
X134506488Y-35456073D01*
X134357188Y-35426376D01*
X134193216Y-35358456D01*
X134045646Y-35259853D01*
X133920147Y-35134354D01*
X133821544Y-34986784D01*
X133753624Y-34822812D01*
X133719000Y-34648741D01*
X133719000Y-34471259D01*
X133753624Y-34297188D01*
X133821544Y-34133216D01*
X133920147Y-33985646D01*
X134045646Y-33860147D01*
X134193216Y-33761544D01*
X134357188Y-33693624D01*
X134506488Y-33663927D01*
X134531258Y-33659000D01*
X134708742Y-33659000D01*
X134733512Y-33663927D01*
G37*
G36*
X238873512Y-33663927D02*
G01*
X239022812Y-33693624D01*
X239186784Y-33761544D01*
X239334354Y-33860147D01*
X239459853Y-33985646D01*
X239558456Y-34133216D01*
X239626376Y-34297188D01*
X239661000Y-34471259D01*
X239661000Y-34648741D01*
X239626376Y-34822812D01*
X239558456Y-34986784D01*
X239459853Y-35134354D01*
X239334354Y-35259853D01*
X239186784Y-35358456D01*
X239022812Y-35426376D01*
X238873512Y-35456073D01*
X238848742Y-35461000D01*
X238671258Y-35461000D01*
X238646488Y-35456073D01*
X238497188Y-35426376D01*
X238333216Y-35358456D01*
X238185646Y-35259853D01*
X238060147Y-35134354D01*
X237961544Y-34986784D01*
X237893624Y-34822812D01*
X237859000Y-34648741D01*
X237859000Y-34471259D01*
X237893624Y-34297188D01*
X237961544Y-34133216D01*
X238060147Y-33985646D01*
X238185646Y-33860147D01*
X238333216Y-33761544D01*
X238497188Y-33693624D01*
X238646488Y-33663927D01*
X238671258Y-33659000D01*
X238848742Y-33659000D01*
X238873512Y-33663927D01*
G37*
G36*
X236333512Y-33663927D02*
G01*
X236482812Y-33693624D01*
X236646784Y-33761544D01*
X236794354Y-33860147D01*
X236919853Y-33985646D01*
X237018456Y-34133216D01*
X237086376Y-34297188D01*
X237121000Y-34471259D01*
X237121000Y-34648741D01*
X237086376Y-34822812D01*
X237018456Y-34986784D01*
X236919853Y-35134354D01*
X236794354Y-35259853D01*
X236646784Y-35358456D01*
X236482812Y-35426376D01*
X236333512Y-35456073D01*
X236308742Y-35461000D01*
X236131258Y-35461000D01*
X236106488Y-35456073D01*
X235957188Y-35426376D01*
X235793216Y-35358456D01*
X235645646Y-35259853D01*
X235520147Y-35134354D01*
X235421544Y-34986784D01*
X235353624Y-34822812D01*
X235319000Y-34648741D01*
X235319000Y-34471259D01*
X235353624Y-34297188D01*
X235421544Y-34133216D01*
X235520147Y-33985646D01*
X235645646Y-33860147D01*
X235793216Y-33761544D01*
X235957188Y-33693624D01*
X236106488Y-33663927D01*
X236131258Y-33659000D01*
X236308742Y-33659000D01*
X236333512Y-33663927D01*
G37*
G36*
X233793512Y-33663927D02*
G01*
X233942812Y-33693624D01*
X234106784Y-33761544D01*
X234254354Y-33860147D01*
X234379853Y-33985646D01*
X234478456Y-34133216D01*
X234546376Y-34297188D01*
X234581000Y-34471259D01*
X234581000Y-34648741D01*
X234546376Y-34822812D01*
X234478456Y-34986784D01*
X234379853Y-35134354D01*
X234254354Y-35259853D01*
X234106784Y-35358456D01*
X233942812Y-35426376D01*
X233793512Y-35456073D01*
X233768742Y-35461000D01*
X233591258Y-35461000D01*
X233566488Y-35456073D01*
X233417188Y-35426376D01*
X233253216Y-35358456D01*
X233105646Y-35259853D01*
X232980147Y-35134354D01*
X232881544Y-34986784D01*
X232813624Y-34822812D01*
X232779000Y-34648741D01*
X232779000Y-34471259D01*
X232813624Y-34297188D01*
X232881544Y-34133216D01*
X232980147Y-33985646D01*
X233105646Y-33860147D01*
X233253216Y-33761544D01*
X233417188Y-33693624D01*
X233566488Y-33663927D01*
X233591258Y-33659000D01*
X233768742Y-33659000D01*
X233793512Y-33663927D01*
G37*
G36*
X231253512Y-33663927D02*
G01*
X231402812Y-33693624D01*
X231566784Y-33761544D01*
X231714354Y-33860147D01*
X231839853Y-33985646D01*
X231938456Y-34133216D01*
X232006376Y-34297188D01*
X232041000Y-34471259D01*
X232041000Y-34648741D01*
X232006376Y-34822812D01*
X231938456Y-34986784D01*
X231839853Y-35134354D01*
X231714354Y-35259853D01*
X231566784Y-35358456D01*
X231402812Y-35426376D01*
X231253512Y-35456073D01*
X231228742Y-35461000D01*
X231051258Y-35461000D01*
X231026488Y-35456073D01*
X230877188Y-35426376D01*
X230713216Y-35358456D01*
X230565646Y-35259853D01*
X230440147Y-35134354D01*
X230341544Y-34986784D01*
X230273624Y-34822812D01*
X230239000Y-34648741D01*
X230239000Y-34471259D01*
X230273624Y-34297188D01*
X230341544Y-34133216D01*
X230440147Y-33985646D01*
X230565646Y-33860147D01*
X230713216Y-33761544D01*
X230877188Y-33693624D01*
X231026488Y-33663927D01*
X231051258Y-33659000D01*
X231228742Y-33659000D01*
X231253512Y-33663927D01*
G37*
G36*
X228713512Y-33663927D02*
G01*
X228862812Y-33693624D01*
X229026784Y-33761544D01*
X229174354Y-33860147D01*
X229299853Y-33985646D01*
X229398456Y-34133216D01*
X229466376Y-34297188D01*
X229501000Y-34471259D01*
X229501000Y-34648741D01*
X229466376Y-34822812D01*
X229398456Y-34986784D01*
X229299853Y-35134354D01*
X229174354Y-35259853D01*
X229026784Y-35358456D01*
X228862812Y-35426376D01*
X228713512Y-35456073D01*
X228688742Y-35461000D01*
X228511258Y-35461000D01*
X228486488Y-35456073D01*
X228337188Y-35426376D01*
X228173216Y-35358456D01*
X228025646Y-35259853D01*
X227900147Y-35134354D01*
X227801544Y-34986784D01*
X227733624Y-34822812D01*
X227699000Y-34648741D01*
X227699000Y-34471259D01*
X227733624Y-34297188D01*
X227801544Y-34133216D01*
X227900147Y-33985646D01*
X228025646Y-33860147D01*
X228173216Y-33761544D01*
X228337188Y-33693624D01*
X228486488Y-33663927D01*
X228511258Y-33659000D01*
X228688742Y-33659000D01*
X228713512Y-33663927D01*
G37*
M02*
