G04 #@! TF.GenerationSoftware,KiCad,Pcbnew,5.1.6-c6e7f7d~86~ubuntu20.04.1*
G04 #@! TF.CreationDate,2020-05-29T21:03:45+02:00*
G04 #@! TF.ProjectId,Stork,53746f72-6b2e-46b6-9963-61645f706362,rev?*
G04 #@! TF.SameCoordinates,Original*
G04 #@! TF.FileFunction,Profile,NP*
%FSLAX46Y46*%
G04 Gerber Fmt 4.6, Leading zero omitted, Abs format (unit mm)*
G04 Created by KiCad (PCBNEW 5.1.6-c6e7f7d~86~ubuntu20.04.1) date 2020-05-29 21:03:45*
%MOMM*%
%LPD*%
G01*
G04 APERTURE LIST*
G04 #@! TA.AperFunction,Profile*
%ADD10C,0.050000*%
G04 #@! TD*
G04 APERTURE END LIST*
D10*
X53000000Y-130000000D02*
X50000000Y-130000000D01*
X56000000Y-30000000D02*
X59000000Y-30000000D01*
X106000000Y-30000000D02*
X247000000Y-30000000D01*
X250000000Y-33000000D02*
X250000000Y-127000000D01*
X247000000Y-30000000D02*
G75*
G02*
X250000000Y-33000000I0J-3000000D01*
G01*
X63000000Y-53000000D02*
X64000000Y-53000000D01*
X106000000Y-30000000D02*
X104000000Y-30000000D01*
X102000000Y-32000000D02*
G75*
G02*
X104000000Y-30000000I2000000J0D01*
G01*
X55000000Y-30000000D02*
X56000000Y-30000000D01*
X59000000Y-30000000D02*
G75*
G02*
X61000000Y-32000000I0J-2000000D01*
G01*
X63000000Y-53000000D02*
G75*
G02*
X61000000Y-51000000I0J2000000D01*
G01*
X102000000Y-51000000D02*
G75*
G02*
X100000000Y-53000000I-2000000J0D01*
G01*
X50000000Y-30000000D02*
X55000000Y-30000000D01*
X61000000Y-51000000D02*
X61000000Y-32000000D01*
X100000000Y-53000000D02*
X64000000Y-53000000D01*
X102000000Y-32000000D02*
X102000000Y-51000000D01*
X47000000Y-33000000D02*
G75*
G02*
X50000000Y-30000000I3000000J0D01*
G01*
X47000000Y-127000000D02*
X47000000Y-33000000D01*
X247000000Y-130000000D02*
X53000000Y-130000000D01*
X250000000Y-127000000D02*
G75*
G02*
X247000000Y-130000000I-3000000J0D01*
G01*
X50000000Y-130000000D02*
G75*
G02*
X47000000Y-127000000I0J3000000D01*
G01*
M02*
