G04 #@! TF.GenerationSoftware,KiCad,Pcbnew,5.1.6-c6e7f7d~86~ubuntu20.04.1*
G04 #@! TF.CreationDate,2020-05-31T10:56:46+02:00*
G04 #@! TF.ProjectId,HPPSI02,48505053-4930-4322-9e6b-696361645f70,rev?*
G04 #@! TF.SameCoordinates,Original*
G04 #@! TF.FileFunction,Legend,Bot*
G04 #@! TF.FilePolarity,Positive*
%FSLAX46Y46*%
G04 Gerber Fmt 4.6, Leading zero omitted, Abs format (unit mm)*
G04 Created by KiCad (PCBNEW 5.1.6-c6e7f7d~86~ubuntu20.04.1) date 2020-05-31 10:56:46*
%MOMM*%
%LPD*%
G01*
G04 APERTURE LIST*
%ADD10C,0.150000*%
G04 APERTURE END LIST*
D10*
X60174047Y-72357142D02*
X60221666Y-72404761D01*
X60364523Y-72452380D01*
X60459761Y-72452380D01*
X60602619Y-72404761D01*
X60697857Y-72309523D01*
X60745476Y-72214285D01*
X60793095Y-72023809D01*
X60793095Y-71880952D01*
X60745476Y-71690476D01*
X60697857Y-71595238D01*
X60602619Y-71500000D01*
X60459761Y-71452380D01*
X60364523Y-71452380D01*
X60221666Y-71500000D01*
X60174047Y-71547619D01*
X59793095Y-71547619D02*
X59745476Y-71500000D01*
X59650238Y-71452380D01*
X59412142Y-71452380D01*
X59316904Y-71500000D01*
X59269285Y-71547619D01*
X59221666Y-71642857D01*
X59221666Y-71738095D01*
X59269285Y-71880952D01*
X59840714Y-72452380D01*
X59221666Y-72452380D01*
X58364523Y-71785714D02*
X58364523Y-72452380D01*
X58602619Y-71404761D02*
X58840714Y-72119047D01*
X58221666Y-72119047D01*
X57364523Y-71452380D02*
X57840714Y-71452380D01*
X57888333Y-71928571D01*
X57840714Y-71880952D01*
X57745476Y-71833333D01*
X57507380Y-71833333D01*
X57412142Y-71880952D01*
X57364523Y-71928571D01*
X57316904Y-72023809D01*
X57316904Y-72261904D01*
X57364523Y-72357142D01*
X57412142Y-72404761D01*
X57507380Y-72452380D01*
X57745476Y-72452380D01*
X57840714Y-72404761D01*
X57888333Y-72357142D01*
M02*
